  0
SECTION
  2
HEADER
  9
$ANGBASE
  50
0.0
  9
$ANGDIR
  70
  1
  9
$MEASUREMENT
  70
0
  0
ENDSEC
  0
SECTION
  2
TABLES
  0
TABLE
  2
LTYPE
  70
1
  0
LTYPE
  2
CONTINUOUS
  70
0
  3
Solid line
  72
65
  73
0
  40
0.0
  0
ENDTAB
  0
TABLE
  2
STYLE
  70
4
  0
STYLE
  2
KICAD
  70
0
  40
0
  41
1
  42
1
  50
0
  71
0
  3
isocp.shx
  0
STYLE
  2
KICADB
  70
0
  40
0
  41
1
  42
1
  50
0
  71
0
  3
isocp.shx
  0
STYLE
  2
KICADI
  70
0
  40
0
  41
1
  42
1
  50
15
  71
0
  3
isocp.shx
  0
STYLE
  2
KICADBI
  70
0
  40
0
  41
1
  42
1
  50
15
  71
0
  3
isocp.shx
  0
ENDTAB
  0
TABLE
  2
LAYER
  70
30
  0
LAYER
  2
BLACK
  70
0
  62
7
  6
CONTINUOUS
  0
LAYER
  2
GRAY1
  70
0
  62
251
  6
CONTINUOUS
  0
LAYER
  2
GRAY2
  70
0
  62
8
  6
CONTINUOUS
  0
LAYER
  2
GRAY3
  70
0
  62
9
  6
CONTINUOUS
  0
LAYER
  2
WHITE
  70
0
  62
7
  6
CONTINUOUS
  0
LAYER
  2
LYELLOW
  70
0
  62
51
  6
CONTINUOUS
  0
LAYER
  2
BLUE1
  70
0
  62
178
  6
CONTINUOUS
  0
LAYER
  2
GREEN1
  70
0
  62
98
  6
CONTINUOUS
  0
LAYER
  2
CYAN1
  70
0
  62
138
  6
CONTINUOUS
  0
LAYER
  2
RED1
  70
0
  62
18
  6
CONTINUOUS
  0
LAYER
  2
MAGENTA1
  70
0
  62
228
  6
CONTINUOUS
  0
LAYER
  2
BROWN1
  70
0
  62
58
  6
CONTINUOUS
  0
LAYER
  2
BLUE2
  70
0
  62
5
  6
CONTINUOUS
  0
LAYER
  2
GREEN2
  70
0
  62
3
  6
CONTINUOUS
  0
LAYER
  2
CYAN2
  70
0
  62
4
  6
CONTINUOUS
  0
LAYER
  2
RED2
  70
0
  62
1
  6
CONTINUOUS
  0
LAYER
  2
MAGENTA2
  70
0
  62
6
  6
CONTINUOUS
  0
LAYER
  2
BROWN2
  70
0
  62
54
  6
CONTINUOUS
  0
LAYER
  2
BLUE3
  70
0
  62
171
  6
CONTINUOUS
  0
LAYER
  2
GREEN3
  70
0
  62
91
  6
CONTINUOUS
  0
LAYER
  2
CYAN3
  70
0
  62
131
  6
CONTINUOUS
  0
LAYER
  2
RED3
  70
0
  62
11
  6
CONTINUOUS
  0
LAYER
  2
MAGENTA3
  70
0
  62
221
  6
CONTINUOUS
  0
LAYER
  2
YELLOW3
  70
0
  62
2
  6
CONTINUOUS
  0
LAYER
  2
BLUE4
  70
0
  62
5
  6
CONTINUOUS
  0
LAYER
  2
GREEN4
  70
0
  62
3
  6
CONTINUOUS
  0
LAYER
  2
CYAN4
  70
0
  62
4
  6
CONTINUOUS
  0
LAYER
  2
RED4
  70
0
  62
1
  6
CONTINUOUS
  0
LAYER
  2
MAGENTA4
  70
0
  62
6
  6
CONTINUOUS
  0
LAYER
  2
YELLOW4
  70
0
  62
2
  6
CONTINUOUS
  0
ENDTAB
  0
ENDSEC
  0
SECTION
  2
ENTITIES
0
LINE
8
Black
10
150.57
20
-123.825
11
150.57
21
-65.405
0
LINE
8
Black
10
150.42
20
-123.825
11
150.42
21
-65.405
0
ARC
8
Black
10
150.495
20
-65.405
40
0.075
50
360
51
540
0
ARC
8
Black
10
150.495
20
-123.825
40
0.075
50
180
51
360
0
LINE
8
Black
10
150.495
20
-123.9
11
151.765
21
-123.9
0
LINE
8
Black
10
150.495
20
-123.75
11
151.765
21
-123.75
0
ARC
8
Black
10
151.765
20
-123.825
40
0.075
50
270
51
450
0
ARC
8
Black
10
150.495
20
-123.825
40
0.075
50
90
51
270
0
LINE
8
Black
10
151.765
20
-123.9
11
189.865
21
-123.9
0
LINE
8
Black
10
151.765
20
-123.75
11
189.865
21
-123.75
0
ARC
8
Black
10
189.865
20
-123.825
40
0.075
50
270
51
450
0
ARC
8
Black
10
151.765
20
-123.825
40
0.075
50
90
51
270
0
LINE
8
Black
10
189.94
20
-123.825
11
189.94
21
-65.405
0
LINE
8
Black
10
189.79
20
-123.825
11
189.79
21
-65.405
0
ARC
8
Black
10
189.865
20
-65.405
40
0.075
50
360
51
540
0
ARC
8
Black
10
189.865
20
-123.825
40
0.075
50
180
51
360
0
LINE
8
Black
10
150.495
20
-65.48
11
189.865
21
-65.48
0
LINE
8
Black
10
150.495
20
-65.33
11
189.865
21
-65.33
0
ARC
8
Black
10
189.865
20
-65.405
40
0.075
50
270
51
450
0
ARC
8
Black
10
150.495
20
-65.405
40
0.075
50
90
51
270
0
LINE
8
Black
10
186.139
20
-115.376
11
186.639
21
-115.876
0
LINE
8
Black
10
186.639
20
-115.376
11
186.139
21
-115.876
0
LINE
8
Black
10
186.714
20
-115.376
11
186.064
21
-115.376
0
LINE
8
Black
10
186.714
20
-115.876
11
186.064
21
-115.876
0
ARC
8
Black
10
186.064
20
-115.626
40
0.25
50
450
51
630
0
ARC
8
Black
10
186.714
20
-115.626
40
0.25
50
270
51
450
0
LINE
8
Black
10
186.139
20
-122.376
11
186.639
21
-122.876
0
LINE
8
Black
10
186.639
20
-122.376
11
186.139
21
-122.876
0
LINE
8
Black
10
186.714
20
-122.376
11
186.064
21
-122.376
0
LINE
8
Black
10
186.714
20
-122.876
11
186.064
21
-122.876
0
ARC
8
Black
10
186.064
20
-122.626
40
0.25
50
450
51
630
0
ARC
8
Black
10
186.714
20
-122.626
40
0.25
50
270
51
450
0
CIRCLE
8
Black
10
183.689
20
-116.626
40
0.275
0
LINE
8
Black
10
183.964
20
-116.776
11
183.964
21
-116.476
0
LINE
8
Black
10
183.414
20
-116.776
11
183.414
21
-116.476
0
ARC
8
Black
10
183.689
20
-116.476
40
0.275
50
360
51
540
0
ARC
8
Black
10
183.689
20
-116.776
40
0.275
50
180
51
360
0
CIRCLE
8
Black
10
183.689
20
-121.626
40
0.275
0
LINE
8
Black
10
183.964
20
-121.776
11
183.964
21
-121.476
0
LINE
8
Black
10
183.414
20
-121.776
11
183.414
21
-121.476
0
ARC
8
Black
10
183.689
20
-121.476
40
0.275
50
360
51
540
0
ARC
8
Black
10
183.689
20
-121.776
40
0.275
50
180
51
360
0
LINE
8
Black
10
155.448
20
-68.434
11
155.448
21
-69.234
0
LINE
8
Black
10
155.048
20
-68.834
11
155.848
21
-68.834
0
LINE
8
Black
10
155.448
20
-71.99
11
155.448
21
-72.79
0
LINE
8
Black
10
155.048
20
-72.39
11
155.848
21
-72.39
0
LINE
8
Black
10
156.283
20
-101.581
11
156.283
21
-102.381
0
LINE
8
Black
10
155.883
20
-101.981
11
156.683
21
-101.981
0
LINE
8
Black
10
161.163
20
-101.581
11
161.163
21
-102.381
0
LINE
8
Black
10
160.763
20
-101.981
11
161.563
21
-101.981
0
LINE
8
Black
10
165.608
20
-68.434
11
165.608
21
-69.234
0
LINE
8
Black
10
165.208
20
-68.834
11
166.008
21
-68.834
0
LINE
8
Black
10
165.608
20
-71.99
11
165.608
21
-72.79
0
LINE
8
Black
10
165.208
20
-72.39
11
166.008
21
-72.39
0
LINE
8
Black
10
166.751
20
-94.977
11
166.751
21
-95.777
0
LINE
8
Black
10
166.351
20
-95.377
11
167.151
21
-95.377
0
LINE
8
Black
10
166.751
20
-98.406
11
166.751
21
-99.206
0
LINE
8
Black
10
166.351
20
-98.806
11
167.151
21
-98.806
0
LINE
8
Black
10
172.593
20
-108.693
11
172.593
21
-109.493
0
LINE
8
Black
10
172.193
20
-109.093
11
172.993
21
-109.093
0
LINE
8
Black
10
172.593
20
-118.853
11
172.593
21
-119.653
0
LINE
8
Black
10
172.193
20
-119.253
11
172.993
21
-119.253
0
LINE
8
Black
10
176.022
20
-105.264
11
176.022
21
-106.064
0
LINE
8
Black
10
175.622
20
-105.664
11
176.422
21
-105.664
0
LINE
8
Black
10
176.022
20
-115.424
11
176.022
21
-116.224
0
LINE
8
Black
10
175.622
20
-115.824
11
176.422
21
-115.824
0
LINE
8
Black
10
176.911
20
-94.977
11
176.911
21
-95.777
0
LINE
8
Black
10
176.511
20
-95.377
11
177.311
21
-95.377
0
LINE
8
Black
10
176.911
20
-98.406
11
176.911
21
-99.206
0
LINE
8
Black
10
176.511
20
-98.806
11
177.311
21
-98.806
0
LINE
8
Black
10
179.832
20
-94.85
11
179.832
21
-95.65
0
LINE
8
Black
10
179.432
20
-95.25
11
180.232
21
-95.25
0
LINE
8
Black
10
179.832
20
-97.39
11
179.832
21
-98.19
0
LINE
8
Black
10
179.432
20
-97.79
11
180.232
21
-97.79
0
LINE
8
Black
10
179.832
20
-99.93
11
179.832
21
-100.73
0
LINE
8
Black
10
179.432
20
-100.33
11
180.232
21
-100.33
0
LINE
8
Black
10
179.832
20
-103.232
11
179.832
21
-104.032
0
LINE
8
Black
10
179.432
20
-103.632
11
180.232
21
-103.632
0
LINE
8
Black
10
179.832
20
-105.772
11
179.832
21
-106.572
0
LINE
8
Black
10
179.432
20
-106.172
11
180.232
21
-106.172
0
LINE
8
Black
10
179.832
20
-108.312
11
179.832
21
-109.112
0
LINE
8
Black
10
179.432
20
-108.712
11
180.232
21
-108.712
0
LINE
8
Black
10
187.452
20
-94.85
11
187.452
21
-95.65
0
LINE
8
Black
10
187.052
20
-95.25
11
187.852
21
-95.25
0
LINE
8
Black
10
187.452
20
-97.39
11
187.452
21
-98.19
0
LINE
8
Black
10
187.052
20
-97.79
11
187.852
21
-97.79
0
LINE
8
Black
10
187.452
20
-99.93
11
187.452
21
-100.73
0
LINE
8
Black
10
187.052
20
-100.33
11
187.852
21
-100.33
0
LINE
8
Black
10
187.452
20
-103.232
11
187.452
21
-104.032
0
LINE
8
Black
10
187.052
20
-103.632
11
187.852
21
-103.632
0
LINE
8
Black
10
187.452
20
-105.772
11
187.452
21
-106.572
0
LINE
8
Black
10
187.052
20
-106.172
11
187.852
21
-106.172
0
LINE
8
Black
10
187.452
20
-108.312
11
187.452
21
-109.112
0
LINE
8
Black
10
187.052
20
-108.712
11
187.852
21
-108.712
0
LINE
8
Black
10
157.072
20
-76.5536
11
157.072
21
-75.8464
0
LINE
8
Black
10
157.072
20
-75.8464
11
156.364
21
-75.8464
0
LINE
8
Black
10
156.364
20
-75.8464
11
156.364
21
-76.5536
0
LINE
8
Black
10
156.364
20
-76.5536
11
157.072
21
-76.5536
0
LINE
8
Black
10
159.612
20
-76.5536
11
159.612
21
-75.8464
0
LINE
8
Black
10
159.612
20
-75.8464
11
158.904
21
-75.8464
0
LINE
8
Black
10
158.904
20
-75.8464
11
158.904
21
-76.5536
0
LINE
8
Black
10
158.904
20
-76.5536
11
159.612
21
-76.5536
0
LINE
8
Black
10
162.152
20
-76.5536
11
162.152
21
-75.8464
0
LINE
8
Black
10
162.152
20
-75.8464
11
161.444
21
-75.8464
0
LINE
8
Black
10
161.444
20
-75.8464
11
161.444
21
-76.5536
0
LINE
8
Black
10
161.444
20
-76.5536
11
162.152
21
-76.5536
0
LINE
8
Black
10
162.152
20
-115.543
11
162.152
21
-114.835
0
LINE
8
Black
10
162.152
20
-114.835
11
161.444
21
-114.835
0
LINE
8
Black
10
161.444
20
-114.835
11
161.444
21
-115.543
0
LINE
8
Black
10
161.444
20
-115.543
11
162.152
21
-115.543
0
LINE
8
Black
10
164.692
20
-76.5536
11
164.692
21
-75.8464
0
LINE
8
Black
10
164.692
20
-75.8464
11
163.984
21
-75.8464
0
LINE
8
Black
10
163.984
20
-75.8464
11
163.984
21
-76.5536
0
LINE
8
Black
10
163.984
20
-76.5536
11
164.692
21
-76.5536
0
LINE
8
Black
10
164.692
20
-115.543
11
164.692
21
-114.835
0
LINE
8
Black
10
164.692
20
-114.835
11
163.984
21
-114.835
0
LINE
8
Black
10
163.984
20
-114.835
11
163.984
21
-115.543
0
LINE
8
Black
10
163.984
20
-115.543
11
164.692
21
-115.543
0
LINE
8
Black
10
172.312
20
-82.3956
11
172.312
21
-81.6884
0
LINE
8
Black
10
172.312
20
-81.6884
11
171.604
21
-81.6884
0
LINE
8
Black
10
171.604
20
-81.6884
11
171.604
21
-82.3956
0
LINE
8
Black
10
171.604
20
-82.3956
11
172.312
21
-82.3956
0
LINE
8
Black
10
172.312
20
-84.8956
11
172.312
21
-84.1884
0
LINE
8
Black
10
172.312
20
-84.1884
11
171.604
21
-84.1884
0
LINE
8
Black
10
171.604
20
-84.1884
11
171.604
21
-84.8956
0
LINE
8
Black
10
171.604
20
-84.8956
11
172.312
21
-84.8956
0
LINE
8
Black
10
172.312
20
-87.3956
11
172.312
21
-86.6884
0
LINE
8
Black
10
172.312
20
-86.6884
11
171.604
21
-86.6884
0
LINE
8
Black
10
171.604
20
-86.6884
11
171.604
21
-87.3956
0
LINE
8
Black
10
171.604
20
-87.3956
11
172.312
21
-87.3956
0
LINE
8
Black
10
176.058
20
-75.2836
11
176.058
21
-74.5764
0
LINE
8
Black
10
176.058
20
-74.5764
11
175.351
21
-74.5764
0
LINE
8
Black
10
175.351
20
-74.5764
11
175.351
21
-75.2836
0
LINE
8
Black
10
175.351
20
-75.2836
11
176.058
21
-75.2836
0
LINE
8
Black
10
178.598
20
-75.2836
11
178.598
21
-74.5764
0
LINE
8
Black
10
178.598
20
-74.5764
11
177.891
21
-74.5764
0
LINE
8
Black
10
177.891
20
-74.5764
11
177.891
21
-75.2836
0
LINE
8
Black
10
177.891
20
-75.2836
11
178.598
21
-75.2836
0
LINE
8
Black
10
181.138
20
-75.2836
11
181.138
21
-74.5764
0
LINE
8
Black
10
181.138
20
-74.5764
11
180.431
21
-74.5764
0
LINE
8
Black
10
180.431
20
-74.5764
11
180.431
21
-75.2836
0
LINE
8
Black
10
180.431
20
-75.2836
11
181.138
21
-75.2836
0
LINE
8
Black
10
181.456
20
-112.876
11
181.456
21
-112.168
0
LINE
8
Black
10
181.456
20
-112.168
11
180.748
21
-112.168
0
LINE
8
Black
10
180.748
20
-112.168
11
180.748
21
-112.876
0
LINE
8
Black
10
180.748
20
-112.876
11
181.456
21
-112.876
0
LINE
8
Black
10
183.678
20
-75.2836
11
183.678
21
-74.5764
0
LINE
8
Black
10
183.678
20
-74.5764
11
182.971
21
-74.5764
0
LINE
8
Black
10
182.971
20
-74.5764
11
182.971
21
-75.2836
0
LINE
8
Black
10
182.971
20
-75.2836
11
183.678
21
-75.2836
0
LINE
8
Black
10
183.996
20
-112.876
11
183.996
21
-112.168
0
LINE
8
Black
10
183.996
20
-112.168
11
183.288
21
-112.168
0
LINE
8
Black
10
183.288
20
-112.168
11
183.288
21
-112.876
0
LINE
8
Black
10
183.288
20
-112.876
11
183.996
21
-112.876
0
LINE
8
Black
10
186.536
20
-112.876
11
186.536
21
-112.168
0
LINE
8
Black
10
186.536
20
-112.168
11
185.828
21
-112.168
0
LINE
8
Black
10
185.828
20
-112.168
11
185.828
21
-112.876
0
LINE
8
Black
10
185.828
20
-112.876
11
186.536
21
-112.876
0
LINE
8
Black
10
186.812
20
-82.3956
11
186.812
21
-81.6884
0
LINE
8
Black
10
186.812
20
-81.6884
11
186.104
21
-81.6884
0
LINE
8
Black
10
186.104
20
-81.6884
11
186.104
21
-82.3956
0
LINE
8
Black
10
186.104
20
-82.3956
11
186.812
21
-82.3956
0
LINE
8
Black
10
186.812
20
-87.3956
11
186.812
21
-86.6884
0
LINE
8
Black
10
186.812
20
-86.6884
11
186.104
21
-86.6884
0
LINE
8
Black
10
186.104
20
-86.6884
11
186.104
21
-87.3956
0
LINE
8
Black
10
186.104
20
-87.3956
11
186.812
21
-87.3956
0
LINE
8
Black
10
179.458
20
-79.692
11
180.208
21
-78.942
0
LINE
8
Black
10
180.208
20
-78.942
11
179.458
21
-78.192
0
LINE
8
Black
10
179.458
20
-78.192
11
178.708
21
-78.942
0
LINE
8
Black
10
178.708
20
-78.942
11
179.458
21
-79.692
0
LINE
8
Black
10
178.808
20
-79.692
11
180.108
21
-79.692
0
LINE
8
Black
10
178.808
20
-78.192
11
180.108
21
-78.192
0
ARC
8
Black
10
180.108
20
-78.942
40
0.75
50
270
51
450
0
ARC
8
Black
10
178.808
20
-78.942
40
0.75
50
90
51
270
0
LINE
8
Black
10
179.458
20
-90.892
11
180.208
21
-90.142
0
LINE
8
Black
10
180.208
20
-90.142
11
179.458
21
-89.392
0
LINE
8
Black
10
179.458
20
-89.392
11
178.708
21
-90.142
0
LINE
8
Black
10
178.708
20
-90.142
11
179.458
21
-90.892
0
LINE
8
Black
10
178.808
20
-90.892
11
180.108
21
-90.892
0
LINE
8
Black
10
178.808
20
-89.392
11
180.108
21
-89.392
0
ARC
8
Black
10
180.108
20
-90.142
40
0.75
50
270
51
450
0
ARC
8
Black
10
178.808
20
-90.142
40
0.75
50
90
51
270
0
LINE
8
Black
10
153.134
20
-128.557
11
153.134
21
-125.557
0
LINE
8
Black
10
153.134
20
-125.557
11
153.849
21
-125.557
0
LINE
8
Black
10
153.849
20
-125.557
11
154.277
21
-125.7
0
LINE
8
Black
10
154.277
20
-125.7
11
154.563
21
-125.986
0
LINE
8
Black
10
154.563
20
-125.986
11
154.706
21
-126.271
0
LINE
8
Black
10
154.706
20
-126.271
11
154.849
21
-126.843
0
LINE
8
Black
10
154.849
20
-126.843
11
154.849
21
-127.271
0
LINE
8
Black
10
154.849
20
-127.271
11
154.706
21
-127.843
0
LINE
8
Black
10
154.706
20
-127.843
11
154.563
21
-128.129
0
LINE
8
Black
10
154.563
20
-128.129
11
154.277
21
-128.414
0
LINE
8
Black
10
154.277
20
-128.414
11
153.849
21
-128.557
0
LINE
8
Black
10
153.849
20
-128.557
11
153.134
21
-128.557
0
LINE
8
Black
10
156.134
20
-128.557
11
156.134
21
-126.557
0
LINE
8
Black
10
156.134
20
-127.129
11
156.277
21
-126.843
0
LINE
8
Black
10
156.277
20
-126.843
11
156.42
21
-126.7
0
LINE
8
Black
10
156.42
20
-126.7
11
156.706
21
-126.557
0
LINE
8
Black
10
156.706
20
-126.557
11
156.991
21
-126.557
0
LINE
8
Black
10
157.991
20
-128.557
11
157.991
21
-126.557
0
LINE
8
Black
10
157.991
20
-125.557
11
157.849
21
-125.7
0
LINE
8
Black
10
157.849
20
-125.7
11
157.991
21
-125.843
0
LINE
8
Black
10
157.991
20
-125.843
11
158.134
21
-125.7
0
LINE
8
Black
10
158.134
20
-125.7
11
157.991
21
-125.557
0
LINE
8
Black
10
157.991
20
-125.557
11
157.991
21
-125.843
0
LINE
8
Black
10
159.849
20
-128.557
11
159.563
21
-128.414
0
LINE
8
Black
10
159.563
20
-128.414
11
159.42
21
-128.129
0
LINE
8
Black
10
159.42
20
-128.129
11
159.42
21
-125.557
0
LINE
8
Black
10
161.42
20
-128.557
11
161.134
21
-128.414
0
LINE
8
Black
10
161.134
20
-128.414
11
160.991
21
-128.129
0
LINE
8
Black
10
160.991
20
-128.129
11
160.991
21
-125.557
0
LINE
8
Black
10
164.849
20
-128.557
11
164.849
21
-125.557
0
LINE
8
Black
10
164.849
20
-125.557
11
165.849
21
-127.7
0
LINE
8
Black
10
165.849
20
-127.7
11
166.849
21
-125.557
0
LINE
8
Black
10
166.849
20
-125.557
11
166.849
21
-128.557
0
LINE
8
Black
10
169.563
20
-128.557
11
169.563
21
-126.986
0
LINE
8
Black
10
169.563
20
-126.986
11
169.42
21
-126.7
0
LINE
8
Black
10
169.42
20
-126.7
11
169.134
21
-126.557
0
LINE
8
Black
10
169.134
20
-126.557
11
168.563
21
-126.557
0
LINE
8
Black
10
168.563
20
-126.557
11
168.277
21
-126.7
0
LINE
8
Black
10
169.563
20
-128.414
11
169.277
21
-128.557
0
LINE
8
Black
10
169.277
20
-128.557
11
168.563
21
-128.557
0
LINE
8
Black
10
168.563
20
-128.557
11
168.277
21
-128.414
0
LINE
8
Black
10
168.277
20
-128.414
11
168.134
21
-128.129
0
LINE
8
Black
10
168.134
20
-128.129
11
168.134
21
-127.843
0
LINE
8
Black
10
168.134
20
-127.843
11
168.277
21
-127.557
0
LINE
8
Black
10
168.277
20
-127.557
11
168.563
21
-127.414
0
LINE
8
Black
10
168.563
20
-127.414
11
169.277
21
-127.414
0
LINE
8
Black
10
169.277
20
-127.414
11
169.563
21
-127.271
0
LINE
8
Black
10
170.991
20
-126.557
11
170.991
21
-129.557
0
LINE
8
Black
10
170.991
20
-126.7
11
171.277
21
-126.557
0
LINE
8
Black
10
171.277
20
-126.557
11
171.849
21
-126.557
0
LINE
8
Black
10
171.849
20
-126.557
11
172.134
21
-126.7
0
LINE
8
Black
10
172.134
20
-126.7
11
172.277
21
-126.843
0
LINE
8
Black
10
172.277
20
-126.843
11
172.42
21
-127.129
0
LINE
8
Black
10
172.42
20
-127.129
11
172.42
21
-127.986
0
LINE
8
Black
10
172.42
20
-127.986
11
172.277
21
-128.271
0
LINE
8
Black
10
172.277
20
-128.271
11
172.134
21
-128.414
0
LINE
8
Black
10
172.134
20
-128.414
11
171.849
21
-128.557
0
LINE
8
Black
10
171.849
20
-128.557
11
171.277
21
-128.557
0
LINE
8
Black
10
171.277
20
-128.557
11
170.991
21
-128.414
0
LINE
8
Black
10
173.706
20
-128.271
11
173.849
21
-128.414
0
LINE
8
Black
10
173.849
20
-128.414
11
173.706
21
-128.557
0
LINE
8
Black
10
173.706
20
-128.557
11
173.563
21
-128.414
0
LINE
8
Black
10
173.563
20
-128.414
11
173.706
21
-128.271
0
LINE
8
Black
10
173.706
20
-128.271
11
173.706
21
-128.557
0
LINE
8
Black
10
173.706
20
-126.7
11
173.849
21
-126.843
0
LINE
8
Black
10
173.849
20
-126.843
11
173.706
21
-126.986
0
LINE
8
Black
10
173.706
20
-126.986
11
173.563
21
-126.843
0
LINE
8
Black
10
173.563
20
-126.843
11
173.706
21
-126.7
0
LINE
8
Black
10
173.706
20
-126.7
11
173.706
21
-126.986
0
LINE
8
Black
10
149.92
20
-133.25
11
150.42
21
-133.75
0
LINE
8
Black
10
150.42
20
-133.25
11
149.92
21
-133.75
0
LINE
8
Black
10
153.706
20
-131.857
11
153.991
21
-131.857
0
LINE
8
Black
10
153.991
20
-131.857
11
154.277
21
-132
0
LINE
8
Black
10
154.277
20
-132
11
154.42
21
-132.143
0
LINE
8
Black
10
154.42
20
-132.143
11
154.563
21
-132.429
0
LINE
8
Black
10
154.563
20
-132.429
11
154.706
21
-133
0
LINE
8
Black
10
154.706
20
-133
11
154.706
21
-133.714
0
LINE
8
Black
10
154.706
20
-133.714
11
154.563
21
-134.286
0
LINE
8
Black
10
154.563
20
-134.286
11
154.42
21
-134.571
0
LINE
8
Black
10
154.42
20
-134.571
11
154.277
21
-134.714
0
LINE
8
Black
10
154.277
20
-134.714
11
153.991
21
-134.857
0
LINE
8
Black
10
153.991
20
-134.857
11
153.706
21
-134.857
0
LINE
8
Black
10
153.706
20
-134.857
11
153.42
21
-134.714
0
LINE
8
Black
10
153.42
20
-134.714
11
153.277
21
-134.571
0
LINE
8
Black
10
153.277
20
-134.571
11
153.134
21
-134.286
0
LINE
8
Black
10
153.134
20
-134.286
11
152.991
21
-133.714
0
LINE
8
Black
10
152.991
20
-133.714
11
152.991
21
-133
0
LINE
8
Black
10
152.991
20
-133
11
153.134
21
-132.429
0
LINE
8
Black
10
153.134
20
-132.429
11
153.277
21
-132.143
0
LINE
8
Black
10
153.277
20
-132.143
11
153.42
21
-132
0
LINE
8
Black
10
153.42
20
-132
11
153.706
21
-131.857
0
LINE
8
Black
10
155.991
20
-134.571
11
156.134
21
-134.714
0
LINE
8
Black
10
156.134
20
-134.714
11
155.991
21
-134.857
0
LINE
8
Black
10
155.991
20
-134.857
11
155.849
21
-134.714
0
LINE
8
Black
10
155.849
20
-134.714
11
155.991
21
-134.571
0
LINE
8
Black
10
155.991
20
-134.571
11
155.991
21
-134.857
0
LINE
8
Black
10
158.849
20
-131.857
11
157.42
21
-131.857
0
LINE
8
Black
10
157.42
20
-131.857
11
157.277
21
-133.286
0
LINE
8
Black
10
157.277
20
-133.286
11
157.42
21
-133.143
0
LINE
8
Black
10
157.42
20
-133.143
11
157.706
21
-133
0
LINE
8
Black
10
157.706
20
-133
11
158.42
21
-133
0
LINE
8
Black
10
158.42
20
-133
11
158.706
21
-133.143
0
LINE
8
Black
10
158.706
20
-133.143
11
158.849
21
-133.286
0
LINE
8
Black
10
158.849
20
-133.286
11
158.991
21
-133.571
0
LINE
8
Black
10
158.991
20
-133.571
11
158.991
21
-134.286
0
LINE
8
Black
10
158.991
20
-134.286
11
158.849
21
-134.571
0
LINE
8
Black
10
158.849
20
-134.571
11
158.706
21
-134.714
0
LINE
8
Black
10
158.706
20
-134.714
11
158.42
21
-134.857
0
LINE
8
Black
10
158.42
20
-134.857
11
157.706
21
-134.857
0
LINE
8
Black
10
157.706
20
-134.857
11
157.42
21
-134.714
0
LINE
8
Black
10
157.42
20
-134.714
11
157.277
21
-134.571
0
LINE
8
Black
10
160.849
20
-131.857
11
161.134
21
-131.857
0
LINE
8
Black
10
161.134
20
-131.857
11
161.42
21
-132
0
LINE
8
Black
10
161.42
20
-132
11
161.563
21
-132.143
0
LINE
8
Black
10
161.563
20
-132.143
11
161.706
21
-132.429
0
LINE
8
Black
10
161.706
20
-132.429
11
161.849
21
-133
0
LINE
8
Black
10
161.849
20
-133
11
161.849
21
-133.714
0
LINE
8
Black
10
161.849
20
-133.714
11
161.706
21
-134.286
0
LINE
8
Black
10
161.706
20
-134.286
11
161.563
21
-134.571
0
LINE
8
Black
10
161.563
20
-134.571
11
161.42
21
-134.714
0
LINE
8
Black
10
161.42
20
-134.714
11
161.134
21
-134.857
0
LINE
8
Black
10
161.134
20
-134.857
11
160.849
21
-134.857
0
LINE
8
Black
10
160.849
20
-134.857
11
160.563
21
-134.714
0
LINE
8
Black
10
160.563
20
-134.714
11
160.42
21
-134.571
0
LINE
8
Black
10
160.42
20
-134.571
11
160.277
21
-134.286
0
LINE
8
Black
10
160.277
20
-134.286
11
160.134
21
-133.714
0
LINE
8
Black
10
160.134
20
-133.714
11
160.134
21
-133
0
LINE
8
Black
10
160.134
20
-133
11
160.277
21
-132.429
0
LINE
8
Black
10
160.277
20
-132.429
11
160.42
21
-132.143
0
LINE
8
Black
10
160.42
20
-132.143
11
160.563
21
-132
0
LINE
8
Black
10
160.563
20
-132
11
160.849
21
-131.857
0
LINE
8
Black
10
163.134
20
-134.857
11
163.134
21
-132.857
0
LINE
8
Black
10
163.134
20
-133.143
11
163.277
21
-133
0
LINE
8
Black
10
163.277
20
-133
11
163.563
21
-132.857
0
LINE
8
Black
10
163.563
20
-132.857
11
163.991
21
-132.857
0
LINE
8
Black
10
163.991
20
-132.857
11
164.277
21
-133
0
LINE
8
Black
10
164.277
20
-133
11
164.42
21
-133.286
0
LINE
8
Black
10
164.42
20
-133.286
11
164.42
21
-134.857
0
LINE
8
Black
10
164.42
20
-133.286
11
164.563
21
-133
0
LINE
8
Black
10
164.563
20
-133
11
164.849
21
-132.857
0
LINE
8
Black
10
164.849
20
-132.857
11
165.277
21
-132.857
0
LINE
8
Black
10
165.277
20
-132.857
11
165.563
21
-133
0
LINE
8
Black
10
165.563
20
-133
11
165.706
21
-133.286
0
LINE
8
Black
10
165.706
20
-133.286
11
165.706
21
-134.857
0
LINE
8
Black
10
167.134
20
-134.857
11
167.134
21
-132.857
0
LINE
8
Black
10
167.134
20
-133.143
11
167.277
21
-133
0
LINE
8
Black
10
167.277
20
-133
11
167.563
21
-132.857
0
LINE
8
Black
10
167.563
20
-132.857
11
167.991
21
-132.857
0
LINE
8
Black
10
167.991
20
-132.857
11
168.277
21
-133
0
LINE
8
Black
10
168.277
20
-133
11
168.42
21
-133.286
0
LINE
8
Black
10
168.42
20
-133.286
11
168.42
21
-134.857
0
LINE
8
Black
10
168.42
20
-133.286
11
168.563
21
-133
0
LINE
8
Black
10
168.563
20
-133
11
168.849
21
-132.857
0
LINE
8
Black
10
168.849
20
-132.857
11
169.277
21
-132.857
0
LINE
8
Black
10
169.277
20
-132.857
11
169.563
21
-133
0
LINE
8
Black
10
169.563
20
-133
11
169.706
21
-133.286
0
LINE
8
Black
10
169.706
20
-133.286
11
169.706
21
-134.857
0
LINE
8
Black
10
175.563
20
-131.714
11
172.991
21
-135.571
0
LINE
8
Black
10
179.42
20
-131.857
11
179.706
21
-131.857
0
LINE
8
Black
10
179.706
20
-131.857
11
179.991
21
-132
0
LINE
8
Black
10
179.991
20
-132
11
180.134
21
-132.143
0
LINE
8
Black
10
180.134
20
-132.143
11
180.277
21
-132.429
0
LINE
8
Black
10
180.277
20
-132.429
11
180.42
21
-133
0
LINE
8
Black
10
180.42
20
-133
11
180.42
21
-133.714
0
LINE
8
Black
10
180.42
20
-133.714
11
180.277
21
-134.286
0
LINE
8
Black
10
180.277
20
-134.286
11
180.134
21
-134.571
0
LINE
8
Black
10
180.134
20
-134.571
11
179.991
21
-134.714
0
LINE
8
Black
10
179.991
20
-134.714
11
179.706
21
-134.857
0
LINE
8
Black
10
179.706
20
-134.857
11
179.42
21
-134.857
0
LINE
8
Black
10
179.42
20
-134.857
11
179.134
21
-134.714
0
LINE
8
Black
10
179.134
20
-134.714
11
178.991
21
-134.571
0
LINE
8
Black
10
178.991
20
-134.571
11
178.849
21
-134.286
0
LINE
8
Black
10
178.849
20
-134.286
11
178.706
21
-133.714
0
LINE
8
Black
10
178.706
20
-133.714
11
178.706
21
-133
0
LINE
8
Black
10
178.706
20
-133
11
178.849
21
-132.429
0
LINE
8
Black
10
178.849
20
-132.429
11
178.991
21
-132.143
0
LINE
8
Black
10
178.991
20
-132.143
11
179.134
21
-132
0
LINE
8
Black
10
179.134
20
-132
11
179.42
21
-131.857
0
LINE
8
Black
10
181.706
20
-134.571
11
181.849
21
-134.714
0
LINE
8
Black
10
181.849
20
-134.714
11
181.706
21
-134.857
0
LINE
8
Black
10
181.706
20
-134.857
11
181.563
21
-134.714
0
LINE
8
Black
10
181.563
20
-134.714
11
181.706
21
-134.571
0
LINE
8
Black
10
181.706
20
-134.571
11
181.706
21
-134.857
0
LINE
8
Black
10
183.706
20
-131.857
11
183.991
21
-131.857
0
LINE
8
Black
10
183.991
20
-131.857
11
184.277
21
-132
0
LINE
8
Black
10
184.277
20
-132
11
184.42
21
-132.143
0
LINE
8
Black
10
184.42
20
-132.143
11
184.563
21
-132.429
0
LINE
8
Black
10
184.563
20
-132.429
11
184.706
21
-133
0
LINE
8
Black
10
184.706
20
-133
11
184.706
21
-133.714
0
LINE
8
Black
10
184.706
20
-133.714
11
184.563
21
-134.286
0
LINE
8
Black
10
184.563
20
-134.286
11
184.42
21
-134.571
0
LINE
8
Black
10
184.42
20
-134.571
11
184.277
21
-134.714
0
LINE
8
Black
10
184.277
20
-134.714
11
183.991
21
-134.857
0
LINE
8
Black
10
183.991
20
-134.857
11
183.706
21
-134.857
0
LINE
8
Black
10
183.706
20
-134.857
11
183.42
21
-134.714
0
LINE
8
Black
10
183.42
20
-134.714
11
183.277
21
-134.571
0
LINE
8
Black
10
183.277
20
-134.571
11
183.134
21
-134.286
0
LINE
8
Black
10
183.134
20
-134.286
11
182.991
21
-133.714
0
LINE
8
Black
10
182.991
20
-133.714
11
182.991
21
-133
0
LINE
8
Black
10
182.991
20
-133
11
183.134
21
-132.429
0
LINE
8
Black
10
183.134
20
-132.429
11
183.277
21
-132.143
0
LINE
8
Black
10
183.277
20
-132.143
11
183.42
21
-132
0
LINE
8
Black
10
183.42
20
-132
11
183.706
21
-131.857
0
LINE
8
Black
10
185.849
20
-132.143
11
185.991
21
-132
0
LINE
8
Black
10
185.991
20
-132
11
186.277
21
-131.857
0
LINE
8
Black
10
186.277
20
-131.857
11
186.991
21
-131.857
0
LINE
8
Black
10
186.991
20
-131.857
11
187.277
21
-132
0
LINE
8
Black
10
187.277
20
-132
11
187.42
21
-132.143
0
LINE
8
Black
10
187.42
20
-132.143
11
187.563
21
-132.429
0
LINE
8
Black
10
187.563
20
-132.429
11
187.563
21
-132.714
0
LINE
8
Black
10
187.563
20
-132.714
11
187.42
21
-133.143
0
LINE
8
Black
10
187.42
20
-133.143
11
185.706
21
-134.857
0
LINE
8
Black
10
185.706
20
-134.857
11
187.563
21
-134.857
0
LINE
8
Black
10
189.42
20
-131.857
11
189.706
21
-131.857
0
LINE
8
Black
10
189.706
20
-131.857
11
189.991
21
-132
0
LINE
8
Black
10
189.991
20
-132
11
190.134
21
-132.143
0
LINE
8
Black
10
190.134
20
-132.143
11
190.277
21
-132.429
0
LINE
8
Black
10
190.277
20
-132.429
11
190.42
21
-133
0
LINE
8
Black
10
190.42
20
-133
11
190.42
21
-133.714
0
LINE
8
Black
10
190.42
20
-133.714
11
190.277
21
-134.286
0
LINE
8
Black
10
190.277
20
-134.286
11
190.134
21
-134.571
0
LINE
8
Black
10
190.134
20
-134.571
11
189.991
21
-134.714
0
LINE
8
Black
10
189.991
20
-134.714
11
189.706
21
-134.857
0
LINE
8
Black
10
189.706
20
-134.857
11
189.42
21
-134.857
0
LINE
8
Black
10
189.42
20
-134.857
11
189.134
21
-134.714
0
LINE
8
Black
10
189.134
20
-134.714
11
188.991
21
-134.571
0
LINE
8
Black
10
188.991
20
-134.571
11
188.849
21
-134.286
0
LINE
8
Black
10
188.849
20
-134.286
11
188.706
21
-133.714
0
LINE
8
Black
10
188.706
20
-133.714
11
188.706
21
-133
0
LINE
8
Black
10
188.706
20
-133
11
188.849
21
-132.429
0
LINE
8
Black
10
188.849
20
-132.429
11
188.991
21
-132.143
0
LINE
8
Black
10
188.991
20
-132.143
11
189.134
21
-132
0
LINE
8
Black
10
189.134
20
-132
11
189.42
21
-131.857
0
LINE
8
Black
10
191.563
20
-131.857
11
191.563
21
-132.429
0
LINE
8
Black
10
192.706
20
-131.857
11
192.706
21
-132.429
0
LINE
8
Black
10
197.134
20
-136
11
196.991
21
-135.857
0
LINE
8
Black
10
196.991
20
-135.857
11
196.706
21
-135.429
0
LINE
8
Black
10
196.706
20
-135.429
11
196.563
21
-135.143
0
LINE
8
Black
10
196.563
20
-135.143
11
196.42
21
-134.714
0
LINE
8
Black
10
196.42
20
-134.714
11
196.277
21
-134
0
LINE
8
Black
10
196.277
20
-134
11
196.277
21
-133.429
0
LINE
8
Black
10
196.277
20
-133.429
11
196.42
21
-132.714
0
LINE
8
Black
10
196.42
20
-132.714
11
196.563
21
-132.286
0
LINE
8
Black
10
196.563
20
-132.286
11
196.706
21
-132
0
LINE
8
Black
10
196.706
20
-132
11
196.991
21
-131.571
0
LINE
8
Black
10
196.991
20
-131.571
11
197.134
21
-131.429
0
LINE
8
Black
10
198.849
20
-131.857
11
199.134
21
-131.857
0
LINE
8
Black
10
199.134
20
-131.857
11
199.42
21
-132
0
LINE
8
Black
10
199.42
20
-132
11
199.563
21
-132.143
0
LINE
8
Black
10
199.563
20
-132.143
11
199.706
21
-132.429
0
LINE
8
Black
10
199.706
20
-132.429
11
199.849
21
-133
0
LINE
8
Black
10
199.849
20
-133
11
199.849
21
-133.714
0
LINE
8
Black
10
199.849
20
-133.714
11
199.706
21
-134.286
0
LINE
8
Black
10
199.706
20
-134.286
11
199.563
21
-134.571
0
LINE
8
Black
10
199.563
20
-134.571
11
199.42
21
-134.714
0
LINE
8
Black
10
199.42
20
-134.714
11
199.134
21
-134.857
0
LINE
8
Black
10
199.134
20
-134.857
11
198.849
21
-134.857
0
LINE
8
Black
10
198.849
20
-134.857
11
198.563
21
-134.714
0
LINE
8
Black
10
198.563
20
-134.714
11
198.42
21
-134.571
0
LINE
8
Black
10
198.42
20
-134.571
11
198.277
21
-134.286
0
LINE
8
Black
10
198.277
20
-134.286
11
198.134
21
-133.714
0
LINE
8
Black
10
198.134
20
-133.714
11
198.134
21
-133
0
LINE
8
Black
10
198.134
20
-133
11
198.277
21
-132.429
0
LINE
8
Black
10
198.277
20
-132.429
11
198.42
21
-132.143
0
LINE
8
Black
10
198.42
20
-132.143
11
198.563
21
-132
0
LINE
8
Black
10
198.563
20
-132
11
198.849
21
-131.857
0
LINE
8
Black
10
203.42
20
-134.857
11
203.42
21
-131.857
0
LINE
8
Black
10
204.706
20
-134.857
11
204.706
21
-133.286
0
LINE
8
Black
10
204.706
20
-133.286
11
204.563
21
-133
0
LINE
8
Black
10
204.563
20
-133
11
204.277
21
-132.857
0
LINE
8
Black
10
204.277
20
-132.857
11
203.849
21
-132.857
0
LINE
8
Black
10
203.849
20
-132.857
11
203.563
21
-133
0
LINE
8
Black
10
203.563
20
-133
11
203.42
21
-133.143
0
LINE
8
Black
10
206.563
20
-134.857
11
206.277
21
-134.714
0
LINE
8
Black
10
206.277
20
-134.714
11
206.134
21
-134.571
0
LINE
8
Black
10
206.134
20
-134.571
11
205.991
21
-134.286
0
LINE
8
Black
10
205.991
20
-134.286
11
205.991
21
-133.429
0
LINE
8
Black
10
205.991
20
-133.429
11
206.134
21
-133.143
0
LINE
8
Black
10
206.134
20
-133.143
11
206.277
21
-133
0
LINE
8
Black
10
206.277
20
-133
11
206.563
21
-132.857
0
LINE
8
Black
10
206.563
20
-132.857
11
206.991
21
-132.857
0
LINE
8
Black
10
206.991
20
-132.857
11
207.277
21
-133
0
LINE
8
Black
10
207.277
20
-133
11
207.42
21
-133.143
0
LINE
8
Black
10
207.42
20
-133.143
11
207.563
21
-133.429
0
LINE
8
Black
10
207.563
20
-133.429
11
207.563
21
-134.286
0
LINE
8
Black
10
207.563
20
-134.286
11
207.42
21
-134.571
0
LINE
8
Black
10
207.42
20
-134.571
11
207.277
21
-134.714
0
LINE
8
Black
10
207.277
20
-134.714
11
206.991
21
-134.857
0
LINE
8
Black
10
206.991
20
-134.857
11
206.563
21
-134.857
0
LINE
8
Black
10
209.277
20
-134.857
11
208.991
21
-134.714
0
LINE
8
Black
10
208.991
20
-134.714
11
208.849
21
-134.429
0
LINE
8
Black
10
208.849
20
-134.429
11
208.849
21
-131.857
0
LINE
8
Black
10
211.563
20
-134.714
11
211.277
21
-134.857
0
LINE
8
Black
10
211.277
20
-134.857
11
210.706
21
-134.857
0
LINE
8
Black
10
210.706
20
-134.857
11
210.42
21
-134.714
0
LINE
8
Black
10
210.42
20
-134.714
11
210.277
21
-134.429
0
LINE
8
Black
10
210.277
20
-134.429
11
210.277
21
-133.286
0
LINE
8
Black
10
210.277
20
-133.286
11
210.42
21
-133
0
LINE
8
Black
10
210.42
20
-133
11
210.706
21
-132.857
0
LINE
8
Black
10
210.706
20
-132.857
11
211.277
21
-132.857
0
LINE
8
Black
10
211.277
20
-132.857
11
211.563
21
-133
0
LINE
8
Black
10
211.563
20
-133
11
211.706
21
-133.286
0
LINE
8
Black
10
211.706
20
-133.286
11
211.706
21
-133.571
0
LINE
8
Black
10
211.706
20
-133.571
11
210.277
21
-133.857
0
LINE
8
Black
10
212.849
20
-134.714
11
213.134
21
-134.857
0
LINE
8
Black
10
213.134
20
-134.857
11
213.706
21
-134.857
0
LINE
8
Black
10
213.706
20
-134.857
11
213.991
21
-134.714
0
LINE
8
Black
10
213.991
20
-134.714
11
214.134
21
-134.429
0
LINE
8
Black
10
214.134
20
-134.429
11
214.134
21
-134.286
0
LINE
8
Black
10
214.134
20
-134.286
11
213.991
21
-134
0
LINE
8
Black
10
213.991
20
-134
11
213.706
21
-133.857
0
LINE
8
Black
10
213.706
20
-133.857
11
213.277
21
-133.857
0
LINE
8
Black
10
213.277
20
-133.857
11
212.991
21
-133.714
0
LINE
8
Black
10
212.991
20
-133.714
11
212.849
21
-133.429
0
LINE
8
Black
10
212.849
20
-133.429
11
212.849
21
-133.286
0
LINE
8
Black
10
212.849
20
-133.286
11
212.991
21
-133
0
LINE
8
Black
10
212.991
20
-133
11
213.277
21
-132.857
0
LINE
8
Black
10
213.277
20
-132.857
11
213.706
21
-132.857
0
LINE
8
Black
10
213.706
20
-132.857
11
213.991
21
-133
0
LINE
8
Black
10
217.706
20
-133.714
11
219.991
21
-133.714
0
LINE
8
Black
10
218.849
20
-134.857
11
218.849
21
-132.571
0
LINE
8
Black
10
223.563
20
-132.143
11
223.706
21
-132
0
LINE
8
Black
10
223.706
20
-132
11
223.991
21
-131.857
0
LINE
8
Black
10
223.991
20
-131.857
11
224.706
21
-131.857
0
LINE
8
Black
10
224.706
20
-131.857
11
224.991
21
-132
0
LINE
8
Black
10
224.991
20
-132
11
225.134
21
-132.143
0
LINE
8
Black
10
225.134
20
-132.143
11
225.277
21
-132.429
0
LINE
8
Black
10
225.277
20
-132.429
11
225.277
21
-132.714
0
LINE
8
Black
10
225.277
20
-132.714
11
225.134
21
-133.143
0
LINE
8
Black
10
225.134
20
-133.143
11
223.42
21
-134.857
0
LINE
8
Black
10
223.42
20
-134.857
11
225.277
21
-134.857
0
LINE
8
Black
10
228.706
20
-134.714
11
228.991
21
-134.857
0
LINE
8
Black
10
228.991
20
-134.857
11
229.563
21
-134.857
0
LINE
8
Black
10
229.563
20
-134.857
11
229.849
21
-134.714
0
LINE
8
Black
10
229.849
20
-134.714
11
229.991
21
-134.429
0
LINE
8
Black
10
229.991
20
-134.429
11
229.991
21
-134.286
0
LINE
8
Black
10
229.991
20
-134.286
11
229.849
21
-134
0
LINE
8
Black
10
229.849
20
-134
11
229.563
21
-133.857
0
LINE
8
Black
10
229.563
20
-133.857
11
229.134
21
-133.857
0
LINE
8
Black
10
229.134
20
-133.857
11
228.849
21
-133.714
0
LINE
8
Black
10
228.849
20
-133.714
11
228.706
21
-133.429
0
LINE
8
Black
10
228.706
20
-133.429
11
228.706
21
-133.286
0
LINE
8
Black
10
228.706
20
-133.286
11
228.849
21
-133
0
LINE
8
Black
10
228.849
20
-133
11
229.134
21
-132.857
0
LINE
8
Black
10
229.134
20
-132.857
11
229.563
21
-132.857
0
LINE
8
Black
10
229.563
20
-132.857
11
229.849
21
-133
0
LINE
8
Black
10
231.706
20
-134.857
11
231.42
21
-134.714
0
LINE
8
Black
10
231.42
20
-134.714
11
231.277
21
-134.429
0
LINE
8
Black
10
231.277
20
-134.429
11
231.277
21
-131.857
0
LINE
8
Black
10
233.277
20
-134.857
11
232.991
21
-134.714
0
LINE
8
Black
10
232.991
20
-134.714
11
232.849
21
-134.571
0
LINE
8
Black
10
232.849
20
-134.571
11
232.706
21
-134.286
0
LINE
8
Black
10
232.706
20
-134.286
11
232.706
21
-133.429
0
LINE
8
Black
10
232.706
20
-133.429
11
232.849
21
-133.143
0
LINE
8
Black
10
232.849
20
-133.143
11
232.991
21
-133
0
LINE
8
Black
10
232.991
20
-133
11
233.277
21
-132.857
0
LINE
8
Black
10
233.277
20
-132.857
11
233.706
21
-132.857
0
LINE
8
Black
10
233.706
20
-132.857
11
233.991
21
-133
0
LINE
8
Black
10
233.991
20
-133
11
234.134
21
-133.143
0
LINE
8
Black
10
234.134
20
-133.143
11
234.277
21
-133.429
0
LINE
8
Black
10
234.277
20
-133.429
11
234.277
21
-134.286
0
LINE
8
Black
10
234.277
20
-134.286
11
234.134
21
-134.571
0
LINE
8
Black
10
234.134
20
-134.571
11
233.991
21
-134.714
0
LINE
8
Black
10
233.991
20
-134.714
11
233.706
21
-134.857
0
LINE
8
Black
10
233.706
20
-134.857
11
233.277
21
-134.857
0
LINE
8
Black
10
235.134
20
-132.857
11
236.277
21
-132.857
0
LINE
8
Black
10
235.563
20
-131.857
11
235.563
21
-134.429
0
LINE
8
Black
10
235.563
20
-134.429
11
235.706
21
-134.714
0
LINE
8
Black
10
235.706
20
-134.714
11
235.991
21
-134.857
0
LINE
8
Black
10
235.991
20
-134.857
11
236.277
21
-134.857
0
LINE
8
Black
10
237.134
20
-134.714
11
237.42
21
-134.857
0
LINE
8
Black
10
237.42
20
-134.857
11
237.991
21
-134.857
0
LINE
8
Black
10
237.991
20
-134.857
11
238.277
21
-134.714
0
LINE
8
Black
10
238.277
20
-134.714
11
238.42
21
-134.429
0
LINE
8
Black
10
238.42
20
-134.429
11
238.42
21
-134.286
0
LINE
8
Black
10
238.42
20
-134.286
11
238.277
21
-134
0
LINE
8
Black
10
238.277
20
-134
11
237.991
21
-133.857
0
LINE
8
Black
10
237.991
20
-133.857
11
237.563
21
-133.857
0
LINE
8
Black
10
237.563
20
-133.857
11
237.277
21
-133.714
0
LINE
8
Black
10
237.277
20
-133.714
11
237.134
21
-133.429
0
LINE
8
Black
10
237.134
20
-133.429
11
237.134
21
-133.286
0
LINE
8
Black
10
237.134
20
-133.286
11
237.277
21
-133
0
LINE
8
Black
10
237.277
20
-133
11
237.563
21
-132.857
0
LINE
8
Black
10
237.563
20
-132.857
11
237.991
21
-132.857
0
LINE
8
Black
10
237.991
20
-132.857
11
238.277
21
-133
0
LINE
8
Black
10
239.42
20
-136
11
239.563
21
-135.857
0
LINE
8
Black
10
239.563
20
-135.857
11
239.849
21
-135.429
0
LINE
8
Black
10
239.849
20
-135.429
11
239.991
21
-135.143
0
LINE
8
Black
10
239.991
20
-135.143
11
240.134
21
-134.714
0
LINE
8
Black
10
240.134
20
-134.714
11
240.277
21
-134
0
LINE
8
Black
10
240.277
20
-134
11
240.277
21
-133.429
0
LINE
8
Black
10
240.277
20
-133.429
11
240.134
21
-132.714
0
LINE
8
Black
10
240.134
20
-132.714
11
239.991
21
-132.286
0
LINE
8
Black
10
239.991
20
-132.286
11
239.849
21
-132
0
LINE
8
Black
10
239.849
20
-132
11
239.563
21
-131.571
0
LINE
8
Black
10
239.563
20
-131.571
11
239.42
21
-131.429
0
CIRCLE
8
Black
10
150.145
20
-137.46
40
0.275
0
LINE
8
Black
10
153.706
20
-135.817
11
153.991
21
-135.817
0
LINE
8
Black
10
153.991
20
-135.817
11
154.277
21
-135.96
0
LINE
8
Black
10
154.277
20
-135.96
11
154.42
21
-136.103
0
LINE
8
Black
10
154.42
20
-136.103
11
154.563
21
-136.389
0
LINE
8
Black
10
154.563
20
-136.389
11
154.706
21
-136.96
0
LINE
8
Black
10
154.706
20
-136.96
11
154.706
21
-137.674
0
LINE
8
Black
10
154.706
20
-137.674
11
154.563
21
-138.246
0
LINE
8
Black
10
154.563
20
-138.246
11
154.42
21
-138.531
0
LINE
8
Black
10
154.42
20
-138.531
11
154.277
21
-138.674
0
LINE
8
Black
10
154.277
20
-138.674
11
153.991
21
-138.817
0
LINE
8
Black
10
153.991
20
-138.817
11
153.706
21
-138.817
0
LINE
8
Black
10
153.706
20
-138.817
11
153.42
21
-138.674
0
LINE
8
Black
10
153.42
20
-138.674
11
153.277
21
-138.531
0
LINE
8
Black
10
153.277
20
-138.531
11
153.134
21
-138.246
0
LINE
8
Black
10
153.134
20
-138.246
11
152.991
21
-137.674
0
LINE
8
Black
10
152.991
20
-137.674
11
152.991
21
-136.96
0
LINE
8
Black
10
152.991
20
-136.96
11
153.134
21
-136.389
0
LINE
8
Black
10
153.134
20
-136.389
11
153.277
21
-136.103
0
LINE
8
Black
10
153.277
20
-136.103
11
153.42
21
-135.96
0
LINE
8
Black
10
153.42
20
-135.96
11
153.706
21
-135.817
0
LINE
8
Black
10
155.991
20
-138.531
11
156.134
21
-138.674
0
LINE
8
Black
10
156.134
20
-138.674
11
155.991
21
-138.817
0
LINE
8
Black
10
155.991
20
-138.817
11
155.849
21
-138.674
0
LINE
8
Black
10
155.849
20
-138.674
11
155.991
21
-138.531
0
LINE
8
Black
10
155.991
20
-138.531
11
155.991
21
-138.817
0
LINE
8
Black
10
158.849
20
-135.817
11
157.42
21
-135.817
0
LINE
8
Black
10
157.42
20
-135.817
11
157.277
21
-137.246
0
LINE
8
Black
10
157.277
20
-137.246
11
157.42
21
-137.103
0
LINE
8
Black
10
157.42
20
-137.103
11
157.706
21
-136.96
0
LINE
8
Black
10
157.706
20
-136.96
11
158.42
21
-136.96
0
LINE
8
Black
10
158.42
20
-136.96
11
158.706
21
-137.103
0
LINE
8
Black
10
158.706
20
-137.103
11
158.849
21
-137.246
0
LINE
8
Black
10
158.849
20
-137.246
11
158.991
21
-137.531
0
LINE
8
Black
10
158.991
20
-137.531
11
158.991
21
-138.246
0
LINE
8
Black
10
158.991
20
-138.246
11
158.849
21
-138.531
0
LINE
8
Black
10
158.849
20
-138.531
11
158.706
21
-138.674
0
LINE
8
Black
10
158.706
20
-138.674
11
158.42
21
-138.817
0
LINE
8
Black
10
158.42
20
-138.817
11
157.706
21
-138.817
0
LINE
8
Black
10
157.706
20
-138.817
11
157.42
21
-138.674
0
LINE
8
Black
10
157.42
20
-138.674
11
157.277
21
-138.531
0
LINE
8
Black
10
161.706
20
-135.817
11
160.277
21
-135.817
0
LINE
8
Black
10
160.277
20
-135.817
11
160.134
21
-137.246
0
LINE
8
Black
10
160.134
20
-137.246
11
160.277
21
-137.103
0
LINE
8
Black
10
160.277
20
-137.103
11
160.563
21
-136.96
0
LINE
8
Black
10
160.563
20
-136.96
11
161.277
21
-136.96
0
LINE
8
Black
10
161.277
20
-136.96
11
161.563
21
-137.103
0
LINE
8
Black
10
161.563
20
-137.103
11
161.706
21
-137.246
0
LINE
8
Black
10
161.706
20
-137.246
11
161.849
21
-137.531
0
LINE
8
Black
10
161.849
20
-137.531
11
161.849
21
-138.246
0
LINE
8
Black
10
161.849
20
-138.246
11
161.706
21
-138.531
0
LINE
8
Black
10
161.706
20
-138.531
11
161.563
21
-138.674
0
LINE
8
Black
10
161.563
20
-138.674
11
161.277
21
-138.817
0
LINE
8
Black
10
161.277
20
-138.817
11
160.563
21
-138.817
0
LINE
8
Black
10
160.563
20
-138.817
11
160.277
21
-138.674
0
LINE
8
Black
10
160.277
20
-138.674
11
160.134
21
-138.531
0
LINE
8
Black
10
163.134
20
-138.817
11
163.134
21
-136.817
0
LINE
8
Black
10
163.134
20
-137.103
11
163.277
21
-136.96
0
LINE
8
Black
10
163.277
20
-136.96
11
163.563
21
-136.817
0
LINE
8
Black
10
163.563
20
-136.817
11
163.991
21
-136.817
0
LINE
8
Black
10
163.991
20
-136.817
11
164.277
21
-136.96
0
LINE
8
Black
10
164.277
20
-136.96
11
164.42
21
-137.246
0
LINE
8
Black
10
164.42
20
-137.246
11
164.42
21
-138.817
0
LINE
8
Black
10
164.42
20
-137.246
11
164.563
21
-136.96
0
LINE
8
Black
10
164.563
20
-136.96
11
164.849
21
-136.817
0
LINE
8
Black
10
164.849
20
-136.817
11
165.277
21
-136.817
0
LINE
8
Black
10
165.277
20
-136.817
11
165.563
21
-136.96
0
LINE
8
Black
10
165.563
20
-136.96
11
165.706
21
-137.246
0
LINE
8
Black
10
165.706
20
-137.246
11
165.706
21
-138.817
0
LINE
8
Black
10
167.134
20
-138.817
11
167.134
21
-136.817
0
LINE
8
Black
10
167.134
20
-137.103
11
167.277
21
-136.96
0
LINE
8
Black
10
167.277
20
-136.96
11
167.563
21
-136.817
0
LINE
8
Black
10
167.563
20
-136.817
11
167.991
21
-136.817
0
LINE
8
Black
10
167.991
20
-136.817
11
168.277
21
-136.96
0
LINE
8
Black
10
168.277
20
-136.96
11
168.42
21
-137.246
0
LINE
8
Black
10
168.42
20
-137.246
11
168.42
21
-138.817
0
LINE
8
Black
10
168.42
20
-137.246
11
168.563
21
-136.96
0
LINE
8
Black
10
168.563
20
-136.96
11
168.849
21
-136.817
0
LINE
8
Black
10
168.849
20
-136.817
11
169.277
21
-136.817
0
LINE
8
Black
10
169.277
20
-136.817
11
169.563
21
-136.96
0
LINE
8
Black
10
169.563
20
-136.96
11
169.706
21
-137.246
0
LINE
8
Black
10
169.706
20
-137.246
11
169.706
21
-138.817
0
LINE
8
Black
10
175.563
20
-135.674
11
172.991
21
-139.531
0
LINE
8
Black
10
179.42
20
-135.817
11
179.706
21
-135.817
0
LINE
8
Black
10
179.706
20
-135.817
11
179.991
21
-135.96
0
LINE
8
Black
10
179.991
20
-135.96
11
180.134
21
-136.103
0
LINE
8
Black
10
180.134
20
-136.103
11
180.277
21
-136.389
0
LINE
8
Black
10
180.277
20
-136.389
11
180.42
21
-136.96
0
LINE
8
Black
10
180.42
20
-136.96
11
180.42
21
-137.674
0
LINE
8
Black
10
180.42
20
-137.674
11
180.277
21
-138.246
0
LINE
8
Black
10
180.277
20
-138.246
11
180.134
21
-138.531
0
LINE
8
Black
10
180.134
20
-138.531
11
179.991
21
-138.674
0
LINE
8
Black
10
179.991
20
-138.674
11
179.706
21
-138.817
0
LINE
8
Black
10
179.706
20
-138.817
11
179.42
21
-138.817
0
LINE
8
Black
10
179.42
20
-138.817
11
179.134
21
-138.674
0
LINE
8
Black
10
179.134
20
-138.674
11
178.991
21
-138.531
0
LINE
8
Black
10
178.991
20
-138.531
11
178.849
21
-138.246
0
LINE
8
Black
10
178.849
20
-138.246
11
178.706
21
-137.674
0
LINE
8
Black
10
178.706
20
-137.674
11
178.706
21
-136.96
0
LINE
8
Black
10
178.706
20
-136.96
11
178.849
21
-136.389
0
LINE
8
Black
10
178.849
20
-136.389
11
178.991
21
-136.103
0
LINE
8
Black
10
178.991
20
-136.103
11
179.134
21
-135.96
0
LINE
8
Black
10
179.134
20
-135.96
11
179.42
21
-135.817
0
LINE
8
Black
10
181.706
20
-138.531
11
181.849
21
-138.674
0
LINE
8
Black
10
181.849
20
-138.674
11
181.706
21
-138.817
0
LINE
8
Black
10
181.706
20
-138.817
11
181.563
21
-138.674
0
LINE
8
Black
10
181.563
20
-138.674
11
181.706
21
-138.531
0
LINE
8
Black
10
181.706
20
-138.531
11
181.706
21
-138.817
0
LINE
8
Black
10
183.706
20
-135.817
11
183.991
21
-135.817
0
LINE
8
Black
10
183.991
20
-135.817
11
184.277
21
-135.96
0
LINE
8
Black
10
184.277
20
-135.96
11
184.42
21
-136.103
0
LINE
8
Black
10
184.42
20
-136.103
11
184.563
21
-136.389
0
LINE
8
Black
10
184.563
20
-136.389
11
184.706
21
-136.96
0
LINE
8
Black
10
184.706
20
-136.96
11
184.706
21
-137.674
0
LINE
8
Black
10
184.706
20
-137.674
11
184.563
21
-138.246
0
LINE
8
Black
10
184.563
20
-138.246
11
184.42
21
-138.531
0
LINE
8
Black
10
184.42
20
-138.531
11
184.277
21
-138.674
0
LINE
8
Black
10
184.277
20
-138.674
11
183.991
21
-138.817
0
LINE
8
Black
10
183.991
20
-138.817
11
183.706
21
-138.817
0
LINE
8
Black
10
183.706
20
-138.817
11
183.42
21
-138.674
0
LINE
8
Black
10
183.42
20
-138.674
11
183.277
21
-138.531
0
LINE
8
Black
10
183.277
20
-138.531
11
183.134
21
-138.246
0
LINE
8
Black
10
183.134
20
-138.246
11
182.991
21
-137.674
0
LINE
8
Black
10
182.991
20
-137.674
11
182.991
21
-136.96
0
LINE
8
Black
10
182.991
20
-136.96
11
183.134
21
-136.389
0
LINE
8
Black
10
183.134
20
-136.389
11
183.277
21
-136.103
0
LINE
8
Black
10
183.277
20
-136.103
11
183.42
21
-135.96
0
LINE
8
Black
10
183.42
20
-135.96
11
183.706
21
-135.817
0
LINE
8
Black
10
185.849
20
-136.103
11
185.991
21
-135.96
0
LINE
8
Black
10
185.991
20
-135.96
11
186.277
21
-135.817
0
LINE
8
Black
10
186.277
20
-135.817
11
186.991
21
-135.817
0
LINE
8
Black
10
186.991
20
-135.817
11
187.277
21
-135.96
0
LINE
8
Black
10
187.277
20
-135.96
11
187.42
21
-136.103
0
LINE
8
Black
10
187.42
20
-136.103
11
187.563
21
-136.389
0
LINE
8
Black
10
187.563
20
-136.389
11
187.563
21
-136.674
0
LINE
8
Black
10
187.563
20
-136.674
11
187.42
21
-137.103
0
LINE
8
Black
10
187.42
20
-137.103
11
185.706
21
-138.817
0
LINE
8
Black
10
185.706
20
-138.817
11
187.563
21
-138.817
0
LINE
8
Black
10
188.706
20
-136.103
11
188.849
21
-135.96
0
LINE
8
Black
10
188.849
20
-135.96
11
189.134
21
-135.817
0
LINE
8
Black
10
189.134
20
-135.817
11
189.849
21
-135.817
0
LINE
8
Black
10
189.849
20
-135.817
11
190.134
21
-135.96
0
LINE
8
Black
10
190.134
20
-135.96
11
190.277
21
-136.103
0
LINE
8
Black
10
190.277
20
-136.103
11
190.42
21
-136.389
0
LINE
8
Black
10
190.42
20
-136.389
11
190.42
21
-136.674
0
LINE
8
Black
10
190.42
20
-136.674
11
190.277
21
-137.103
0
LINE
8
Black
10
190.277
20
-137.103
11
188.563
21
-138.817
0
LINE
8
Black
10
188.563
20
-138.817
11
190.42
21
-138.817
0
LINE
8
Black
10
191.563
20
-135.817
11
191.563
21
-136.389
0
LINE
8
Black
10
192.706
20
-135.817
11
192.706
21
-136.389
0
LINE
8
Black
10
197.134
20
-139.96
11
196.991
21
-139.817
0
LINE
8
Black
10
196.991
20
-139.817
11
196.706
21
-139.389
0
LINE
8
Black
10
196.706
20
-139.389
11
196.563
21
-139.103
0
LINE
8
Black
10
196.563
20
-139.103
11
196.42
21
-138.674
0
LINE
8
Black
10
196.42
20
-138.674
11
196.277
21
-137.96
0
LINE
8
Black
10
196.277
20
-137.96
11
196.277
21
-137.389
0
LINE
8
Black
10
196.277
20
-137.389
11
196.42
21
-136.674
0
LINE
8
Black
10
196.42
20
-136.674
11
196.563
21
-136.246
0
LINE
8
Black
10
196.563
20
-136.246
11
196.706
21
-135.96
0
LINE
8
Black
10
196.706
20
-135.96
11
196.991
21
-135.531
0
LINE
8
Black
10
196.991
20
-135.531
11
197.134
21
-135.389
0
LINE
8
Black
10
198.849
20
-135.817
11
199.134
21
-135.817
0
LINE
8
Black
10
199.134
20
-135.817
11
199.42
21
-135.96
0
LINE
8
Black
10
199.42
20
-135.96
11
199.563
21
-136.103
0
LINE
8
Black
10
199.563
20
-136.103
11
199.706
21
-136.389
0
LINE
8
Black
10
199.706
20
-136.389
11
199.849
21
-136.96
0
LINE
8
Black
10
199.849
20
-136.96
11
199.849
21
-137.674
0
LINE
8
Black
10
199.849
20
-137.674
11
199.706
21
-138.246
0
LINE
8
Black
10
199.706
20
-138.246
11
199.563
21
-138.531
0
LINE
8
Black
10
199.563
20
-138.531
11
199.42
21
-138.674
0
LINE
8
Black
10
199.42
20
-138.674
11
199.134
21
-138.817
0
LINE
8
Black
10
199.134
20
-138.817
11
198.849
21
-138.817
0
LINE
8
Black
10
198.849
20
-138.817
11
198.563
21
-138.674
0
LINE
8
Black
10
198.563
20
-138.674
11
198.42
21
-138.531
0
LINE
8
Black
10
198.42
20
-138.531
11
198.277
21
-138.246
0
LINE
8
Black
10
198.277
20
-138.246
11
198.134
21
-137.674
0
LINE
8
Black
10
198.134
20
-137.674
11
198.134
21
-136.96
0
LINE
8
Black
10
198.134
20
-136.96
11
198.277
21
-136.389
0
LINE
8
Black
10
198.277
20
-136.389
11
198.42
21
-136.103
0
LINE
8
Black
10
198.42
20
-136.103
11
198.563
21
-135.96
0
LINE
8
Black
10
198.563
20
-135.96
11
198.849
21
-135.817
0
LINE
8
Black
10
203.42
20
-138.817
11
203.42
21
-135.817
0
LINE
8
Black
10
204.706
20
-138.817
11
204.706
21
-137.246
0
LINE
8
Black
10
204.706
20
-137.246
11
204.563
21
-136.96
0
LINE
8
Black
10
204.563
20
-136.96
11
204.277
21
-136.817
0
LINE
8
Black
10
204.277
20
-136.817
11
203.849
21
-136.817
0
LINE
8
Black
10
203.849
20
-136.817
11
203.563
21
-136.96
0
LINE
8
Black
10
203.563
20
-136.96
11
203.42
21
-137.103
0
LINE
8
Black
10
206.563
20
-138.817
11
206.277
21
-138.674
0
LINE
8
Black
10
206.277
20
-138.674
11
206.134
21
-138.531
0
LINE
8
Black
10
206.134
20
-138.531
11
205.991
21
-138.246
0
LINE
8
Black
10
205.991
20
-138.246
11
205.991
21
-137.389
0
LINE
8
Black
10
205.991
20
-137.389
11
206.134
21
-137.103
0
LINE
8
Black
10
206.134
20
-137.103
11
206.277
21
-136.96
0
LINE
8
Black
10
206.277
20
-136.96
11
206.563
21
-136.817
0
LINE
8
Black
10
206.563
20
-136.817
11
206.991
21
-136.817
0
LINE
8
Black
10
206.991
20
-136.817
11
207.277
21
-136.96
0
LINE
8
Black
10
207.277
20
-136.96
11
207.42
21
-137.103
0
LINE
8
Black
10
207.42
20
-137.103
11
207.563
21
-137.389
0
LINE
8
Black
10
207.563
20
-137.389
11
207.563
21
-138.246
0
LINE
8
Black
10
207.563
20
-138.246
11
207.42
21
-138.531
0
LINE
8
Black
10
207.42
20
-138.531
11
207.277
21
-138.674
0
LINE
8
Black
10
207.277
20
-138.674
11
206.991
21
-138.817
0
LINE
8
Black
10
206.991
20
-138.817
11
206.563
21
-138.817
0
LINE
8
Black
10
209.277
20
-138.817
11
208.991
21
-138.674
0
LINE
8
Black
10
208.991
20
-138.674
11
208.849
21
-138.389
0
LINE
8
Black
10
208.849
20
-138.389
11
208.849
21
-135.817
0
LINE
8
Black
10
211.563
20
-138.674
11
211.277
21
-138.817
0
LINE
8
Black
10
211.277
20
-138.817
11
210.706
21
-138.817
0
LINE
8
Black
10
210.706
20
-138.817
11
210.42
21
-138.674
0
LINE
8
Black
10
210.42
20
-138.674
11
210.277
21
-138.389
0
LINE
8
Black
10
210.277
20
-138.389
11
210.277
21
-137.246
0
LINE
8
Black
10
210.277
20
-137.246
11
210.42
21
-136.96
0
LINE
8
Black
10
210.42
20
-136.96
11
210.706
21
-136.817
0
LINE
8
Black
10
210.706
20
-136.817
11
211.277
21
-136.817
0
LINE
8
Black
10
211.277
20
-136.817
11
211.563
21
-136.96
0
LINE
8
Black
10
211.563
20
-136.96
11
211.706
21
-137.246
0
LINE
8
Black
10
211.706
20
-137.246
11
211.706
21
-137.531
0
LINE
8
Black
10
211.706
20
-137.531
11
210.277
21
-137.817
0
LINE
8
Black
10
212.849
20
-138.674
11
213.134
21
-138.817
0
LINE
8
Black
10
213.134
20
-138.817
11
213.706
21
-138.817
0
LINE
8
Black
10
213.706
20
-138.817
11
213.991
21
-138.674
0
LINE
8
Black
10
213.991
20
-138.674
11
214.134
21
-138.389
0
LINE
8
Black
10
214.134
20
-138.389
11
214.134
21
-138.246
0
LINE
8
Black
10
214.134
20
-138.246
11
213.991
21
-137.96
0
LINE
8
Black
10
213.991
20
-137.96
11
213.706
21
-137.817
0
LINE
8
Black
10
213.706
20
-137.817
11
213.277
21
-137.817
0
LINE
8
Black
10
213.277
20
-137.817
11
212.991
21
-137.674
0
LINE
8
Black
10
212.991
20
-137.674
11
212.849
21
-137.389
0
LINE
8
Black
10
212.849
20
-137.389
11
212.849
21
-137.246
0
LINE
8
Black
10
212.849
20
-137.246
11
212.991
21
-136.96
0
LINE
8
Black
10
212.991
20
-136.96
11
213.277
21
-136.817
0
LINE
8
Black
10
213.277
20
-136.817
11
213.706
21
-136.817
0
LINE
8
Black
10
213.706
20
-136.817
11
213.991
21
-136.96
0
LINE
8
Black
10
217.706
20
-137.674
11
219.991
21
-137.674
0
LINE
8
Black
10
218.849
20
-138.817
11
218.849
21
-136.531
0
LINE
8
Black
10
223.563
20
-136.103
11
223.706
21
-135.96
0
LINE
8
Black
10
223.706
20
-135.96
11
223.991
21
-135.817
0
LINE
8
Black
10
223.991
20
-135.817
11
224.706
21
-135.817
0
LINE
8
Black
10
224.706
20
-135.817
11
224.991
21
-135.96
0
LINE
8
Black
10
224.991
20
-135.96
11
225.134
21
-136.103
0
LINE
8
Black
10
225.134
20
-136.103
11
225.277
21
-136.389
0
LINE
8
Black
10
225.277
20
-136.389
11
225.277
21
-136.674
0
LINE
8
Black
10
225.277
20
-136.674
11
225.134
21
-137.103
0
LINE
8
Black
10
225.134
20
-137.103
11
223.42
21
-138.817
0
LINE
8
Black
10
223.42
20
-138.817
11
225.277
21
-138.817
0
LINE
8
Black
10
228.706
20
-138.674
11
228.991
21
-138.817
0
LINE
8
Black
10
228.991
20
-138.817
11
229.563
21
-138.817
0
LINE
8
Black
10
229.563
20
-138.817
11
229.849
21
-138.674
0
LINE
8
Black
10
229.849
20
-138.674
11
229.991
21
-138.389
0
LINE
8
Black
10
229.991
20
-138.389
11
229.991
21
-138.246
0
LINE
8
Black
10
229.991
20
-138.246
11
229.849
21
-137.96
0
LINE
8
Black
10
229.849
20
-137.96
11
229.563
21
-137.817
0
LINE
8
Black
10
229.563
20
-137.817
11
229.134
21
-137.817
0
LINE
8
Black
10
229.134
20
-137.817
11
228.849
21
-137.674
0
LINE
8
Black
10
228.849
20
-137.674
11
228.706
21
-137.389
0
LINE
8
Black
10
228.706
20
-137.389
11
228.706
21
-137.246
0
LINE
8
Black
10
228.706
20
-137.246
11
228.849
21
-136.96
0
LINE
8
Black
10
228.849
20
-136.96
11
229.134
21
-136.817
0
LINE
8
Black
10
229.134
20
-136.817
11
229.563
21
-136.817
0
LINE
8
Black
10
229.563
20
-136.817
11
229.849
21
-136.96
0
LINE
8
Black
10
231.706
20
-138.817
11
231.42
21
-138.674
0
LINE
8
Black
10
231.42
20
-138.674
11
231.277
21
-138.389
0
LINE
8
Black
10
231.277
20
-138.389
11
231.277
21
-135.817
0
LINE
8
Black
10
233.277
20
-138.817
11
232.991
21
-138.674
0
LINE
8
Black
10
232.991
20
-138.674
11
232.849
21
-138.531
0
LINE
8
Black
10
232.849
20
-138.531
11
232.706
21
-138.246
0
LINE
8
Black
10
232.706
20
-138.246
11
232.706
21
-137.389
0
LINE
8
Black
10
232.706
20
-137.389
11
232.849
21
-137.103
0
LINE
8
Black
10
232.849
20
-137.103
11
232.991
21
-136.96
0
LINE
8
Black
10
232.991
20
-136.96
11
233.277
21
-136.817
0
LINE
8
Black
10
233.277
20
-136.817
11
233.706
21
-136.817
0
LINE
8
Black
10
233.706
20
-136.817
11
233.991
21
-136.96
0
LINE
8
Black
10
233.991
20
-136.96
11
234.134
21
-137.103
0
LINE
8
Black
10
234.134
20
-137.103
11
234.277
21
-137.389
0
LINE
8
Black
10
234.277
20
-137.389
11
234.277
21
-138.246
0
LINE
8
Black
10
234.277
20
-138.246
11
234.134
21
-138.531
0
LINE
8
Black
10
234.134
20
-138.531
11
233.991
21
-138.674
0
LINE
8
Black
10
233.991
20
-138.674
11
233.706
21
-138.817
0
LINE
8
Black
10
233.706
20
-138.817
11
233.277
21
-138.817
0
LINE
8
Black
10
235.134
20
-136.817
11
236.277
21
-136.817
0
LINE
8
Black
10
235.563
20
-135.817
11
235.563
21
-138.389
0
LINE
8
Black
10
235.563
20
-138.389
11
235.706
21
-138.674
0
LINE
8
Black
10
235.706
20
-138.674
11
235.991
21
-138.817
0
LINE
8
Black
10
235.991
20
-138.817
11
236.277
21
-138.817
0
LINE
8
Black
10
237.134
20
-138.674
11
237.42
21
-138.817
0
LINE
8
Black
10
237.42
20
-138.817
11
237.991
21
-138.817
0
LINE
8
Black
10
237.991
20
-138.817
11
238.277
21
-138.674
0
LINE
8
Black
10
238.277
20
-138.674
11
238.42
21
-138.389
0
LINE
8
Black
10
238.42
20
-138.389
11
238.42
21
-138.246
0
LINE
8
Black
10
238.42
20
-138.246
11
238.277
21
-137.96
0
LINE
8
Black
10
238.277
20
-137.96
11
237.991
21
-137.817
0
LINE
8
Black
10
237.991
20
-137.817
11
237.563
21
-137.817
0
LINE
8
Black
10
237.563
20
-137.817
11
237.277
21
-137.674
0
LINE
8
Black
10
237.277
20
-137.674
11
237.134
21
-137.389
0
LINE
8
Black
10
237.134
20
-137.389
11
237.134
21
-137.246
0
LINE
8
Black
10
237.134
20
-137.246
11
237.277
21
-136.96
0
LINE
8
Black
10
237.277
20
-136.96
11
237.563
21
-136.817
0
LINE
8
Black
10
237.563
20
-136.817
11
237.991
21
-136.817
0
LINE
8
Black
10
237.991
20
-136.817
11
238.277
21
-136.96
0
LINE
8
Black
10
239.42
20
-139.96
11
239.563
21
-139.817
0
LINE
8
Black
10
239.563
20
-139.817
11
239.849
21
-139.389
0
LINE
8
Black
10
239.849
20
-139.389
11
239.991
21
-139.103
0
LINE
8
Black
10
239.991
20
-139.103
11
240.134
21
-138.674
0
LINE
8
Black
10
240.134
20
-138.674
11
240.277
21
-137.96
0
LINE
8
Black
10
240.277
20
-137.96
11
240.277
21
-137.389
0
LINE
8
Black
10
240.277
20
-137.389
11
240.134
21
-136.674
0
LINE
8
Black
10
240.134
20
-136.674
11
239.991
21
-136.246
0
LINE
8
Black
10
239.991
20
-136.246
11
239.849
21
-135.96
0
LINE
8
Black
10
239.849
20
-135.96
11
239.563
21
-135.531
0
LINE
8
Black
10
239.563
20
-135.531
11
239.42
21
-135.389
0
LINE
8
Black
10
150.02
20
-141.02
11
150.02
21
-141.82
0
LINE
8
Black
10
149.62
20
-141.42
11
150.42
21
-141.42
0
LINE
8
Black
10
153.706
20
-139.777
11
153.991
21
-139.777
0
LINE
8
Black
10
153.991
20
-139.777
11
154.277
21
-139.92
0
LINE
8
Black
10
154.277
20
-139.92
11
154.42
21
-140.063
0
LINE
8
Black
10
154.42
20
-140.063
11
154.563
21
-140.349
0
LINE
8
Black
10
154.563
20
-140.349
11
154.706
21
-140.92
0
LINE
8
Black
10
154.706
20
-140.92
11
154.706
21
-141.634
0
LINE
8
Black
10
154.706
20
-141.634
11
154.563
21
-142.206
0
LINE
8
Black
10
154.563
20
-142.206
11
154.42
21
-142.491
0
LINE
8
Black
10
154.42
20
-142.491
11
154.277
21
-142.634
0
LINE
8
Black
10
154.277
20
-142.634
11
153.991
21
-142.777
0
LINE
8
Black
10
153.991
20
-142.777
11
153.706
21
-142.777
0
LINE
8
Black
10
153.706
20
-142.777
11
153.42
21
-142.634
0
LINE
8
Black
10
153.42
20
-142.634
11
153.277
21
-142.491
0
LINE
8
Black
10
153.277
20
-142.491
11
153.134
21
-142.206
0
LINE
8
Black
10
153.134
20
-142.206
11
152.991
21
-141.634
0
LINE
8
Black
10
152.991
20
-141.634
11
152.991
21
-140.92
0
LINE
8
Black
10
152.991
20
-140.92
11
153.134
21
-140.349
0
LINE
8
Black
10
153.134
20
-140.349
11
153.277
21
-140.063
0
LINE
8
Black
10
153.277
20
-140.063
11
153.42
21
-139.92
0
LINE
8
Black
10
153.42
20
-139.92
11
153.706
21
-139.777
0
LINE
8
Black
10
155.991
20
-142.491
11
156.134
21
-142.634
0
LINE
8
Black
10
156.134
20
-142.634
11
155.991
21
-142.777
0
LINE
8
Black
10
155.991
20
-142.777
11
155.849
21
-142.634
0
LINE
8
Black
10
155.849
20
-142.634
11
155.991
21
-142.491
0
LINE
8
Black
10
155.991
20
-142.491
11
155.991
21
-142.777
0
LINE
8
Black
10
157.849
20
-141.063
11
157.563
21
-140.92
0
LINE
8
Black
10
157.563
20
-140.92
11
157.42
21
-140.777
0
LINE
8
Black
10
157.42
20
-140.777
11
157.277
21
-140.491
0
LINE
8
Black
10
157.277
20
-140.491
11
157.277
21
-140.349
0
LINE
8
Black
10
157.277
20
-140.349
11
157.42
21
-140.063
0
LINE
8
Black
10
157.42
20
-140.063
11
157.563
21
-139.92
0
LINE
8
Black
10
157.563
20
-139.92
11
157.849
21
-139.777
0
LINE
8
Black
10
157.849
20
-139.777
11
158.42
21
-139.777
0
LINE
8
Black
10
158.42
20
-139.777
11
158.706
21
-139.92
0
LINE
8
Black
10
158.706
20
-139.92
11
158.849
21
-140.063
0
LINE
8
Black
10
158.849
20
-140.063
11
158.991
21
-140.349
0
LINE
8
Black
10
158.991
20
-140.349
11
158.991
21
-140.491
0
LINE
8
Black
10
158.991
20
-140.491
11
158.849
21
-140.777
0
LINE
8
Black
10
158.849
20
-140.777
11
158.706
21
-140.92
0
LINE
8
Black
10
158.706
20
-140.92
11
158.42
21
-141.063
0
LINE
8
Black
10
158.42
20
-141.063
11
157.849
21
-141.063
0
LINE
8
Black
10
157.849
20
-141.063
11
157.563
21
-141.206
0
LINE
8
Black
10
157.563
20
-141.206
11
157.42
21
-141.349
0
LINE
8
Black
10
157.42
20
-141.349
11
157.277
21
-141.634
0
LINE
8
Black
10
157.277
20
-141.634
11
157.277
21
-142.206
0
LINE
8
Black
10
157.277
20
-142.206
11
157.42
21
-142.491
0
LINE
8
Black
10
157.42
20
-142.491
11
157.563
21
-142.634
0
LINE
8
Black
10
157.563
20
-142.634
11
157.849
21
-142.777
0
LINE
8
Black
10
157.849
20
-142.777
11
158.42
21
-142.777
0
LINE
8
Black
10
158.42
20
-142.777
11
158.706
21
-142.634
0
LINE
8
Black
10
158.706
20
-142.634
11
158.849
21
-142.491
0
LINE
8
Black
10
158.849
20
-142.491
11
158.991
21
-142.206
0
LINE
8
Black
10
158.991
20
-142.206
11
158.991
21
-141.634
0
LINE
8
Black
10
158.991
20
-141.634
11
158.849
21
-141.349
0
LINE
8
Black
10
158.849
20
-141.349
11
158.706
21
-141.206
0
LINE
8
Black
10
158.706
20
-141.206
11
158.42
21
-141.063
0
LINE
8
Black
10
160.849
20
-139.777
11
161.134
21
-139.777
0
LINE
8
Black
10
161.134
20
-139.777
11
161.42
21
-139.92
0
LINE
8
Black
10
161.42
20
-139.92
11
161.563
21
-140.063
0
LINE
8
Black
10
161.563
20
-140.063
11
161.706
21
-140.349
0
LINE
8
Black
10
161.706
20
-140.349
11
161.849
21
-140.92
0
LINE
8
Black
10
161.849
20
-140.92
11
161.849
21
-141.634
0
LINE
8
Black
10
161.849
20
-141.634
11
161.706
21
-142.206
0
LINE
8
Black
10
161.706
20
-142.206
11
161.563
21
-142.491
0
LINE
8
Black
10
161.563
20
-142.491
11
161.42
21
-142.634
0
LINE
8
Black
10
161.42
20
-142.634
11
161.134
21
-142.777
0
LINE
8
Black
10
161.134
20
-142.777
11
160.849
21
-142.777
0
LINE
8
Black
10
160.849
20
-142.777
11
160.563
21
-142.634
0
LINE
8
Black
10
160.563
20
-142.634
11
160.42
21
-142.491
0
LINE
8
Black
10
160.42
20
-142.491
11
160.277
21
-142.206
0
LINE
8
Black
10
160.277
20
-142.206
11
160.134
21
-141.634
0
LINE
8
Black
10
160.134
20
-141.634
11
160.134
21
-140.92
0
LINE
8
Black
10
160.134
20
-140.92
11
160.277
21
-140.349
0
LINE
8
Black
10
160.277
20
-140.349
11
160.42
21
-140.063
0
LINE
8
Black
10
160.42
20
-140.063
11
160.563
21
-139.92
0
LINE
8
Black
10
160.563
20
-139.92
11
160.849
21
-139.777
0
LINE
8
Black
10
163.134
20
-142.777
11
163.134
21
-140.777
0
LINE
8
Black
10
163.134
20
-141.063
11
163.277
21
-140.92
0
LINE
8
Black
10
163.277
20
-140.92
11
163.563
21
-140.777
0
LINE
8
Black
10
163.563
20
-140.777
11
163.991
21
-140.777
0
LINE
8
Black
10
163.991
20
-140.777
11
164.277
21
-140.92
0
LINE
8
Black
10
164.277
20
-140.92
11
164.42
21
-141.206
0
LINE
8
Black
10
164.42
20
-141.206
11
164.42
21
-142.777
0
LINE
8
Black
10
164.42
20
-141.206
11
164.563
21
-140.92
0
LINE
8
Black
10
164.563
20
-140.92
11
164.849
21
-140.777
0
LINE
8
Black
10
164.849
20
-140.777
11
165.277
21
-140.777
0
LINE
8
Black
10
165.277
20
-140.777
11
165.563
21
-140.92
0
LINE
8
Black
10
165.563
20
-140.92
11
165.706
21
-141.206
0
LINE
8
Black
10
165.706
20
-141.206
11
165.706
21
-142.777
0
LINE
8
Black
10
167.134
20
-142.777
11
167.134
21
-140.777
0
LINE
8
Black
10
167.134
20
-141.063
11
167.277
21
-140.92
0
LINE
8
Black
10
167.277
20
-140.92
11
167.563
21
-140.777
0
LINE
8
Black
10
167.563
20
-140.777
11
167.991
21
-140.777
0
LINE
8
Black
10
167.991
20
-140.777
11
168.277
21
-140.92
0
LINE
8
Black
10
168.277
20
-140.92
11
168.42
21
-141.206
0
LINE
8
Black
10
168.42
20
-141.206
11
168.42
21
-142.777
0
LINE
8
Black
10
168.42
20
-141.206
11
168.563
21
-140.92
0
LINE
8
Black
10
168.563
20
-140.92
11
168.849
21
-140.777
0
LINE
8
Black
10
168.849
20
-140.777
11
169.277
21
-140.777
0
LINE
8
Black
10
169.277
20
-140.777
11
169.563
21
-140.92
0
LINE
8
Black
10
169.563
20
-140.92
11
169.706
21
-141.206
0
LINE
8
Black
10
169.706
20
-141.206
11
169.706
21
-142.777
0
LINE
8
Black
10
175.563
20
-139.634
11
172.991
21
-143.491
0
LINE
8
Black
10
179.42
20
-139.777
11
179.706
21
-139.777
0
LINE
8
Black
10
179.706
20
-139.777
11
179.991
21
-139.92
0
LINE
8
Black
10
179.991
20
-139.92
11
180.134
21
-140.063
0
LINE
8
Black
10
180.134
20
-140.063
11
180.277
21
-140.349
0
LINE
8
Black
10
180.277
20
-140.349
11
180.42
21
-140.92
0
LINE
8
Black
10
180.42
20
-140.92
11
180.42
21
-141.634
0
LINE
8
Black
10
180.42
20
-141.634
11
180.277
21
-142.206
0
LINE
8
Black
10
180.277
20
-142.206
11
180.134
21
-142.491
0
LINE
8
Black
10
180.134
20
-142.491
11
179.991
21
-142.634
0
LINE
8
Black
10
179.991
20
-142.634
11
179.706
21
-142.777
0
LINE
8
Black
10
179.706
20
-142.777
11
179.42
21
-142.777
0
LINE
8
Black
10
179.42
20
-142.777
11
179.134
21
-142.634
0
LINE
8
Black
10
179.134
20
-142.634
11
178.991
21
-142.491
0
LINE
8
Black
10
178.991
20
-142.491
11
178.849
21
-142.206
0
LINE
8
Black
10
178.849
20
-142.206
11
178.706
21
-141.634
0
LINE
8
Black
10
178.706
20
-141.634
11
178.706
21
-140.92
0
LINE
8
Black
10
178.706
20
-140.92
11
178.849
21
-140.349
0
LINE
8
Black
10
178.849
20
-140.349
11
178.991
21
-140.063
0
LINE
8
Black
10
178.991
20
-140.063
11
179.134
21
-139.92
0
LINE
8
Black
10
179.134
20
-139.92
11
179.42
21
-139.777
0
LINE
8
Black
10
181.706
20
-142.491
11
181.849
21
-142.634
0
LINE
8
Black
10
181.849
20
-142.634
11
181.706
21
-142.777
0
LINE
8
Black
10
181.706
20
-142.777
11
181.563
21
-142.634
0
LINE
8
Black
10
181.563
20
-142.634
11
181.706
21
-142.491
0
LINE
8
Black
10
181.706
20
-142.491
11
181.706
21
-142.777
0
LINE
8
Black
10
183.706
20
-139.777
11
183.991
21
-139.777
0
LINE
8
Black
10
183.991
20
-139.777
11
184.277
21
-139.92
0
LINE
8
Black
10
184.277
20
-139.92
11
184.42
21
-140.063
0
LINE
8
Black
10
184.42
20
-140.063
11
184.563
21
-140.349
0
LINE
8
Black
10
184.563
20
-140.349
11
184.706
21
-140.92
0
LINE
8
Black
10
184.706
20
-140.92
11
184.706
21
-141.634
0
LINE
8
Black
10
184.706
20
-141.634
11
184.563
21
-142.206
0
LINE
8
Black
10
184.563
20
-142.206
11
184.42
21
-142.491
0
LINE
8
Black
10
184.42
20
-142.491
11
184.277
21
-142.634
0
LINE
8
Black
10
184.277
20
-142.634
11
183.991
21
-142.777
0
LINE
8
Black
10
183.991
20
-142.777
11
183.706
21
-142.777
0
LINE
8
Black
10
183.706
20
-142.777
11
183.42
21
-142.634
0
LINE
8
Black
10
183.42
20
-142.634
11
183.277
21
-142.491
0
LINE
8
Black
10
183.277
20
-142.491
11
183.134
21
-142.206
0
LINE
8
Black
10
183.134
20
-142.206
11
182.991
21
-141.634
0
LINE
8
Black
10
182.991
20
-141.634
11
182.991
21
-140.92
0
LINE
8
Black
10
182.991
20
-140.92
11
183.134
21
-140.349
0
LINE
8
Black
10
183.134
20
-140.349
11
183.277
21
-140.063
0
LINE
8
Black
10
183.277
20
-140.063
11
183.42
21
-139.92
0
LINE
8
Black
10
183.42
20
-139.92
11
183.706
21
-139.777
0
LINE
8
Black
10
185.706
20
-139.777
11
187.563
21
-139.777
0
LINE
8
Black
10
187.563
20
-139.777
11
186.563
21
-140.92
0
LINE
8
Black
10
186.563
20
-140.92
11
186.991
21
-140.92
0
LINE
8
Black
10
186.991
20
-140.92
11
187.277
21
-141.063
0
LINE
8
Black
10
187.277
20
-141.063
11
187.42
21
-141.206
0
LINE
8
Black
10
187.42
20
-141.206
11
187.563
21
-141.491
0
LINE
8
Black
10
187.563
20
-141.491
11
187.563
21
-142.206
0
LINE
8
Black
10
187.563
20
-142.206
11
187.42
21
-142.491
0
LINE
8
Black
10
187.42
20
-142.491
11
187.277
21
-142.634
0
LINE
8
Black
10
187.277
20
-142.634
11
186.991
21
-142.777
0
LINE
8
Black
10
186.991
20
-142.777
11
186.134
21
-142.777
0
LINE
8
Black
10
186.134
20
-142.777
11
185.849
21
-142.634
0
LINE
8
Black
10
185.849
20
-142.634
11
185.706
21
-142.491
0
LINE
8
Black
10
190.42
20
-142.777
11
188.706
21
-142.777
0
LINE
8
Black
10
189.563
20
-142.777
11
189.563
21
-139.777
0
LINE
8
Black
10
189.563
20
-139.777
11
189.277
21
-140.206
0
LINE
8
Black
10
189.277
20
-140.206
11
188.991
21
-140.491
0
LINE
8
Black
10
188.991
20
-140.491
11
188.706
21
-140.634
0
LINE
8
Black
10
191.563
20
-139.777
11
191.563
21
-140.349
0
LINE
8
Black
10
192.706
20
-139.777
11
192.706
21
-140.349
0
LINE
8
Black
10
197.134
20
-143.92
11
196.991
21
-143.777
0
LINE
8
Black
10
196.991
20
-143.777
11
196.706
21
-143.349
0
LINE
8
Black
10
196.706
20
-143.349
11
196.563
21
-143.063
0
LINE
8
Black
10
196.563
20
-143.063
11
196.42
21
-142.634
0
LINE
8
Black
10
196.42
20
-142.634
11
196.277
21
-141.92
0
LINE
8
Black
10
196.277
20
-141.92
11
196.277
21
-141.349
0
LINE
8
Black
10
196.277
20
-141.349
11
196.42
21
-140.634
0
LINE
8
Black
10
196.42
20
-140.634
11
196.563
21
-140.206
0
LINE
8
Black
10
196.563
20
-140.206
11
196.706
21
-139.92
0
LINE
8
Black
10
196.706
20
-139.92
11
196.991
21
-139.491
0
LINE
8
Black
10
196.991
20
-139.491
11
197.134
21
-139.349
0
LINE
8
Black
10
198.134
20
-140.063
11
198.277
21
-139.92
0
LINE
8
Black
10
198.277
20
-139.92
11
198.563
21
-139.777
0
LINE
8
Black
10
198.563
20
-139.777
11
199.277
21
-139.777
0
LINE
8
Black
10
199.277
20
-139.777
11
199.563
21
-139.92
0
LINE
8
Black
10
199.563
20
-139.92
11
199.706
21
-140.063
0
LINE
8
Black
10
199.706
20
-140.063
11
199.849
21
-140.349
0
LINE
8
Black
10
199.849
20
-140.349
11
199.849
21
-140.634
0
LINE
8
Black
10
199.849
20
-140.634
11
199.706
21
-141.063
0
LINE
8
Black
10
199.706
20
-141.063
11
197.991
21
-142.777
0
LINE
8
Black
10
197.991
20
-142.777
11
199.849
21
-142.777
0
LINE
8
Black
10
202.42
20
-139.777
11
201.849
21
-139.777
0
LINE
8
Black
10
201.849
20
-139.777
11
201.563
21
-139.92
0
LINE
8
Black
10
201.563
20
-139.92
11
201.42
21
-140.063
0
LINE
8
Black
10
201.42
20
-140.063
11
201.134
21
-140.491
0
LINE
8
Black
10
201.134
20
-140.491
11
200.991
21
-141.063
0
LINE
8
Black
10
200.991
20
-141.063
11
200.991
21
-142.206
0
LINE
8
Black
10
200.991
20
-142.206
11
201.134
21
-142.491
0
LINE
8
Black
10
201.134
20
-142.491
11
201.277
21
-142.634
0
LINE
8
Black
10
201.277
20
-142.634
11
201.563
21
-142.777
0
LINE
8
Black
10
201.563
20
-142.777
11
202.134
21
-142.777
0
LINE
8
Black
10
202.134
20
-142.777
11
202.42
21
-142.634
0
LINE
8
Black
10
202.42
20
-142.634
11
202.563
21
-142.491
0
LINE
8
Black
10
202.563
20
-142.491
11
202.706
21
-142.206
0
LINE
8
Black
10
202.706
20
-142.206
11
202.706
21
-141.491
0
LINE
8
Black
10
202.706
20
-141.491
11
202.563
21
-141.206
0
LINE
8
Black
10
202.563
20
-141.206
11
202.42
21
-141.063
0
LINE
8
Black
10
202.42
20
-141.063
11
202.134
21
-140.92
0
LINE
8
Black
10
202.134
20
-140.92
11
201.563
21
-140.92
0
LINE
8
Black
10
201.563
20
-140.92
11
201.277
21
-141.063
0
LINE
8
Black
10
201.277
20
-141.063
11
201.134
21
-141.206
0
LINE
8
Black
10
201.134
20
-141.206
11
200.991
21
-141.491
0
LINE
8
Black
10
206.277
20
-142.777
11
206.277
21
-139.777
0
LINE
8
Black
10
207.563
20
-142.777
11
207.563
21
-141.206
0
LINE
8
Black
10
207.563
20
-141.206
11
207.42
21
-140.92
0
LINE
8
Black
10
207.42
20
-140.92
11
207.134
21
-140.777
0
LINE
8
Black
10
207.134
20
-140.777
11
206.706
21
-140.777
0
LINE
8
Black
10
206.706
20
-140.777
11
206.42
21
-140.92
0
LINE
8
Black
10
206.42
20
-140.92
11
206.277
21
-141.063
0
LINE
8
Black
10
209.42
20
-142.777
11
209.134
21
-142.634
0
LINE
8
Black
10
209.134
20
-142.634
11
208.991
21
-142.491
0
LINE
8
Black
10
208.991
20
-142.491
11
208.849
21
-142.206
0
LINE
8
Black
10
208.849
20
-142.206
11
208.849
21
-141.349
0
LINE
8
Black
10
208.849
20
-141.349
11
208.991
21
-141.063
0
LINE
8
Black
10
208.991
20
-141.063
11
209.134
21
-140.92
0
LINE
8
Black
10
209.134
20
-140.92
11
209.42
21
-140.777
0
LINE
8
Black
10
209.42
20
-140.777
11
209.849
21
-140.777
0
LINE
8
Black
10
209.849
20
-140.777
11
210.134
21
-140.92
0
LINE
8
Black
10
210.134
20
-140.92
11
210.277
21
-141.063
0
LINE
8
Black
10
210.277
20
-141.063
11
210.42
21
-141.349
0
LINE
8
Black
10
210.42
20
-141.349
11
210.42
21
-142.206
0
LINE
8
Black
10
210.42
20
-142.206
11
210.277
21
-142.491
0
LINE
8
Black
10
210.277
20
-142.491
11
210.134
21
-142.634
0
LINE
8
Black
10
210.134
20
-142.634
11
209.849
21
-142.777
0
LINE
8
Black
10
209.849
20
-142.777
11
209.42
21
-142.777
0
LINE
8
Black
10
212.134
20
-142.777
11
211.849
21
-142.634
0
LINE
8
Black
10
211.849
20
-142.634
11
211.706
21
-142.349
0
LINE
8
Black
10
211.706
20
-142.349
11
211.706
21
-139.777
0
LINE
8
Black
10
214.42
20
-142.634
11
214.134
21
-142.777
0
LINE
8
Black
10
214.134
20
-142.777
11
213.563
21
-142.777
0
LINE
8
Black
10
213.563
20
-142.777
11
213.277
21
-142.634
0
LINE
8
Black
10
213.277
20
-142.634
11
213.134
21
-142.349
0
LINE
8
Black
10
213.134
20
-142.349
11
213.134
21
-141.206
0
LINE
8
Black
10
213.134
20
-141.206
11
213.277
21
-140.92
0
LINE
8
Black
10
213.277
20
-140.92
11
213.563
21
-140.777
0
LINE
8
Black
10
213.563
20
-140.777
11
214.134
21
-140.777
0
LINE
8
Black
10
214.134
20
-140.777
11
214.42
21
-140.92
0
LINE
8
Black
10
214.42
20
-140.92
11
214.563
21
-141.206
0
LINE
8
Black
10
214.563
20
-141.206
11
214.563
21
-141.491
0
LINE
8
Black
10
214.563
20
-141.491
11
213.134
21
-141.777
0
LINE
8
Black
10
215.706
20
-142.634
11
215.991
21
-142.777
0
LINE
8
Black
10
215.991
20
-142.777
11
216.563
21
-142.777
0
LINE
8
Black
10
216.563
20
-142.777
11
216.849
21
-142.634
0
LINE
8
Black
10
216.849
20
-142.634
11
216.991
21
-142.349
0
LINE
8
Black
10
216.991
20
-142.349
11
216.991
21
-142.206
0
LINE
8
Black
10
216.991
20
-142.206
11
216.849
21
-141.92
0
LINE
8
Black
10
216.849
20
-141.92
11
216.563
21
-141.777
0
LINE
8
Black
10
216.563
20
-141.777
11
216.134
21
-141.777
0
LINE
8
Black
10
216.134
20
-141.777
11
215.849
21
-141.634
0
LINE
8
Black
10
215.849
20
-141.634
11
215.706
21
-141.349
0
LINE
8
Black
10
215.706
20
-141.349
11
215.706
21
-141.206
0
LINE
8
Black
10
215.706
20
-141.206
11
215.849
21
-140.92
0
LINE
8
Black
10
215.849
20
-140.92
11
216.134
21
-140.777
0
LINE
8
Black
10
216.134
20
-140.777
11
216.563
21
-140.777
0
LINE
8
Black
10
216.563
20
-140.777
11
216.849
21
-140.92
0
LINE
8
Black
10
217.991
20
-143.92
11
218.134
21
-143.777
0
LINE
8
Black
10
218.134
20
-143.777
11
218.42
21
-143.349
0
LINE
8
Black
10
218.42
20
-143.349
11
218.563
21
-143.063
0
LINE
8
Black
10
218.563
20
-143.063
11
218.706
21
-142.634
0
LINE
8
Black
10
218.706
20
-142.634
11
218.849
21
-141.92
0
LINE
8
Black
10
218.849
20
-141.92
11
218.849
21
-141.349
0
LINE
8
Black
10
218.849
20
-141.349
11
218.706
21
-140.634
0
LINE
8
Black
10
218.706
20
-140.634
11
218.563
21
-140.206
0
LINE
8
Black
10
218.563
20
-140.206
11
218.42
21
-139.92
0
LINE
8
Black
10
218.42
20
-139.92
11
218.134
21
-139.491
0
LINE
8
Black
10
218.134
20
-139.491
11
217.991
21
-139.349
0
LINE
8
Black
10
150.274
20
-145.734
11
150.274
21
-145.026
0
LINE
8
Black
10
150.274
20
-145.026
11
149.566
21
-145.026
0
LINE
8
Black
10
149.566
20
-145.026
11
149.566
21
-145.734
0
LINE
8
Black
10
149.566
20
-145.734
11
150.274
21
-145.734
0
LINE
8
Black
10
154.706
20
-146.737
11
152.991
21
-146.737
0
LINE
8
Black
10
153.849
20
-146.737
11
153.849
21
-143.737
0
LINE
8
Black
10
153.849
20
-143.737
11
153.563
21
-144.166
0
LINE
8
Black
10
153.563
20
-144.166
11
153.277
21
-144.451
0
LINE
8
Black
10
153.277
20
-144.451
11
152.991
21
-144.594
0
LINE
8
Black
10
155.991
20
-146.451
11
156.134
21
-146.594
0
LINE
8
Black
10
156.134
20
-146.594
11
155.991
21
-146.737
0
LINE
8
Black
10
155.991
20
-146.737
11
155.849
21
-146.594
0
LINE
8
Black
10
155.849
20
-146.594
11
155.991
21
-146.451
0
LINE
8
Black
10
155.991
20
-146.451
11
155.991
21
-146.737
0
LINE
8
Black
10
157.991
20
-143.737
11
158.277
21
-143.737
0
LINE
8
Black
10
158.277
20
-143.737
11
158.563
21
-143.88
0
LINE
8
Black
10
158.563
20
-143.88
11
158.706
21
-144.023
0
LINE
8
Black
10
158.706
20
-144.023
11
158.849
21
-144.309
0
LINE
8
Black
10
158.849
20
-144.309
11
158.991
21
-144.88
0
LINE
8
Black
10
158.991
20
-144.88
11
158.991
21
-145.594
0
LINE
8
Black
10
158.991
20
-145.594
11
158.849
21
-146.166
0
LINE
8
Black
10
158.849
20
-146.166
11
158.706
21
-146.451
0
LINE
8
Black
10
158.706
20
-146.451
11
158.563
21
-146.594
0
LINE
8
Black
10
158.563
20
-146.594
11
158.277
21
-146.737
0
LINE
8
Black
10
158.277
20
-146.737
11
157.991
21
-146.737
0
LINE
8
Black
10
157.991
20
-146.737
11
157.706
21
-146.594
0
LINE
8
Black
10
157.706
20
-146.594
11
157.563
21
-146.451
0
LINE
8
Black
10
157.563
20
-146.451
11
157.42
21
-146.166
0
LINE
8
Black
10
157.42
20
-146.166
11
157.277
21
-145.594
0
LINE
8
Black
10
157.277
20
-145.594
11
157.277
21
-144.88
0
LINE
8
Black
10
157.277
20
-144.88
11
157.42
21
-144.309
0
LINE
8
Black
10
157.42
20
-144.309
11
157.563
21
-144.023
0
LINE
8
Black
10
157.563
20
-144.023
11
157.706
21
-143.88
0
LINE
8
Black
10
157.706
20
-143.88
11
157.991
21
-143.737
0
LINE
8
Black
10
160.849
20
-143.737
11
161.134
21
-143.737
0
LINE
8
Black
10
161.134
20
-143.737
11
161.42
21
-143.88
0
LINE
8
Black
10
161.42
20
-143.88
11
161.563
21
-144.023
0
LINE
8
Black
10
161.563
20
-144.023
11
161.706
21
-144.309
0
LINE
8
Black
10
161.706
20
-144.309
11
161.849
21
-144.88
0
LINE
8
Black
10
161.849
20
-144.88
11
161.849
21
-145.594
0
LINE
8
Black
10
161.849
20
-145.594
11
161.706
21
-146.166
0
LINE
8
Black
10
161.706
20
-146.166
11
161.563
21
-146.451
0
LINE
8
Black
10
161.563
20
-146.451
11
161.42
21
-146.594
0
LINE
8
Black
10
161.42
20
-146.594
11
161.134
21
-146.737
0
LINE
8
Black
10
161.134
20
-146.737
11
160.849
21
-146.737
0
LINE
8
Black
10
160.849
20
-146.737
11
160.563
21
-146.594
0
LINE
8
Black
10
160.563
20
-146.594
11
160.42
21
-146.451
0
LINE
8
Black
10
160.42
20
-146.451
11
160.277
21
-146.166
0
LINE
8
Black
10
160.277
20
-146.166
11
160.134
21
-145.594
0
LINE
8
Black
10
160.134
20
-145.594
11
160.134
21
-144.88
0
LINE
8
Black
10
160.134
20
-144.88
11
160.277
21
-144.309
0
LINE
8
Black
10
160.277
20
-144.309
11
160.42
21
-144.023
0
LINE
8
Black
10
160.42
20
-144.023
11
160.563
21
-143.88
0
LINE
8
Black
10
160.563
20
-143.88
11
160.849
21
-143.737
0
LINE
8
Black
10
163.134
20
-146.737
11
163.134
21
-144.737
0
LINE
8
Black
10
163.134
20
-145.023
11
163.277
21
-144.88
0
LINE
8
Black
10
163.277
20
-144.88
11
163.563
21
-144.737
0
LINE
8
Black
10
163.563
20
-144.737
11
163.991
21
-144.737
0
LINE
8
Black
10
163.991
20
-144.737
11
164.277
21
-144.88
0
LINE
8
Black
10
164.277
20
-144.88
11
164.42
21
-145.166
0
LINE
8
Black
10
164.42
20
-145.166
11
164.42
21
-146.737
0
LINE
8
Black
10
164.42
20
-145.166
11
164.563
21
-144.88
0
LINE
8
Black
10
164.563
20
-144.88
11
164.849
21
-144.737
0
LINE
8
Black
10
164.849
20
-144.737
11
165.277
21
-144.737
0
LINE
8
Black
10
165.277
20
-144.737
11
165.563
21
-144.88
0
LINE
8
Black
10
165.563
20
-144.88
11
165.706
21
-145.166
0
LINE
8
Black
10
165.706
20
-145.166
11
165.706
21
-146.737
0
LINE
8
Black
10
167.134
20
-146.737
11
167.134
21
-144.737
0
LINE
8
Black
10
167.134
20
-145.023
11
167.277
21
-144.88
0
LINE
8
Black
10
167.277
20
-144.88
11
167.563
21
-144.737
0
LINE
8
Black
10
167.563
20
-144.737
11
167.991
21
-144.737
0
LINE
8
Black
10
167.991
20
-144.737
11
168.277
21
-144.88
0
LINE
8
Black
10
168.277
20
-144.88
11
168.42
21
-145.166
0
LINE
8
Black
10
168.42
20
-145.166
11
168.42
21
-146.737
0
LINE
8
Black
10
168.42
20
-145.166
11
168.563
21
-144.88
0
LINE
8
Black
10
168.563
20
-144.88
11
168.849
21
-144.737
0
LINE
8
Black
10
168.849
20
-144.737
11
169.277
21
-144.737
0
LINE
8
Black
10
169.277
20
-144.737
11
169.563
21
-144.88
0
LINE
8
Black
10
169.563
20
-144.88
11
169.706
21
-145.166
0
LINE
8
Black
10
169.706
20
-145.166
11
169.706
21
-146.737
0
LINE
8
Black
10
175.563
20
-143.594
11
172.991
21
-147.451
0
LINE
8
Black
10
179.42
20
-143.737
11
179.706
21
-143.737
0
LINE
8
Black
10
179.706
20
-143.737
11
179.991
21
-143.88
0
LINE
8
Black
10
179.991
20
-143.88
11
180.134
21
-144.023
0
LINE
8
Black
10
180.134
20
-144.023
11
180.277
21
-144.309
0
LINE
8
Black
10
180.277
20
-144.309
11
180.42
21
-144.88
0
LINE
8
Black
10
180.42
20
-144.88
11
180.42
21
-145.594
0
LINE
8
Black
10
180.42
20
-145.594
11
180.277
21
-146.166
0
LINE
8
Black
10
180.277
20
-146.166
11
180.134
21
-146.451
0
LINE
8
Black
10
180.134
20
-146.451
11
179.991
21
-146.594
0
LINE
8
Black
10
179.991
20
-146.594
11
179.706
21
-146.737
0
LINE
8
Black
10
179.706
20
-146.737
11
179.42
21
-146.737
0
LINE
8
Black
10
179.42
20
-146.737
11
179.134
21
-146.594
0
LINE
8
Black
10
179.134
20
-146.594
11
178.991
21
-146.451
0
LINE
8
Black
10
178.991
20
-146.451
11
178.849
21
-146.166
0
LINE
8
Black
10
178.849
20
-146.166
11
178.706
21
-145.594
0
LINE
8
Black
10
178.706
20
-145.594
11
178.706
21
-144.88
0
LINE
8
Black
10
178.706
20
-144.88
11
178.849
21
-144.309
0
LINE
8
Black
10
178.849
20
-144.309
11
178.991
21
-144.023
0
LINE
8
Black
10
178.991
20
-144.023
11
179.134
21
-143.88
0
LINE
8
Black
10
179.134
20
-143.88
11
179.42
21
-143.737
0
LINE
8
Black
10
181.706
20
-146.451
11
181.849
21
-146.594
0
LINE
8
Black
10
181.849
20
-146.594
11
181.706
21
-146.737
0
LINE
8
Black
10
181.706
20
-146.737
11
181.563
21
-146.594
0
LINE
8
Black
10
181.563
20
-146.594
11
181.706
21
-146.451
0
LINE
8
Black
10
181.706
20
-146.451
11
181.706
21
-146.737
0
LINE
8
Black
10
183.706
20
-143.737
11
183.991
21
-143.737
0
LINE
8
Black
10
183.991
20
-143.737
11
184.277
21
-143.88
0
LINE
8
Black
10
184.277
20
-143.88
11
184.42
21
-144.023
0
LINE
8
Black
10
184.42
20
-144.023
11
184.563
21
-144.309
0
LINE
8
Black
10
184.563
20
-144.309
11
184.706
21
-144.88
0
LINE
8
Black
10
184.706
20
-144.88
11
184.706
21
-145.594
0
LINE
8
Black
10
184.706
20
-145.594
11
184.563
21
-146.166
0
LINE
8
Black
10
184.563
20
-146.166
11
184.42
21
-146.451
0
LINE
8
Black
10
184.42
20
-146.451
11
184.277
21
-146.594
0
LINE
8
Black
10
184.277
20
-146.594
11
183.991
21
-146.737
0
LINE
8
Black
10
183.991
20
-146.737
11
183.706
21
-146.737
0
LINE
8
Black
10
183.706
20
-146.737
11
183.42
21
-146.594
0
LINE
8
Black
10
183.42
20
-146.594
11
183.277
21
-146.451
0
LINE
8
Black
10
183.277
20
-146.451
11
183.134
21
-146.166
0
LINE
8
Black
10
183.134
20
-146.166
11
182.991
21
-145.594
0
LINE
8
Black
10
182.991
20
-145.594
11
182.991
21
-144.88
0
LINE
8
Black
10
182.991
20
-144.88
11
183.134
21
-144.309
0
LINE
8
Black
10
183.134
20
-144.309
11
183.277
21
-144.023
0
LINE
8
Black
10
183.277
20
-144.023
11
183.42
21
-143.88
0
LINE
8
Black
10
183.42
20
-143.88
11
183.706
21
-143.737
0
LINE
8
Black
10
185.706
20
-143.737
11
187.563
21
-143.737
0
LINE
8
Black
10
187.563
20
-143.737
11
186.563
21
-144.88
0
LINE
8
Black
10
186.563
20
-144.88
11
186.991
21
-144.88
0
LINE
8
Black
10
186.991
20
-144.88
11
187.277
21
-145.023
0
LINE
8
Black
10
187.277
20
-145.023
11
187.42
21
-145.166
0
LINE
8
Black
10
187.42
20
-145.166
11
187.563
21
-145.451
0
LINE
8
Black
10
187.563
20
-145.451
11
187.563
21
-146.166
0
LINE
8
Black
10
187.563
20
-146.166
11
187.42
21
-146.451
0
LINE
8
Black
10
187.42
20
-146.451
11
187.277
21
-146.594
0
LINE
8
Black
10
187.277
20
-146.594
11
186.991
21
-146.737
0
LINE
8
Black
10
186.991
20
-146.737
11
186.134
21
-146.737
0
LINE
8
Black
10
186.134
20
-146.737
11
185.849
21
-146.594
0
LINE
8
Black
10
185.849
20
-146.594
11
185.706
21
-146.451
0
LINE
8
Black
10
188.991
20
-146.737
11
189.563
21
-146.737
0
LINE
8
Black
10
189.563
20
-146.737
11
189.849
21
-146.594
0
LINE
8
Black
10
189.849
20
-146.594
11
189.991
21
-146.451
0
LINE
8
Black
10
189.991
20
-146.451
11
190.277
21
-146.023
0
LINE
8
Black
10
190.277
20
-146.023
11
190.42
21
-145.451
0
LINE
8
Black
10
190.42
20
-145.451
11
190.42
21
-144.309
0
LINE
8
Black
10
190.42
20
-144.309
11
190.277
21
-144.023
0
LINE
8
Black
10
190.277
20
-144.023
11
190.134
21
-143.88
0
LINE
8
Black
10
190.134
20
-143.88
11
189.849
21
-143.737
0
LINE
8
Black
10
189.849
20
-143.737
11
189.277
21
-143.737
0
LINE
8
Black
10
189.277
20
-143.737
11
188.991
21
-143.88
0
LINE
8
Black
10
188.991
20
-143.88
11
188.849
21
-144.023
0
LINE
8
Black
10
188.849
20
-144.023
11
188.706
21
-144.309
0
LINE
8
Black
10
188.706
20
-144.309
11
188.706
21
-145.023
0
LINE
8
Black
10
188.706
20
-145.023
11
188.849
21
-145.309
0
LINE
8
Black
10
188.849
20
-145.309
11
188.991
21
-145.451
0
LINE
8
Black
10
188.991
20
-145.451
11
189.277
21
-145.594
0
LINE
8
Black
10
189.277
20
-145.594
11
189.849
21
-145.594
0
LINE
8
Black
10
189.849
20
-145.594
11
190.134
21
-145.451
0
LINE
8
Black
10
190.134
20
-145.451
11
190.277
21
-145.309
0
LINE
8
Black
10
190.277
20
-145.309
11
190.42
21
-145.023
0
LINE
8
Black
10
191.563
20
-143.737
11
191.563
21
-144.309
0
LINE
8
Black
10
192.706
20
-143.737
11
192.706
21
-144.309
0
LINE
8
Black
10
197.134
20
-147.88
11
196.991
21
-147.737
0
LINE
8
Black
10
196.991
20
-147.737
11
196.706
21
-147.309
0
LINE
8
Black
10
196.706
20
-147.309
11
196.563
21
-147.023
0
LINE
8
Black
10
196.563
20
-147.023
11
196.42
21
-146.594
0
LINE
8
Black
10
196.42
20
-146.594
11
196.277
21
-145.88
0
LINE
8
Black
10
196.277
20
-145.88
11
196.277
21
-145.309
0
LINE
8
Black
10
196.277
20
-145.309
11
196.42
21
-144.594
0
LINE
8
Black
10
196.42
20
-144.594
11
196.563
21
-144.166
0
LINE
8
Black
10
196.563
20
-144.166
11
196.706
21
-143.88
0
LINE
8
Black
10
196.706
20
-143.88
11
196.991
21
-143.451
0
LINE
8
Black
10
196.991
20
-143.451
11
197.134
21
-143.309
0
LINE
8
Black
10
199.849
20
-146.737
11
198.134
21
-146.737
0
LINE
8
Black
10
198.991
20
-146.737
11
198.991
21
-143.737
0
LINE
8
Black
10
198.991
20
-143.737
11
198.706
21
-144.166
0
LINE
8
Black
10
198.706
20
-144.166
11
198.42
21
-144.451
0
LINE
8
Black
10
198.42
20
-144.451
11
198.134
21
-144.594
0
LINE
8
Black
10
201.563
20
-145.023
11
201.277
21
-144.88
0
LINE
8
Black
10
201.277
20
-144.88
11
201.134
21
-144.737
0
LINE
8
Black
10
201.134
20
-144.737
11
200.991
21
-144.451
0
LINE
8
Black
10
200.991
20
-144.451
11
200.991
21
-144.309
0
LINE
8
Black
10
200.991
20
-144.309
11
201.134
21
-144.023
0
LINE
8
Black
10
201.134
20
-144.023
11
201.277
21
-143.88
0
LINE
8
Black
10
201.277
20
-143.88
11
201.563
21
-143.737
0
LINE
8
Black
10
201.563
20
-143.737
11
202.134
21
-143.737
0
LINE
8
Black
10
202.134
20
-143.737
11
202.42
21
-143.88
0
LINE
8
Black
10
202.42
20
-143.88
11
202.563
21
-144.023
0
LINE
8
Black
10
202.563
20
-144.023
11
202.706
21
-144.309
0
LINE
8
Black
10
202.706
20
-144.309
11
202.706
21
-144.451
0
LINE
8
Black
10
202.706
20
-144.451
11
202.563
21
-144.737
0
LINE
8
Black
10
202.563
20
-144.737
11
202.42
21
-144.88
0
LINE
8
Black
10
202.42
20
-144.88
11
202.134
21
-145.023
0
LINE
8
Black
10
202.134
20
-145.023
11
201.563
21
-145.023
0
LINE
8
Black
10
201.563
20
-145.023
11
201.277
21
-145.166
0
LINE
8
Black
10
201.277
20
-145.166
11
201.134
21
-145.309
0
LINE
8
Black
10
201.134
20
-145.309
11
200.991
21
-145.594
0
LINE
8
Black
10
200.991
20
-145.594
11
200.991
21
-146.166
0
LINE
8
Black
10
200.991
20
-146.166
11
201.134
21
-146.451
0
LINE
8
Black
10
201.134
20
-146.451
11
201.277
21
-146.594
0
LINE
8
Black
10
201.277
20
-146.594
11
201.563
21
-146.737
0
LINE
8
Black
10
201.563
20
-146.737
11
202.134
21
-146.737
0
LINE
8
Black
10
202.134
20
-146.737
11
202.42
21
-146.594
0
LINE
8
Black
10
202.42
20
-146.594
11
202.563
21
-146.451
0
LINE
8
Black
10
202.563
20
-146.451
11
202.706
21
-146.166
0
LINE
8
Black
10
202.706
20
-146.166
11
202.706
21
-145.594
0
LINE
8
Black
10
202.706
20
-145.594
11
202.563
21
-145.309
0
LINE
8
Black
10
202.563
20
-145.309
11
202.42
21
-145.166
0
LINE
8
Black
10
202.42
20
-145.166
11
202.134
21
-145.023
0
LINE
8
Black
10
206.277
20
-146.737
11
206.277
21
-143.737
0
LINE
8
Black
10
207.563
20
-146.737
11
207.563
21
-145.166
0
LINE
8
Black
10
207.563
20
-145.166
11
207.42
21
-144.88
0
LINE
8
Black
10
207.42
20
-144.88
11
207.134
21
-144.737
0
LINE
8
Black
10
207.134
20
-144.737
11
206.706
21
-144.737
0
LINE
8
Black
10
206.706
20
-144.737
11
206.42
21
-144.88
0
LINE
8
Black
10
206.42
20
-144.88
11
206.277
21
-145.023
0
LINE
8
Black
10
209.42
20
-146.737
11
209.134
21
-146.594
0
LINE
8
Black
10
209.134
20
-146.594
11
208.991
21
-146.451
0
LINE
8
Black
10
208.991
20
-146.451
11
208.849
21
-146.166
0
LINE
8
Black
10
208.849
20
-146.166
11
208.849
21
-145.309
0
LINE
8
Black
10
208.849
20
-145.309
11
208.991
21
-145.023
0
LINE
8
Black
10
208.991
20
-145.023
11
209.134
21
-144.88
0
LINE
8
Black
10
209.134
20
-144.88
11
209.42
21
-144.737
0
LINE
8
Black
10
209.42
20
-144.737
11
209.849
21
-144.737
0
LINE
8
Black
10
209.849
20
-144.737
11
210.134
21
-144.88
0
LINE
8
Black
10
210.134
20
-144.88
11
210.277
21
-145.023
0
LINE
8
Black
10
210.277
20
-145.023
11
210.42
21
-145.309
0
LINE
8
Black
10
210.42
20
-145.309
11
210.42
21
-146.166
0
LINE
8
Black
10
210.42
20
-146.166
11
210.277
21
-146.451
0
LINE
8
Black
10
210.277
20
-146.451
11
210.134
21
-146.594
0
LINE
8
Black
10
210.134
20
-146.594
11
209.849
21
-146.737
0
LINE
8
Black
10
209.849
20
-146.737
11
209.42
21
-146.737
0
LINE
8
Black
10
212.134
20
-146.737
11
211.849
21
-146.594
0
LINE
8
Black
10
211.849
20
-146.594
11
211.706
21
-146.309
0
LINE
8
Black
10
211.706
20
-146.309
11
211.706
21
-143.737
0
LINE
8
Black
10
214.42
20
-146.594
11
214.134
21
-146.737
0
LINE
8
Black
10
214.134
20
-146.737
11
213.563
21
-146.737
0
LINE
8
Black
10
213.563
20
-146.737
11
213.277
21
-146.594
0
LINE
8
Black
10
213.277
20
-146.594
11
213.134
21
-146.309
0
LINE
8
Black
10
213.134
20
-146.309
11
213.134
21
-145.166
0
LINE
8
Black
10
213.134
20
-145.166
11
213.277
21
-144.88
0
LINE
8
Black
10
213.277
20
-144.88
11
213.563
21
-144.737
0
LINE
8
Black
10
213.563
20
-144.737
11
214.134
21
-144.737
0
LINE
8
Black
10
214.134
20
-144.737
11
214.42
21
-144.88
0
LINE
8
Black
10
214.42
20
-144.88
11
214.563
21
-145.166
0
LINE
8
Black
10
214.563
20
-145.166
11
214.563
21
-145.451
0
LINE
8
Black
10
214.563
20
-145.451
11
213.134
21
-145.737
0
LINE
8
Black
10
215.706
20
-146.594
11
215.991
21
-146.737
0
LINE
8
Black
10
215.991
20
-146.737
11
216.563
21
-146.737
0
LINE
8
Black
10
216.563
20
-146.737
11
216.849
21
-146.594
0
LINE
8
Black
10
216.849
20
-146.594
11
216.991
21
-146.309
0
LINE
8
Black
10
216.991
20
-146.309
11
216.991
21
-146.166
0
LINE
8
Black
10
216.991
20
-146.166
11
216.849
21
-145.88
0
LINE
8
Black
10
216.849
20
-145.88
11
216.563
21
-145.737
0
LINE
8
Black
10
216.563
20
-145.737
11
216.134
21
-145.737
0
LINE
8
Black
10
216.134
20
-145.737
11
215.849
21
-145.594
0
LINE
8
Black
10
215.849
20
-145.594
11
215.706
21
-145.309
0
LINE
8
Black
10
215.706
20
-145.309
11
215.706
21
-145.166
0
LINE
8
Black
10
215.706
20
-145.166
11
215.849
21
-144.88
0
LINE
8
Black
10
215.849
20
-144.88
11
216.134
21
-144.737
0
LINE
8
Black
10
216.134
20
-144.737
11
216.563
21
-144.737
0
LINE
8
Black
10
216.563
20
-144.737
11
216.849
21
-144.88
0
LINE
8
Black
10
217.991
20
-147.88
11
218.134
21
-147.737
0
LINE
8
Black
10
218.134
20
-147.737
11
218.42
21
-147.309
0
LINE
8
Black
10
218.42
20
-147.309
11
218.563
21
-147.023
0
LINE
8
Black
10
218.563
20
-147.023
11
218.706
21
-146.594
0
LINE
8
Black
10
218.706
20
-146.594
11
218.849
21
-145.88
0
LINE
8
Black
10
218.849
20
-145.88
11
218.849
21
-145.309
0
LINE
8
Black
10
218.849
20
-145.309
11
218.706
21
-144.594
0
LINE
8
Black
10
218.706
20
-144.594
11
218.563
21
-144.166
0
LINE
8
Black
10
218.563
20
-144.166
11
218.42
21
-143.88
0
LINE
8
Black
10
218.42
20
-143.88
11
218.134
21
-143.451
0
LINE
8
Black
10
218.134
20
-143.451
11
217.991
21
-143.309
0
LINE
8
Black
10
149.67
20
-150.09
11
150.42
21
-149.34
0
LINE
8
Black
10
150.42
20
-149.34
11
149.67
21
-148.59
0
LINE
8
Black
10
149.67
20
-148.59
11
148.92
21
-149.34
0
LINE
8
Black
10
148.92
20
-149.34
11
149.67
21
-150.09
0
LINE
8
Black
10
154.706
20
-150.697
11
152.991
21
-150.697
0
LINE
8
Black
10
153.849
20
-150.697
11
153.849
21
-147.697
0
LINE
8
Black
10
153.849
20
-147.697
11
153.563
21
-148.126
0
LINE
8
Black
10
153.563
20
-148.126
11
153.277
21
-148.411
0
LINE
8
Black
10
153.277
20
-148.411
11
152.991
21
-148.554
0
LINE
8
Black
10
155.991
20
-150.411
11
156.134
21
-150.554
0
LINE
8
Black
10
156.134
20
-150.554
11
155.991
21
-150.697
0
LINE
8
Black
10
155.991
20
-150.697
11
155.849
21
-150.554
0
LINE
8
Black
10
155.849
20
-150.554
11
155.991
21
-150.411
0
LINE
8
Black
10
155.991
20
-150.411
11
155.991
21
-150.697
0
LINE
8
Black
10
158.849
20
-147.697
11
157.42
21
-147.697
0
LINE
8
Black
10
157.42
20
-147.697
11
157.277
21
-149.126
0
LINE
8
Black
10
157.277
20
-149.126
11
157.42
21
-148.983
0
LINE
8
Black
10
157.42
20
-148.983
11
157.706
21
-148.84
0
LINE
8
Black
10
157.706
20
-148.84
11
158.42
21
-148.84
0
LINE
8
Black
10
158.42
20
-148.84
11
158.706
21
-148.983
0
LINE
8
Black
10
158.706
20
-148.983
11
158.849
21
-149.126
0
LINE
8
Black
10
158.849
20
-149.126
11
158.991
21
-149.411
0
LINE
8
Black
10
158.991
20
-149.411
11
158.991
21
-150.126
0
LINE
8
Black
10
158.991
20
-150.126
11
158.849
21
-150.411
0
LINE
8
Black
10
158.849
20
-150.411
11
158.706
21
-150.554
0
LINE
8
Black
10
158.706
20
-150.554
11
158.42
21
-150.697
0
LINE
8
Black
10
158.42
20
-150.697
11
157.706
21
-150.697
0
LINE
8
Black
10
157.706
20
-150.697
11
157.42
21
-150.554
0
LINE
8
Black
10
157.42
20
-150.554
11
157.277
21
-150.411
0
LINE
8
Black
10
160.849
20
-147.697
11
161.134
21
-147.697
0
LINE
8
Black
10
161.134
20
-147.697
11
161.42
21
-147.84
0
LINE
8
Black
10
161.42
20
-147.84
11
161.563
21
-147.983
0
LINE
8
Black
10
161.563
20
-147.983
11
161.706
21
-148.269
0
LINE
8
Black
10
161.706
20
-148.269
11
161.849
21
-148.84
0
LINE
8
Black
10
161.849
20
-148.84
11
161.849
21
-149.554
0
LINE
8
Black
10
161.849
20
-149.554
11
161.706
21
-150.126
0
LINE
8
Black
10
161.706
20
-150.126
11
161.563
21
-150.411
0
LINE
8
Black
10
161.563
20
-150.411
11
161.42
21
-150.554
0
LINE
8
Black
10
161.42
20
-150.554
11
161.134
21
-150.697
0
LINE
8
Black
10
161.134
20
-150.697
11
160.849
21
-150.697
0
LINE
8
Black
10
160.849
20
-150.697
11
160.563
21
-150.554
0
LINE
8
Black
10
160.563
20
-150.554
11
160.42
21
-150.411
0
LINE
8
Black
10
160.42
20
-150.411
11
160.277
21
-150.126
0
LINE
8
Black
10
160.277
20
-150.126
11
160.134
21
-149.554
0
LINE
8
Black
10
160.134
20
-149.554
11
160.134
21
-148.84
0
LINE
8
Black
10
160.134
20
-148.84
11
160.277
21
-148.269
0
LINE
8
Black
10
160.277
20
-148.269
11
160.42
21
-147.983
0
LINE
8
Black
10
160.42
20
-147.983
11
160.563
21
-147.84
0
LINE
8
Black
10
160.563
20
-147.84
11
160.849
21
-147.697
0
LINE
8
Black
10
163.134
20
-150.697
11
163.134
21
-148.697
0
LINE
8
Black
10
163.134
20
-148.983
11
163.277
21
-148.84
0
LINE
8
Black
10
163.277
20
-148.84
11
163.563
21
-148.697
0
LINE
8
Black
10
163.563
20
-148.697
11
163.991
21
-148.697
0
LINE
8
Black
10
163.991
20
-148.697
11
164.277
21
-148.84
0
LINE
8
Black
10
164.277
20
-148.84
11
164.42
21
-149.126
0
LINE
8
Black
10
164.42
20
-149.126
11
164.42
21
-150.697
0
LINE
8
Black
10
164.42
20
-149.126
11
164.563
21
-148.84
0
LINE
8
Black
10
164.563
20
-148.84
11
164.849
21
-148.697
0
LINE
8
Black
10
164.849
20
-148.697
11
165.277
21
-148.697
0
LINE
8
Black
10
165.277
20
-148.697
11
165.563
21
-148.84
0
LINE
8
Black
10
165.563
20
-148.84
11
165.706
21
-149.126
0
LINE
8
Black
10
165.706
20
-149.126
11
165.706
21
-150.697
0
LINE
8
Black
10
167.134
20
-150.697
11
167.134
21
-148.697
0
LINE
8
Black
10
167.134
20
-148.983
11
167.277
21
-148.84
0
LINE
8
Black
10
167.277
20
-148.84
11
167.563
21
-148.697
0
LINE
8
Black
10
167.563
20
-148.697
11
167.991
21
-148.697
0
LINE
8
Black
10
167.991
20
-148.697
11
168.277
21
-148.84
0
LINE
8
Black
10
168.277
20
-148.84
11
168.42
21
-149.126
0
LINE
8
Black
10
168.42
20
-149.126
11
168.42
21
-150.697
0
LINE
8
Black
10
168.42
20
-149.126
11
168.563
21
-148.84
0
LINE
8
Black
10
168.563
20
-148.84
11
168.849
21
-148.697
0
LINE
8
Black
10
168.849
20
-148.697
11
169.277
21
-148.697
0
LINE
8
Black
10
169.277
20
-148.697
11
169.563
21
-148.84
0
LINE
8
Black
10
169.563
20
-148.84
11
169.706
21
-149.126
0
LINE
8
Black
10
169.706
20
-149.126
11
169.706
21
-150.697
0
LINE
8
Black
10
175.563
20
-147.554
11
172.991
21
-151.411
0
LINE
8
Black
10
179.42
20
-147.697
11
179.706
21
-147.697
0
LINE
8
Black
10
179.706
20
-147.697
11
179.991
21
-147.84
0
LINE
8
Black
10
179.991
20
-147.84
11
180.134
21
-147.983
0
LINE
8
Black
10
180.134
20
-147.983
11
180.277
21
-148.269
0
LINE
8
Black
10
180.277
20
-148.269
11
180.42
21
-148.84
0
LINE
8
Black
10
180.42
20
-148.84
11
180.42
21
-149.554
0
LINE
8
Black
10
180.42
20
-149.554
11
180.277
21
-150.126
0
LINE
8
Black
10
180.277
20
-150.126
11
180.134
21
-150.411
0
LINE
8
Black
10
180.134
20
-150.411
11
179.991
21
-150.554
0
LINE
8
Black
10
179.991
20
-150.554
11
179.706
21
-150.697
0
LINE
8
Black
10
179.706
20
-150.697
11
179.42
21
-150.697
0
LINE
8
Black
10
179.42
20
-150.697
11
179.134
21
-150.554
0
LINE
8
Black
10
179.134
20
-150.554
11
178.991
21
-150.411
0
LINE
8
Black
10
178.991
20
-150.411
11
178.849
21
-150.126
0
LINE
8
Black
10
178.849
20
-150.126
11
178.706
21
-149.554
0
LINE
8
Black
10
178.706
20
-149.554
11
178.706
21
-148.84
0
LINE
8
Black
10
178.706
20
-148.84
11
178.849
21
-148.269
0
LINE
8
Black
10
178.849
20
-148.269
11
178.991
21
-147.983
0
LINE
8
Black
10
178.991
20
-147.983
11
179.134
21
-147.84
0
LINE
8
Black
10
179.134
20
-147.84
11
179.42
21
-147.697
0
LINE
8
Black
10
181.706
20
-150.411
11
181.849
21
-150.554
0
LINE
8
Black
10
181.849
20
-150.554
11
181.706
21
-150.697
0
LINE
8
Black
10
181.706
20
-150.697
11
181.563
21
-150.554
0
LINE
8
Black
10
181.563
20
-150.554
11
181.706
21
-150.411
0
LINE
8
Black
10
181.706
20
-150.411
11
181.706
21
-150.697
0
LINE
8
Black
10
183.706
20
-147.697
11
183.991
21
-147.697
0
LINE
8
Black
10
183.991
20
-147.697
11
184.277
21
-147.84
0
LINE
8
Black
10
184.277
20
-147.84
11
184.42
21
-147.983
0
LINE
8
Black
10
184.42
20
-147.983
11
184.563
21
-148.269
0
LINE
8
Black
10
184.563
20
-148.269
11
184.706
21
-148.84
0
LINE
8
Black
10
184.706
20
-148.84
11
184.706
21
-149.554
0
LINE
8
Black
10
184.706
20
-149.554
11
184.563
21
-150.126
0
LINE
8
Black
10
184.563
20
-150.126
11
184.42
21
-150.411
0
LINE
8
Black
10
184.42
20
-150.411
11
184.277
21
-150.554
0
LINE
8
Black
10
184.277
20
-150.554
11
183.991
21
-150.697
0
LINE
8
Black
10
183.991
20
-150.697
11
183.706
21
-150.697
0
LINE
8
Black
10
183.706
20
-150.697
11
183.42
21
-150.554
0
LINE
8
Black
10
183.42
20
-150.554
11
183.277
21
-150.411
0
LINE
8
Black
10
183.277
20
-150.411
11
183.134
21
-150.126
0
LINE
8
Black
10
183.134
20
-150.126
11
182.991
21
-149.554
0
LINE
8
Black
10
182.991
20
-149.554
11
182.991
21
-148.84
0
LINE
8
Black
10
182.991
20
-148.84
11
183.134
21
-148.269
0
LINE
8
Black
10
183.134
20
-148.269
11
183.277
21
-147.983
0
LINE
8
Black
10
183.277
20
-147.983
11
183.42
21
-147.84
0
LINE
8
Black
10
183.42
20
-147.84
11
183.706
21
-147.697
0
LINE
8
Black
10
187.42
20
-147.697
11
185.991
21
-147.697
0
LINE
8
Black
10
185.991
20
-147.697
11
185.849
21
-149.126
0
LINE
8
Black
10
185.849
20
-149.126
11
185.991
21
-148.983
0
LINE
8
Black
10
185.991
20
-148.983
11
186.277
21
-148.84
0
LINE
8
Black
10
186.277
20
-148.84
11
186.991
21
-148.84
0
LINE
8
Black
10
186.991
20
-148.84
11
187.277
21
-148.983
0
LINE
8
Black
10
187.277
20
-148.983
11
187.42
21
-149.126
0
LINE
8
Black
10
187.42
20
-149.126
11
187.563
21
-149.411
0
LINE
8
Black
10
187.563
20
-149.411
11
187.563
21
-150.126
0
LINE
8
Black
10
187.563
20
-150.126
11
187.42
21
-150.411
0
LINE
8
Black
10
187.42
20
-150.411
11
187.277
21
-150.554
0
LINE
8
Black
10
187.277
20
-150.554
11
186.991
21
-150.697
0
LINE
8
Black
10
186.991
20
-150.697
11
186.277
21
-150.697
0
LINE
8
Black
10
186.277
20
-150.697
11
185.991
21
-150.554
0
LINE
8
Black
10
185.991
20
-150.554
11
185.849
21
-150.411
0
LINE
8
Black
10
188.991
20
-150.697
11
189.563
21
-150.697
0
LINE
8
Black
10
189.563
20
-150.697
11
189.849
21
-150.554
0
LINE
8
Black
10
189.849
20
-150.554
11
189.991
21
-150.411
0
LINE
8
Black
10
189.991
20
-150.411
11
190.277
21
-149.983
0
LINE
8
Black
10
190.277
20
-149.983
11
190.42
21
-149.411
0
LINE
8
Black
10
190.42
20
-149.411
11
190.42
21
-148.269
0
LINE
8
Black
10
190.42
20
-148.269
11
190.277
21
-147.983
0
LINE
8
Black
10
190.277
20
-147.983
11
190.134
21
-147.84
0
LINE
8
Black
10
190.134
20
-147.84
11
189.849
21
-147.697
0
LINE
8
Black
10
189.849
20
-147.697
11
189.277
21
-147.697
0
LINE
8
Black
10
189.277
20
-147.697
11
188.991
21
-147.84
0
LINE
8
Black
10
188.991
20
-147.84
11
188.849
21
-147.983
0
LINE
8
Black
10
188.849
20
-147.983
11
188.706
21
-148.269
0
LINE
8
Black
10
188.706
20
-148.269
11
188.706
21
-148.983
0
LINE
8
Black
10
188.706
20
-148.983
11
188.849
21
-149.269
0
LINE
8
Black
10
188.849
20
-149.269
11
188.991
21
-149.411
0
LINE
8
Black
10
188.991
20
-149.411
11
189.277
21
-149.554
0
LINE
8
Black
10
189.277
20
-149.554
11
189.849
21
-149.554
0
LINE
8
Black
10
189.849
20
-149.554
11
190.134
21
-149.411
0
LINE
8
Black
10
190.134
20
-149.411
11
190.277
21
-149.269
0
LINE
8
Black
10
190.277
20
-149.269
11
190.42
21
-148.983
0
LINE
8
Black
10
191.563
20
-147.697
11
191.563
21
-148.269
0
LINE
8
Black
10
192.706
20
-147.697
11
192.706
21
-148.269
0
LINE
8
Black
10
197.134
20
-151.84
11
196.991
21
-151.697
0
LINE
8
Black
10
196.991
20
-151.697
11
196.706
21
-151.269
0
LINE
8
Black
10
196.706
20
-151.269
11
196.563
21
-150.983
0
LINE
8
Black
10
196.563
20
-150.983
11
196.42
21
-150.554
0
LINE
8
Black
10
196.42
20
-150.554
11
196.277
21
-149.84
0
LINE
8
Black
10
196.277
20
-149.84
11
196.277
21
-149.269
0
LINE
8
Black
10
196.277
20
-149.269
11
196.42
21
-148.554
0
LINE
8
Black
10
196.42
20
-148.554
11
196.563
21
-148.126
0
LINE
8
Black
10
196.563
20
-148.126
11
196.706
21
-147.84
0
LINE
8
Black
10
196.706
20
-147.84
11
196.991
21
-147.411
0
LINE
8
Black
10
196.991
20
-147.411
11
197.134
21
-147.269
0
LINE
8
Black
10
198.849
20
-147.697
11
199.134
21
-147.697
0
LINE
8
Black
10
199.134
20
-147.697
11
199.42
21
-147.84
0
LINE
8
Black
10
199.42
20
-147.84
11
199.563
21
-147.983
0
LINE
8
Black
10
199.563
20
-147.983
11
199.706
21
-148.269
0
LINE
8
Black
10
199.706
20
-148.269
11
199.849
21
-148.84
0
LINE
8
Black
10
199.849
20
-148.84
11
199.849
21
-149.554
0
LINE
8
Black
10
199.849
20
-149.554
11
199.706
21
-150.126
0
LINE
8
Black
10
199.706
20
-150.126
11
199.563
21
-150.411
0
LINE
8
Black
10
199.563
20
-150.411
11
199.42
21
-150.554
0
LINE
8
Black
10
199.42
20
-150.554
11
199.134
21
-150.697
0
LINE
8
Black
10
199.134
20
-150.697
11
198.849
21
-150.697
0
LINE
8
Black
10
198.849
20
-150.697
11
198.563
21
-150.554
0
LINE
8
Black
10
198.563
20
-150.554
11
198.42
21
-150.411
0
LINE
8
Black
10
198.42
20
-150.411
11
198.277
21
-150.126
0
LINE
8
Black
10
198.277
20
-150.126
11
198.134
21
-149.554
0
LINE
8
Black
10
198.134
20
-149.554
11
198.134
21
-148.84
0
LINE
8
Black
10
198.134
20
-148.84
11
198.277
21
-148.269
0
LINE
8
Black
10
198.277
20
-148.269
11
198.42
21
-147.983
0
LINE
8
Black
10
198.42
20
-147.983
11
198.563
21
-147.84
0
LINE
8
Black
10
198.563
20
-147.84
11
198.849
21
-147.697
0
LINE
8
Black
10
203.42
20
-150.697
11
203.42
21
-147.697
0
LINE
8
Black
10
204.706
20
-150.697
11
204.706
21
-149.126
0
LINE
8
Black
10
204.706
20
-149.126
11
204.563
21
-148.84
0
LINE
8
Black
10
204.563
20
-148.84
11
204.277
21
-148.697
0
LINE
8
Black
10
204.277
20
-148.697
11
203.849
21
-148.697
0
LINE
8
Black
10
203.849
20
-148.697
11
203.563
21
-148.84
0
LINE
8
Black
10
203.563
20
-148.84
11
203.42
21
-148.983
0
LINE
8
Black
10
206.563
20
-150.697
11
206.277
21
-150.554
0
LINE
8
Black
10
206.277
20
-150.554
11
206.134
21
-150.411
0
LINE
8
Black
10
206.134
20
-150.411
11
205.991
21
-150.126
0
LINE
8
Black
10
205.991
20
-150.126
11
205.991
21
-149.269
0
LINE
8
Black
10
205.991
20
-149.269
11
206.134
21
-148.983
0
LINE
8
Black
10
206.134
20
-148.983
11
206.277
21
-148.84
0
LINE
8
Black
10
206.277
20
-148.84
11
206.563
21
-148.697
0
LINE
8
Black
10
206.563
20
-148.697
11
206.991
21
-148.697
0
LINE
8
Black
10
206.991
20
-148.697
11
207.277
21
-148.84
0
LINE
8
Black
10
207.277
20
-148.84
11
207.42
21
-148.983
0
LINE
8
Black
10
207.42
20
-148.983
11
207.563
21
-149.269
0
LINE
8
Black
10
207.563
20
-149.269
11
207.563
21
-150.126
0
LINE
8
Black
10
207.563
20
-150.126
11
207.42
21
-150.411
0
LINE
8
Black
10
207.42
20
-150.411
11
207.277
21
-150.554
0
LINE
8
Black
10
207.277
20
-150.554
11
206.991
21
-150.697
0
LINE
8
Black
10
206.991
20
-150.697
11
206.563
21
-150.697
0
LINE
8
Black
10
209.277
20
-150.697
11
208.991
21
-150.554
0
LINE
8
Black
10
208.991
20
-150.554
11
208.849
21
-150.269
0
LINE
8
Black
10
208.849
20
-150.269
11
208.849
21
-147.697
0
LINE
8
Black
10
211.563
20
-150.554
11
211.277
21
-150.697
0
LINE
8
Black
10
211.277
20
-150.697
11
210.706
21
-150.697
0
LINE
8
Black
10
210.706
20
-150.697
11
210.42
21
-150.554
0
LINE
8
Black
10
210.42
20
-150.554
11
210.277
21
-150.269
0
LINE
8
Black
10
210.277
20
-150.269
11
210.277
21
-149.126
0
LINE
8
Black
10
210.277
20
-149.126
11
210.42
21
-148.84
0
LINE
8
Black
10
210.42
20
-148.84
11
210.706
21
-148.697
0
LINE
8
Black
10
210.706
20
-148.697
11
211.277
21
-148.697
0
LINE
8
Black
10
211.277
20
-148.697
11
211.563
21
-148.84
0
LINE
8
Black
10
211.563
20
-148.84
11
211.706
21
-149.126
0
LINE
8
Black
10
211.706
20
-149.126
11
211.706
21
-149.411
0
LINE
8
Black
10
211.706
20
-149.411
11
210.277
21
-149.697
0
LINE
8
Black
10
212.849
20
-150.554
11
213.134
21
-150.697
0
LINE
8
Black
10
213.134
20
-150.697
11
213.706
21
-150.697
0
LINE
8
Black
10
213.706
20
-150.697
11
213.991
21
-150.554
0
LINE
8
Black
10
213.991
20
-150.554
11
214.134
21
-150.269
0
LINE
8
Black
10
214.134
20
-150.269
11
214.134
21
-150.126
0
LINE
8
Black
10
214.134
20
-150.126
11
213.991
21
-149.84
0
LINE
8
Black
10
213.991
20
-149.84
11
213.706
21
-149.697
0
LINE
8
Black
10
213.706
20
-149.697
11
213.277
21
-149.697
0
LINE
8
Black
10
213.277
20
-149.697
11
212.991
21
-149.554
0
LINE
8
Black
10
212.991
20
-149.554
11
212.849
21
-149.269
0
LINE
8
Black
10
212.849
20
-149.269
11
212.849
21
-149.126
0
LINE
8
Black
10
212.849
20
-149.126
11
212.991
21
-148.84
0
LINE
8
Black
10
212.991
20
-148.84
11
213.277
21
-148.697
0
LINE
8
Black
10
213.277
20
-148.697
11
213.706
21
-148.697
0
LINE
8
Black
10
213.706
20
-148.697
11
213.991
21
-148.84
0
LINE
8
Black
10
217.706
20
-149.554
11
219.991
21
-149.554
0
LINE
8
Black
10
218.849
20
-150.697
11
218.849
21
-148.411
0
LINE
8
Black
10
223.563
20
-147.983
11
223.706
21
-147.84
0
LINE
8
Black
10
223.706
20
-147.84
11
223.991
21
-147.697
0
LINE
8
Black
10
223.991
20
-147.697
11
224.706
21
-147.697
0
LINE
8
Black
10
224.706
20
-147.697
11
224.991
21
-147.84
0
LINE
8
Black
10
224.991
20
-147.84
11
225.134
21
-147.983
0
LINE
8
Black
10
225.134
20
-147.983
11
225.277
21
-148.269
0
LINE
8
Black
10
225.277
20
-148.269
11
225.277
21
-148.554
0
LINE
8
Black
10
225.277
20
-148.554
11
225.134
21
-148.983
0
LINE
8
Black
10
225.134
20
-148.983
11
223.42
21
-150.697
0
LINE
8
Black
10
223.42
20
-150.697
11
225.277
21
-150.697
0
LINE
8
Black
10
228.706
20
-150.554
11
228.991
21
-150.697
0
LINE
8
Black
10
228.991
20
-150.697
11
229.563
21
-150.697
0
LINE
8
Black
10
229.563
20
-150.697
11
229.849
21
-150.554
0
LINE
8
Black
10
229.849
20
-150.554
11
229.991
21
-150.269
0
LINE
8
Black
10
229.991
20
-150.269
11
229.991
21
-150.126
0
LINE
8
Black
10
229.991
20
-150.126
11
229.849
21
-149.84
0
LINE
8
Black
10
229.849
20
-149.84
11
229.563
21
-149.697
0
LINE
8
Black
10
229.563
20
-149.697
11
229.134
21
-149.697
0
LINE
8
Black
10
229.134
20
-149.697
11
228.849
21
-149.554
0
LINE
8
Black
10
228.849
20
-149.554
11
228.706
21
-149.269
0
LINE
8
Black
10
228.706
20
-149.269
11
228.706
21
-149.126
0
LINE
8
Black
10
228.706
20
-149.126
11
228.849
21
-148.84
0
LINE
8
Black
10
228.849
20
-148.84
11
229.134
21
-148.697
0
LINE
8
Black
10
229.134
20
-148.697
11
229.563
21
-148.697
0
LINE
8
Black
10
229.563
20
-148.697
11
229.849
21
-148.84
0
LINE
8
Black
10
231.706
20
-150.697
11
231.42
21
-150.554
0
LINE
8
Black
10
231.42
20
-150.554
11
231.277
21
-150.269
0
LINE
8
Black
10
231.277
20
-150.269
11
231.277
21
-147.697
0
LINE
8
Black
10
233.277
20
-150.697
11
232.991
21
-150.554
0
LINE
8
Black
10
232.991
20
-150.554
11
232.849
21
-150.411
0
LINE
8
Black
10
232.849
20
-150.411
11
232.706
21
-150.126
0
LINE
8
Black
10
232.706
20
-150.126
11
232.706
21
-149.269
0
LINE
8
Black
10
232.706
20
-149.269
11
232.849
21
-148.983
0
LINE
8
Black
10
232.849
20
-148.983
11
232.991
21
-148.84
0
LINE
8
Black
10
232.991
20
-148.84
11
233.277
21
-148.697
0
LINE
8
Black
10
233.277
20
-148.697
11
233.706
21
-148.697
0
LINE
8
Black
10
233.706
20
-148.697
11
233.991
21
-148.84
0
LINE
8
Black
10
233.991
20
-148.84
11
234.134
21
-148.983
0
LINE
8
Black
10
234.134
20
-148.983
11
234.277
21
-149.269
0
LINE
8
Black
10
234.277
20
-149.269
11
234.277
21
-150.126
0
LINE
8
Black
10
234.277
20
-150.126
11
234.134
21
-150.411
0
LINE
8
Black
10
234.134
20
-150.411
11
233.991
21
-150.554
0
LINE
8
Black
10
233.991
20
-150.554
11
233.706
21
-150.697
0
LINE
8
Black
10
233.706
20
-150.697
11
233.277
21
-150.697
0
LINE
8
Black
10
235.134
20
-148.697
11
236.277
21
-148.697
0
LINE
8
Black
10
235.563
20
-147.697
11
235.563
21
-150.269
0
LINE
8
Black
10
235.563
20
-150.269
11
235.706
21
-150.554
0
LINE
8
Black
10
235.706
20
-150.554
11
235.991
21
-150.697
0
LINE
8
Black
10
235.991
20
-150.697
11
236.277
21
-150.697
0
LINE
8
Black
10
237.134
20
-150.554
11
237.42
21
-150.697
0
LINE
8
Black
10
237.42
20
-150.697
11
237.991
21
-150.697
0
LINE
8
Black
10
237.991
20
-150.697
11
238.277
21
-150.554
0
LINE
8
Black
10
238.277
20
-150.554
11
238.42
21
-150.269
0
LINE
8
Black
10
238.42
20
-150.269
11
238.42
21
-150.126
0
LINE
8
Black
10
238.42
20
-150.126
11
238.277
21
-149.84
0
LINE
8
Black
10
238.277
20
-149.84
11
237.991
21
-149.697
0
LINE
8
Black
10
237.991
20
-149.697
11
237.563
21
-149.697
0
LINE
8
Black
10
237.563
20
-149.697
11
237.277
21
-149.554
0
LINE
8
Black
10
237.277
20
-149.554
11
237.134
21
-149.269
0
LINE
8
Black
10
237.134
20
-149.269
11
237.134
21
-149.126
0
LINE
8
Black
10
237.134
20
-149.126
11
237.277
21
-148.84
0
LINE
8
Black
10
237.277
20
-148.84
11
237.563
21
-148.697
0
LINE
8
Black
10
237.563
20
-148.697
11
237.991
21
-148.697
0
LINE
8
Black
10
237.991
20
-148.697
11
238.277
21
-148.84
0
LINE
8
Black
10
239.42
20
-151.84
11
239.563
21
-151.697
0
LINE
8
Black
10
239.563
20
-151.697
11
239.849
21
-151.269
0
LINE
8
Black
10
239.849
20
-151.269
11
239.991
21
-150.983
0
LINE
8
Black
10
239.991
20
-150.983
11
240.134
21
-150.554
0
LINE
8
Black
10
240.134
20
-150.554
11
240.277
21
-149.84
0
LINE
8
Black
10
240.277
20
-149.84
11
240.277
21
-149.269
0
LINE
8
Black
10
240.277
20
-149.269
11
240.134
21
-148.554
0
LINE
8
Black
10
240.134
20
-148.554
11
239.991
21
-148.126
0
LINE
8
Black
10
239.991
20
-148.126
11
239.849
21
-147.84
0
LINE
8
Black
10
239.849
20
-147.84
11
239.563
21
-147.411
0
LINE
8
Black
10
239.563
20
-147.411
11
239.42
21
-147.269
  0
ENDSEC
  0
EOF
