%TF.GenerationSoftware,KiCad,Pcbnew,(5.0.2)-1*%
%TF.CreationDate,2019-05-13T13:04:59+03:00*%
%TF.ProjectId,timer,74696d65-722e-46b6-9963-61645f706362,rev?*%
%TF.SameCoordinates,Original*%
%TF.FileFunction,Soldermask,Top*%
%TF.FilePolarity,Negative*%
%FSLAX46Y46*%
G04 Gerber Fmt 4.6, Leading zero omitted, Abs format (unit mm)*
G04 Created by KiCad (PCBNEW (5.0.2)-1) date 13.05.2019 13:04:59*
%MOMM*%
%LPD*%
G01*
G04 APERTURE LIST*
%ADD10C,0.150000*%
%ADD11C,0.100000*%
G04 APERTURE END LIST*
D10*
X54102000Y-32004000D02*
X62230000Y-32004000D01*
X54102000Y-24892000D02*
X54102000Y-32004000D01*
X34798000Y-32004000D02*
X34798000Y-24892000D01*
X26670000Y-32004000D02*
X34798000Y-32004000D01*
X62230000Y-74422000D02*
X54864000Y-74422000D01*
X54864000Y-74422000D02*
X54864000Y-83058000D01*
X34036000Y-74422000D02*
X34036000Y-83058000D01*
X26670000Y-74422000D02*
X34036000Y-74422000D01*
X26670000Y-74422000D02*
X26670000Y-32004000D01*
X54864000Y-83058000D02*
X34036000Y-83058000D01*
X62230000Y-32004000D02*
X62230000Y-74422000D01*
X34798000Y-24892000D02*
X54102000Y-24892000D01*
D11*
G36*
X47632000Y-82325000D02*
X44032000Y-82325000D01*
X44032000Y-79925000D01*
X47632000Y-79925000D01*
X47632000Y-82325000D01*
X47632000Y-82325000D01*
G37*
G36*
X53182026Y-76871115D02*
X53400412Y-76961573D01*
X53596958Y-77092901D01*
X53764099Y-77260042D01*
X53895427Y-77456588D01*
X53985885Y-77674974D01*
X54032000Y-77906809D01*
X54032000Y-78143191D01*
X53985885Y-78375026D01*
X53895427Y-78593412D01*
X53764099Y-78789958D01*
X53596958Y-78957099D01*
X53400412Y-79088427D01*
X53182026Y-79178885D01*
X52950191Y-79225000D01*
X52713809Y-79225000D01*
X52481974Y-79178885D01*
X52263588Y-79088427D01*
X52067042Y-78957099D01*
X51899901Y-78789958D01*
X51768573Y-78593412D01*
X51678115Y-78375026D01*
X51632000Y-78143191D01*
X51632000Y-77906809D01*
X51678115Y-77674974D01*
X51768573Y-77456588D01*
X51899901Y-77260042D01*
X52067042Y-77092901D01*
X52263588Y-76961573D01*
X52481974Y-76871115D01*
X52713809Y-76825000D01*
X52950191Y-76825000D01*
X53182026Y-76871115D01*
X53182026Y-76871115D01*
G37*
G36*
X38682026Y-71871115D02*
X38900412Y-71961573D01*
X39096958Y-72092901D01*
X39264099Y-72260042D01*
X39395427Y-72456588D01*
X39485885Y-72674974D01*
X39532000Y-72906809D01*
X39532000Y-73143191D01*
X39485885Y-73375026D01*
X39395427Y-73593412D01*
X39264099Y-73789958D01*
X39096958Y-73957099D01*
X38900412Y-74088427D01*
X38728790Y-74159515D01*
X38707179Y-74171066D01*
X38688237Y-74186612D01*
X38672691Y-74205554D01*
X38661140Y-74227164D01*
X38654027Y-74250614D01*
X38651625Y-74275000D01*
X38654027Y-74299386D01*
X38661140Y-74322835D01*
X38672691Y-74344446D01*
X38688237Y-74363388D01*
X38707179Y-74378934D01*
X38728790Y-74390485D01*
X38900412Y-74461573D01*
X39096958Y-74592901D01*
X39264099Y-74760042D01*
X39395427Y-74956588D01*
X39485885Y-75174974D01*
X39532000Y-75406809D01*
X39532000Y-75643191D01*
X39485885Y-75875026D01*
X39395427Y-76093412D01*
X39264099Y-76289958D01*
X39096958Y-76457099D01*
X38891907Y-76594110D01*
X38888239Y-76596071D01*
X38869298Y-76611618D01*
X38853754Y-76630561D01*
X38842204Y-76652172D01*
X38835092Y-76675622D01*
X38832692Y-76700008D01*
X38835095Y-76724395D01*
X38842210Y-76747843D01*
X38853763Y-76769453D01*
X38869310Y-76788394D01*
X38888253Y-76803938D01*
X38909864Y-76815488D01*
X38933314Y-76822600D01*
X38957692Y-76825000D01*
X39532000Y-76825000D01*
X39532000Y-79225000D01*
X37132000Y-79225000D01*
X37132000Y-76825000D01*
X37706308Y-76825000D01*
X37730694Y-76822598D01*
X37754143Y-76815485D01*
X37775754Y-76803934D01*
X37794696Y-76788388D01*
X37810242Y-76769446D01*
X37821793Y-76747835D01*
X37828906Y-76724386D01*
X37831308Y-76700000D01*
X37828906Y-76675614D01*
X37821793Y-76652165D01*
X37810242Y-76630554D01*
X37794696Y-76611612D01*
X37775754Y-76596066D01*
X37772085Y-76594105D01*
X37567042Y-76457099D01*
X37399901Y-76289958D01*
X37268573Y-76093412D01*
X37178115Y-75875026D01*
X37132000Y-75643191D01*
X37132000Y-75406809D01*
X37178115Y-75174974D01*
X37268573Y-74956588D01*
X37399901Y-74760042D01*
X37567042Y-74592901D01*
X37763588Y-74461573D01*
X37935210Y-74390485D01*
X37956821Y-74378934D01*
X37975763Y-74363388D01*
X37991309Y-74344446D01*
X38002860Y-74322836D01*
X38009973Y-74299386D01*
X38012375Y-74275000D01*
X38009973Y-74250614D01*
X38002860Y-74227165D01*
X37991309Y-74205554D01*
X37975763Y-74186612D01*
X37956821Y-74171066D01*
X37935210Y-74159515D01*
X37763588Y-74088427D01*
X37567042Y-73957099D01*
X37399901Y-73789958D01*
X37268573Y-73593412D01*
X37178115Y-73375026D01*
X37132000Y-73143191D01*
X37132000Y-72906809D01*
X37178115Y-72674974D01*
X37268573Y-72456588D01*
X37399901Y-72260042D01*
X37567042Y-72092901D01*
X37763588Y-71961573D01*
X37981974Y-71871115D01*
X38213809Y-71825000D01*
X38450191Y-71825000D01*
X38682026Y-71871115D01*
X38682026Y-71871115D01*
G37*
G36*
X53182026Y-71871115D02*
X53400412Y-71961573D01*
X53596958Y-72092901D01*
X53764099Y-72260042D01*
X53895427Y-72456588D01*
X53985885Y-72674974D01*
X54032000Y-72906809D01*
X54032000Y-73143191D01*
X53985885Y-73375026D01*
X53895427Y-73593412D01*
X53764099Y-73789958D01*
X53596958Y-73957099D01*
X53400412Y-74088427D01*
X53182026Y-74178885D01*
X52950191Y-74225000D01*
X52713809Y-74225000D01*
X52481974Y-74178885D01*
X52263588Y-74088427D01*
X52067042Y-73957099D01*
X51899901Y-73789958D01*
X51768573Y-73593412D01*
X51678115Y-73375026D01*
X51632000Y-73143191D01*
X51632000Y-72906809D01*
X51678115Y-72674974D01*
X51768573Y-72456588D01*
X51899901Y-72260042D01*
X52067042Y-72092901D01*
X52263588Y-71961573D01*
X52481974Y-71871115D01*
X52713809Y-71825000D01*
X52950191Y-71825000D01*
X53182026Y-71871115D01*
X53182026Y-71871115D01*
G37*
G36*
X47632000Y-71125000D02*
X44032000Y-71125000D01*
X44032000Y-68725000D01*
X47632000Y-68725000D01*
X47632000Y-71125000D01*
X47632000Y-71125000D01*
G37*
G36*
X46675452Y-63067127D02*
X46813105Y-63094508D01*
X46985994Y-63166121D01*
X47141590Y-63270087D01*
X47273913Y-63402410D01*
X47377879Y-63558006D01*
X47449492Y-63730895D01*
X47486000Y-63914433D01*
X47486000Y-64101567D01*
X47449492Y-64285105D01*
X47377879Y-64457994D01*
X47273913Y-64613590D01*
X47141590Y-64745913D01*
X46985994Y-64849879D01*
X46813105Y-64921492D01*
X46675451Y-64948873D01*
X46629568Y-64958000D01*
X46442432Y-64958000D01*
X46396549Y-64948873D01*
X46258895Y-64921492D01*
X46086006Y-64849879D01*
X45930410Y-64745913D01*
X45798087Y-64613590D01*
X45694121Y-64457994D01*
X45622508Y-64285105D01*
X45586000Y-64101567D01*
X45586000Y-63914433D01*
X45622508Y-63730895D01*
X45694121Y-63558006D01*
X45798087Y-63402410D01*
X45930410Y-63270087D01*
X46086006Y-63166121D01*
X46258895Y-63094508D01*
X46396548Y-63067127D01*
X46442432Y-63058000D01*
X46629568Y-63058000D01*
X46675452Y-63067127D01*
X46675452Y-63067127D01*
G37*
G36*
X41795452Y-63067127D02*
X41933105Y-63094508D01*
X42105994Y-63166121D01*
X42261590Y-63270087D01*
X42393913Y-63402410D01*
X42497879Y-63558006D01*
X42569492Y-63730895D01*
X42606000Y-63914433D01*
X42606000Y-64101567D01*
X42569492Y-64285105D01*
X42497879Y-64457994D01*
X42393913Y-64613590D01*
X42261590Y-64745913D01*
X42105994Y-64849879D01*
X41933105Y-64921492D01*
X41795451Y-64948873D01*
X41749568Y-64958000D01*
X41562432Y-64958000D01*
X41516549Y-64948873D01*
X41378895Y-64921492D01*
X41206006Y-64849879D01*
X41050410Y-64745913D01*
X40918087Y-64613590D01*
X40814121Y-64457994D01*
X40742508Y-64285105D01*
X40706000Y-64101567D01*
X40706000Y-63914433D01*
X40742508Y-63730895D01*
X40814121Y-63558006D01*
X40918087Y-63402410D01*
X41050410Y-63270087D01*
X41206006Y-63166121D01*
X41378895Y-63094508D01*
X41516548Y-63067127D01*
X41562432Y-63058000D01*
X41749568Y-63058000D01*
X41795452Y-63067127D01*
X41795452Y-63067127D01*
G37*
G36*
X57659707Y-61695596D02*
X57736836Y-61703193D01*
X57868787Y-61743220D01*
X57934763Y-61763233D01*
X58117172Y-61860733D01*
X58277054Y-61991946D01*
X58408267Y-62151828D01*
X58505767Y-62334237D01*
X58505767Y-62334238D01*
X58565807Y-62532164D01*
X58586080Y-62738000D01*
X58565807Y-62943836D01*
X58531176Y-63058000D01*
X58505767Y-63141763D01*
X58408267Y-63324172D01*
X58277054Y-63484054D01*
X58117172Y-63615267D01*
X57934763Y-63712767D01*
X57875002Y-63730895D01*
X57736836Y-63772807D01*
X57659707Y-63780403D01*
X57582580Y-63788000D01*
X57479420Y-63788000D01*
X57402293Y-63780403D01*
X57325164Y-63772807D01*
X57186998Y-63730895D01*
X57127237Y-63712767D01*
X56944828Y-63615267D01*
X56784946Y-63484054D01*
X56653733Y-63324172D01*
X56556233Y-63141763D01*
X56530824Y-63058000D01*
X56496193Y-62943836D01*
X56475920Y-62738000D01*
X56496193Y-62532164D01*
X56556233Y-62334238D01*
X56556233Y-62334237D01*
X56653733Y-62151828D01*
X56784946Y-61991946D01*
X56944828Y-61860733D01*
X57127237Y-61763233D01*
X57193213Y-61743220D01*
X57325164Y-61703193D01*
X57402293Y-61695596D01*
X57479420Y-61688000D01*
X57582580Y-61688000D01*
X57659707Y-61695596D01*
X57659707Y-61695596D01*
G37*
G36*
X60199707Y-61695596D02*
X60276836Y-61703193D01*
X60408787Y-61743220D01*
X60474763Y-61763233D01*
X60657172Y-61860733D01*
X60817054Y-61991946D01*
X60948267Y-62151828D01*
X61045767Y-62334237D01*
X61045767Y-62334238D01*
X61105807Y-62532164D01*
X61126080Y-62738000D01*
X61105807Y-62943836D01*
X61071176Y-63058000D01*
X61045767Y-63141763D01*
X60948267Y-63324172D01*
X60817054Y-63484054D01*
X60657172Y-63615267D01*
X60474763Y-63712767D01*
X60415002Y-63730895D01*
X60276836Y-63772807D01*
X60199707Y-63780403D01*
X60122580Y-63788000D01*
X60019420Y-63788000D01*
X59942293Y-63780403D01*
X59865164Y-63772807D01*
X59726998Y-63730895D01*
X59667237Y-63712767D01*
X59484828Y-63615267D01*
X59324946Y-63484054D01*
X59193733Y-63324172D01*
X59096233Y-63141763D01*
X59070824Y-63058000D01*
X59036193Y-62943836D01*
X59015920Y-62738000D01*
X59036193Y-62532164D01*
X59096233Y-62334238D01*
X59096233Y-62334237D01*
X59193733Y-62151828D01*
X59324946Y-61991946D01*
X59484828Y-61860733D01*
X59667237Y-61763233D01*
X59733213Y-61743220D01*
X59865164Y-61703193D01*
X59942293Y-61695596D01*
X60019420Y-61688000D01*
X60122580Y-61688000D01*
X60199707Y-61695596D01*
X60199707Y-61695596D01*
G37*
G36*
X56041000Y-63788000D02*
X53941000Y-63788000D01*
X53941000Y-61688000D01*
X56041000Y-61688000D01*
X56041000Y-63788000D01*
X56041000Y-63788000D01*
G37*
G36*
X37593707Y-41629597D02*
X37670836Y-41637193D01*
X37802787Y-41677220D01*
X37868763Y-41697233D01*
X38051172Y-41794733D01*
X38211054Y-41925946D01*
X38342267Y-42085828D01*
X38439767Y-42268237D01*
X38439767Y-42268238D01*
X38499807Y-42466164D01*
X38520080Y-42672000D01*
X38499807Y-42877836D01*
X38468156Y-42982175D01*
X38439767Y-43075763D01*
X38342267Y-43258172D01*
X38211054Y-43418054D01*
X38051172Y-43549267D01*
X37868763Y-43646767D01*
X37802787Y-43666780D01*
X37670836Y-43706807D01*
X37593707Y-43714404D01*
X37516580Y-43722000D01*
X37413420Y-43722000D01*
X37336293Y-43714404D01*
X37259164Y-43706807D01*
X37127213Y-43666780D01*
X37061237Y-43646767D01*
X36878828Y-43549267D01*
X36718946Y-43418054D01*
X36587733Y-43258172D01*
X36490233Y-43075763D01*
X36461844Y-42982175D01*
X36430193Y-42877836D01*
X36409920Y-42672000D01*
X36430193Y-42466164D01*
X36490233Y-42268238D01*
X36490233Y-42268237D01*
X36587733Y-42085828D01*
X36718946Y-41925946D01*
X36878828Y-41794733D01*
X37061237Y-41697233D01*
X37127213Y-41677220D01*
X37259164Y-41637193D01*
X37336293Y-41629597D01*
X37413420Y-41622000D01*
X37516580Y-41622000D01*
X37593707Y-41629597D01*
X37593707Y-41629597D01*
G37*
G36*
X41055000Y-43722000D02*
X38955000Y-43722000D01*
X38955000Y-41622000D01*
X41055000Y-41622000D01*
X41055000Y-43722000D01*
X41055000Y-43722000D01*
G37*
G36*
X28446224Y-42023128D02*
X28578175Y-42063155D01*
X28699781Y-42128155D01*
X28806370Y-42215630D01*
X28893845Y-42322219D01*
X28958845Y-42443825D01*
X28998872Y-42575776D01*
X29012387Y-42713000D01*
X28998872Y-42850224D01*
X28958845Y-42982175D01*
X28893845Y-43103781D01*
X28806370Y-43210370D01*
X28699781Y-43297845D01*
X28578175Y-43362845D01*
X28446224Y-43402872D01*
X28343390Y-43413000D01*
X27724610Y-43413000D01*
X27621776Y-43402872D01*
X27489825Y-43362845D01*
X27368219Y-43297845D01*
X27261630Y-43210370D01*
X27174155Y-43103781D01*
X27109155Y-42982175D01*
X27069128Y-42850224D01*
X27055613Y-42713000D01*
X27069128Y-42575776D01*
X27109155Y-42443825D01*
X27174155Y-42322219D01*
X27261630Y-42215630D01*
X27368219Y-42128155D01*
X27489825Y-42063155D01*
X27621776Y-42023128D01*
X27724610Y-42013000D01*
X28343390Y-42013000D01*
X28446224Y-42023128D01*
X28446224Y-42023128D01*
G37*
G36*
X30866322Y-40897767D02*
X30993560Y-40936364D01*
X31110823Y-40999042D01*
X31162214Y-41041218D01*
X31213604Y-41083392D01*
X31213606Y-41083395D01*
X31297958Y-41186176D01*
X31360636Y-41303439D01*
X31399233Y-41430677D01*
X31409000Y-41529841D01*
X31409000Y-41896158D01*
X31399233Y-41995322D01*
X31360636Y-42122561D01*
X31297958Y-42239824D01*
X31213606Y-42342606D01*
X31110824Y-42426958D01*
X30993561Y-42489636D01*
X30866323Y-42528233D01*
X30734000Y-42541266D01*
X30601678Y-42528233D01*
X30474440Y-42489636D01*
X30357177Y-42426958D01*
X30305786Y-42384782D01*
X30254396Y-42342608D01*
X30237663Y-42322219D01*
X30170042Y-42239824D01*
X30107364Y-42122561D01*
X30068767Y-41995323D01*
X30059000Y-41896159D01*
X30059000Y-41529842D01*
X30068767Y-41430678D01*
X30107364Y-41303440D01*
X30170042Y-41186177D01*
X30214460Y-41132054D01*
X30254392Y-41083396D01*
X30274474Y-41066915D01*
X30357176Y-40999042D01*
X30474439Y-40936364D01*
X30601677Y-40897767D01*
X30734000Y-40884734D01*
X30866322Y-40897767D01*
X30866322Y-40897767D01*
G37*
G36*
X57659707Y-39343596D02*
X57736836Y-39351193D01*
X57868787Y-39391220D01*
X57934763Y-39411233D01*
X58117172Y-39508733D01*
X58277054Y-39639946D01*
X58408267Y-39799828D01*
X58505767Y-39982237D01*
X58505767Y-39982238D01*
X58565807Y-40180164D01*
X58586080Y-40386000D01*
X58565807Y-40591836D01*
X58525780Y-40723787D01*
X58505767Y-40789763D01*
X58408267Y-40972172D01*
X58277054Y-41132054D01*
X58117172Y-41263267D01*
X57934763Y-41360767D01*
X57868787Y-41380780D01*
X57736836Y-41420807D01*
X57659707Y-41428404D01*
X57582580Y-41436000D01*
X57479420Y-41436000D01*
X57402293Y-41428404D01*
X57325164Y-41420807D01*
X57193213Y-41380780D01*
X57127237Y-41360767D01*
X56944828Y-41263267D01*
X56784946Y-41132054D01*
X56653733Y-40972172D01*
X56556233Y-40789763D01*
X56536220Y-40723787D01*
X56496193Y-40591836D01*
X56475920Y-40386000D01*
X56496193Y-40180164D01*
X56556233Y-39982238D01*
X56556233Y-39982237D01*
X56653733Y-39799828D01*
X56784946Y-39639946D01*
X56944828Y-39508733D01*
X57127237Y-39411233D01*
X57193213Y-39391220D01*
X57325164Y-39351193D01*
X57402293Y-39343596D01*
X57479420Y-39336000D01*
X57582580Y-39336000D01*
X57659707Y-39343596D01*
X57659707Y-39343596D01*
G37*
G36*
X55119707Y-39343596D02*
X55196836Y-39351193D01*
X55328787Y-39391220D01*
X55394763Y-39411233D01*
X55577172Y-39508733D01*
X55737054Y-39639946D01*
X55868267Y-39799828D01*
X55965767Y-39982237D01*
X55965767Y-39982238D01*
X56025807Y-40180164D01*
X56046080Y-40386000D01*
X56025807Y-40591836D01*
X55985780Y-40723787D01*
X55965767Y-40789763D01*
X55868267Y-40972172D01*
X55737054Y-41132054D01*
X55577172Y-41263267D01*
X55394763Y-41360767D01*
X55328787Y-41380780D01*
X55196836Y-41420807D01*
X55119707Y-41428404D01*
X55042580Y-41436000D01*
X54939420Y-41436000D01*
X54862293Y-41428404D01*
X54785164Y-41420807D01*
X54653213Y-41380780D01*
X54587237Y-41360767D01*
X54404828Y-41263267D01*
X54244946Y-41132054D01*
X54113733Y-40972172D01*
X54016233Y-40789763D01*
X53996220Y-40723787D01*
X53956193Y-40591836D01*
X53935920Y-40386000D01*
X53956193Y-40180164D01*
X54016233Y-39982238D01*
X54016233Y-39982237D01*
X54113733Y-39799828D01*
X54244946Y-39639946D01*
X54404828Y-39508733D01*
X54587237Y-39411233D01*
X54653213Y-39391220D01*
X54785164Y-39351193D01*
X54862293Y-39343596D01*
X54939420Y-39336000D01*
X55042580Y-39336000D01*
X55119707Y-39343596D01*
X55119707Y-39343596D01*
G37*
G36*
X53501000Y-41436000D02*
X51401000Y-41436000D01*
X51401000Y-39336000D01*
X53501000Y-39336000D01*
X53501000Y-41436000D01*
X53501000Y-41436000D01*
G37*
G36*
X60199707Y-39343596D02*
X60276836Y-39351193D01*
X60408787Y-39391220D01*
X60474763Y-39411233D01*
X60657172Y-39508733D01*
X60817054Y-39639946D01*
X60948267Y-39799828D01*
X61045767Y-39982237D01*
X61045767Y-39982238D01*
X61105807Y-40180164D01*
X61126080Y-40386000D01*
X61105807Y-40591836D01*
X61065780Y-40723787D01*
X61045767Y-40789763D01*
X60948267Y-40972172D01*
X60817054Y-41132054D01*
X60657172Y-41263267D01*
X60474763Y-41360767D01*
X60408787Y-41380780D01*
X60276836Y-41420807D01*
X60199707Y-41428404D01*
X60122580Y-41436000D01*
X60019420Y-41436000D01*
X59942293Y-41428404D01*
X59865164Y-41420807D01*
X59733213Y-41380780D01*
X59667237Y-41360767D01*
X59484828Y-41263267D01*
X59324946Y-41132054D01*
X59193733Y-40972172D01*
X59096233Y-40789763D01*
X59076220Y-40723787D01*
X59036193Y-40591836D01*
X59015920Y-40386000D01*
X59036193Y-40180164D01*
X59096233Y-39982238D01*
X59096233Y-39982237D01*
X59193733Y-39799828D01*
X59324946Y-39639946D01*
X59484828Y-39508733D01*
X59667237Y-39411233D01*
X59733213Y-39391220D01*
X59865164Y-39351193D01*
X59942293Y-39343596D01*
X60019420Y-39336000D01*
X60122580Y-39336000D01*
X60199707Y-39343596D01*
X60199707Y-39343596D01*
G37*
G36*
X30866322Y-35897767D02*
X30993560Y-35936364D01*
X31110823Y-35999042D01*
X31162214Y-36041218D01*
X31213604Y-36083392D01*
X31213606Y-36083395D01*
X31297958Y-36186176D01*
X31360636Y-36303439D01*
X31399233Y-36430677D01*
X31409000Y-36529841D01*
X31409000Y-36896158D01*
X31399233Y-36995322D01*
X31360636Y-37122561D01*
X31297958Y-37239824D01*
X31213606Y-37342606D01*
X31110824Y-37426958D01*
X30993561Y-37489636D01*
X30866323Y-37528233D01*
X30734000Y-37541266D01*
X30601678Y-37528233D01*
X30474440Y-37489636D01*
X30357177Y-37426958D01*
X30305786Y-37384782D01*
X30254396Y-37342608D01*
X30237915Y-37322526D01*
X30170042Y-37239824D01*
X30107364Y-37122561D01*
X30068767Y-36995323D01*
X30059000Y-36896159D01*
X30059000Y-36529842D01*
X30068767Y-36430678D01*
X30107364Y-36303440D01*
X30170042Y-36186177D01*
X30237664Y-36103780D01*
X30254392Y-36083396D01*
X30274474Y-36066915D01*
X30357176Y-35999042D01*
X30474439Y-35936364D01*
X30601677Y-35897767D01*
X30734000Y-35884734D01*
X30866322Y-35897767D01*
X30866322Y-35897767D01*
G37*
G36*
X39531000Y-37118000D02*
X37431000Y-37118000D01*
X37431000Y-35018000D01*
X39531000Y-35018000D01*
X39531000Y-37118000D01*
X39531000Y-37118000D01*
G37*
G36*
X41149707Y-35025597D02*
X41226836Y-35033193D01*
X41325614Y-35063157D01*
X41424763Y-35093233D01*
X41607172Y-35190733D01*
X41767054Y-35321946D01*
X41898267Y-35481828D01*
X41995767Y-35664237D01*
X41995767Y-35664238D01*
X42055807Y-35862164D01*
X42076080Y-36068000D01*
X42055807Y-36273836D01*
X42016665Y-36402871D01*
X41995767Y-36471763D01*
X41898267Y-36654172D01*
X41767054Y-36814054D01*
X41607172Y-36945267D01*
X41424763Y-37042767D01*
X41358787Y-37062780D01*
X41226836Y-37102807D01*
X41149707Y-37110403D01*
X41072580Y-37118000D01*
X40969420Y-37118000D01*
X40892293Y-37110403D01*
X40815164Y-37102807D01*
X40683213Y-37062780D01*
X40617237Y-37042767D01*
X40434828Y-36945267D01*
X40274946Y-36814054D01*
X40143733Y-36654172D01*
X40046233Y-36471763D01*
X40025335Y-36402871D01*
X39986193Y-36273836D01*
X39965920Y-36068000D01*
X39986193Y-35862164D01*
X40046233Y-35664238D01*
X40046233Y-35664237D01*
X40143733Y-35481828D01*
X40274946Y-35321946D01*
X40434828Y-35190733D01*
X40617237Y-35093233D01*
X40716386Y-35063157D01*
X40815164Y-35033193D01*
X40892293Y-35025597D01*
X40969420Y-35018000D01*
X41072580Y-35018000D01*
X41149707Y-35025597D01*
X41149707Y-35025597D01*
G37*
G36*
X28446224Y-35023128D02*
X28578175Y-35063155D01*
X28699781Y-35128155D01*
X28806370Y-35215630D01*
X28893845Y-35322219D01*
X28958845Y-35443825D01*
X28998872Y-35575776D01*
X29012387Y-35713000D01*
X28998872Y-35850224D01*
X28958845Y-35982175D01*
X28893845Y-36103781D01*
X28806370Y-36210370D01*
X28699781Y-36297845D01*
X28578175Y-36362845D01*
X28446224Y-36402872D01*
X28343390Y-36413000D01*
X27724610Y-36413000D01*
X27621776Y-36402872D01*
X27489825Y-36362845D01*
X27368219Y-36297845D01*
X27261630Y-36210370D01*
X27174155Y-36103781D01*
X27109155Y-35982175D01*
X27069128Y-35850224D01*
X27055613Y-35713000D01*
X27069128Y-35575776D01*
X27109155Y-35443825D01*
X27174155Y-35322219D01*
X27261630Y-35215630D01*
X27368219Y-35128155D01*
X27489825Y-35063155D01*
X27621776Y-35023128D01*
X27724610Y-35013000D01*
X28343390Y-35013000D01*
X28446224Y-35023128D01*
X28446224Y-35023128D01*
G37*
G36*
X43689707Y-28675596D02*
X43766836Y-28683193D01*
X43898787Y-28723220D01*
X43964763Y-28743233D01*
X44147172Y-28840733D01*
X44307054Y-28971946D01*
X44438267Y-29131828D01*
X44535767Y-29314237D01*
X44535767Y-29314238D01*
X44595807Y-29512164D01*
X44616080Y-29718000D01*
X44595807Y-29923836D01*
X44555780Y-30055787D01*
X44535767Y-30121763D01*
X44438267Y-30304172D01*
X44307054Y-30464054D01*
X44147172Y-30595267D01*
X43964763Y-30692767D01*
X43898787Y-30712780D01*
X43766836Y-30752807D01*
X43689707Y-30760404D01*
X43612580Y-30768000D01*
X43509420Y-30768000D01*
X43432293Y-30760404D01*
X43355164Y-30752807D01*
X43223213Y-30712780D01*
X43157237Y-30692767D01*
X42974828Y-30595267D01*
X42814946Y-30464054D01*
X42683733Y-30304172D01*
X42586233Y-30121763D01*
X42566220Y-30055787D01*
X42526193Y-29923836D01*
X42505920Y-29718000D01*
X42526193Y-29512164D01*
X42586233Y-29314238D01*
X42586233Y-29314237D01*
X42683733Y-29131828D01*
X42814946Y-28971946D01*
X42974828Y-28840733D01*
X43157237Y-28743233D01*
X43223213Y-28723220D01*
X43355164Y-28683193D01*
X43432293Y-28675596D01*
X43509420Y-28668000D01*
X43612580Y-28668000D01*
X43689707Y-28675596D01*
X43689707Y-28675596D01*
G37*
G36*
X41149707Y-28675596D02*
X41226836Y-28683193D01*
X41358787Y-28723220D01*
X41424763Y-28743233D01*
X41607172Y-28840733D01*
X41767054Y-28971946D01*
X41898267Y-29131828D01*
X41995767Y-29314237D01*
X41995767Y-29314238D01*
X42055807Y-29512164D01*
X42076080Y-29718000D01*
X42055807Y-29923836D01*
X42015780Y-30055787D01*
X41995767Y-30121763D01*
X41898267Y-30304172D01*
X41767054Y-30464054D01*
X41607172Y-30595267D01*
X41424763Y-30692767D01*
X41358787Y-30712780D01*
X41226836Y-30752807D01*
X41149707Y-30760404D01*
X41072580Y-30768000D01*
X40969420Y-30768000D01*
X40892293Y-30760404D01*
X40815164Y-30752807D01*
X40683213Y-30712780D01*
X40617237Y-30692767D01*
X40434828Y-30595267D01*
X40274946Y-30464054D01*
X40143733Y-30304172D01*
X40046233Y-30121763D01*
X40026220Y-30055787D01*
X39986193Y-29923836D01*
X39965920Y-29718000D01*
X39986193Y-29512164D01*
X40046233Y-29314238D01*
X40046233Y-29314237D01*
X40143733Y-29131828D01*
X40274946Y-28971946D01*
X40434828Y-28840733D01*
X40617237Y-28743233D01*
X40683213Y-28723220D01*
X40815164Y-28683193D01*
X40892293Y-28675596D01*
X40969420Y-28668000D01*
X41072580Y-28668000D01*
X41149707Y-28675596D01*
X41149707Y-28675596D01*
G37*
G36*
X49691000Y-30768000D02*
X47591000Y-30768000D01*
X47591000Y-28668000D01*
X49691000Y-28668000D01*
X49691000Y-30768000D01*
X49691000Y-30768000D01*
G37*
G36*
X46229707Y-28675596D02*
X46306836Y-28683193D01*
X46438787Y-28723220D01*
X46504763Y-28743233D01*
X46687172Y-28840733D01*
X46847054Y-28971946D01*
X46978267Y-29131828D01*
X47075767Y-29314237D01*
X47075767Y-29314238D01*
X47135807Y-29512164D01*
X47156080Y-29718000D01*
X47135807Y-29923836D01*
X47095780Y-30055787D01*
X47075767Y-30121763D01*
X46978267Y-30304172D01*
X46847054Y-30464054D01*
X46687172Y-30595267D01*
X46504763Y-30692767D01*
X46438787Y-30712780D01*
X46306836Y-30752807D01*
X46229707Y-30760404D01*
X46152580Y-30768000D01*
X46049420Y-30768000D01*
X45972293Y-30760404D01*
X45895164Y-30752807D01*
X45763213Y-30712780D01*
X45697237Y-30692767D01*
X45514828Y-30595267D01*
X45354946Y-30464054D01*
X45223733Y-30304172D01*
X45126233Y-30121763D01*
X45106220Y-30055787D01*
X45066193Y-29923836D01*
X45045920Y-29718000D01*
X45066193Y-29512164D01*
X45126233Y-29314238D01*
X45126233Y-29314237D01*
X45223733Y-29131828D01*
X45354946Y-28971946D01*
X45514828Y-28840733D01*
X45697237Y-28743233D01*
X45763213Y-28723220D01*
X45895164Y-28683193D01*
X45972293Y-28675596D01*
X46049420Y-28668000D01*
X46152580Y-28668000D01*
X46229707Y-28675596D01*
X46229707Y-28675596D01*
G37*
M02*
