%TF.GenerationSoftware,KiCad,Pcbnew,(5.0.2)-1*%
%TF.CreationDate,2019-05-13T13:04:59+03:00*%
%TF.ProjectId,timer,74696d65-722e-46b6-9963-61645f706362,rev?*%
%TF.SameCoordinates,Original*%
%TF.FileFunction,Paste,Bot*%
%TF.FilePolarity,Positive*%
%FSLAX46Y46*%
G04 Gerber Fmt 4.6, Leading zero omitted, Abs format (unit mm)*
G04 Created by KiCad (PCBNEW (5.0.2)-1) date 13.05.2019 13:04:59*
%MOMM*%
%LPD*%
G01*
G04 APERTURE LIST*
%ADD10C,0.150000*%
%ADD11R,0.600000X1.200000*%
%ADD12R,1.200000X0.600000*%
%ADD13R,1.250000X1.500000*%
%ADD14R,1.500000X1.250000*%
%ADD15R,1.200000X1.200000*%
%ADD16R,1.350000X0.400000*%
%ADD17R,1.300000X1.500000*%
%ADD18R,1.500000X1.300000*%
%ADD19R,2.000000X3.800000*%
%ADD20R,2.000000X1.500000*%
%ADD21R,0.650000X1.060000*%
%ADD22R,0.600000X1.550000*%
%ADD23C,0.100000*%
%ADD24C,1.150000*%
G04 APERTURE END LIST*
D10*
X54102000Y-32004000D02*
X62230000Y-32004000D01*
X54102000Y-24892000D02*
X54102000Y-32004000D01*
X34798000Y-32004000D02*
X34798000Y-24892000D01*
X26670000Y-32004000D02*
X34798000Y-32004000D01*
X62230000Y-74422000D02*
X54864000Y-74422000D01*
X54864000Y-74422000D02*
X54864000Y-83058000D01*
X34036000Y-74422000D02*
X34036000Y-83058000D01*
X26670000Y-74422000D02*
X34036000Y-74422000D01*
X26670000Y-74422000D02*
X26670000Y-32004000D01*
X54864000Y-83058000D02*
X34036000Y-83058000D01*
X62230000Y-32004000D02*
X62230000Y-74422000D01*
X34798000Y-24892000D02*
X54102000Y-24892000D01*
D11*
X47193000Y-55372000D03*
X46393000Y-55372000D03*
X45593000Y-55372000D03*
X44793000Y-55372000D03*
X43993000Y-55372000D03*
X43193000Y-55372000D03*
X42393000Y-55372000D03*
X41593000Y-55372000D03*
D12*
X40143000Y-53922000D03*
X40143000Y-53122000D03*
X40143000Y-52322000D03*
X40143000Y-51522000D03*
X40143000Y-50722000D03*
X40143000Y-49922000D03*
X40143000Y-49122000D03*
X40143000Y-48322000D03*
D11*
X41593000Y-46872000D03*
X42393000Y-46872000D03*
X43193000Y-46872000D03*
X43993000Y-46872000D03*
X44793000Y-46872000D03*
X45593000Y-46872000D03*
X46393000Y-46872000D03*
X47193000Y-46872000D03*
D12*
X48643000Y-48322000D03*
X48643000Y-49122000D03*
X48643000Y-49922000D03*
X48643000Y-50722000D03*
X48643000Y-51522000D03*
X48643000Y-52322000D03*
X48643000Y-53122000D03*
X48643000Y-53922000D03*
D13*
X37211000Y-48474000D03*
X37211000Y-45974000D03*
D14*
X36068000Y-35560000D03*
X33568000Y-35560000D03*
X45466000Y-59817000D03*
X47966000Y-59817000D03*
X42799000Y-59817000D03*
X40299000Y-59817000D03*
D13*
X33401000Y-40473000D03*
X33401000Y-37973000D03*
D15*
X33061000Y-61341000D03*
X30861000Y-61341000D03*
X57912000Y-34798000D03*
X60112000Y-34798000D03*
X57912000Y-37211000D03*
X60112000Y-37211000D03*
D16*
X30734000Y-40513000D03*
X30734000Y-39863000D03*
X30734000Y-39213000D03*
X30734000Y-38563000D03*
X30734000Y-37913000D03*
D17*
X51562000Y-53848000D03*
X51562000Y-51148000D03*
X29591000Y-56548000D03*
X29591000Y-53848000D03*
D18*
X32037000Y-59055000D03*
X29337000Y-59055000D03*
X54897000Y-34798000D03*
X52197000Y-34798000D03*
X54897000Y-37084000D03*
X52197000Y-37084000D03*
D19*
X28498000Y-47865000D03*
D20*
X34798000Y-47865000D03*
X34798000Y-50165000D03*
X34798000Y-45565000D03*
D21*
X31628000Y-53807000D03*
X32578000Y-53807000D03*
X33528000Y-53807000D03*
X33528000Y-56007000D03*
X31628000Y-56007000D03*
D22*
X55712360Y-52336720D03*
X56982360Y-52336720D03*
X58252360Y-52336720D03*
X59522360Y-52336720D03*
X59522360Y-57736720D03*
X58252360Y-57736720D03*
X56982360Y-57736720D03*
X55712360Y-57736720D03*
D23*
G36*
X38787865Y-57510924D02*
X38812133Y-57514524D01*
X38835932Y-57520485D01*
X38859031Y-57528750D01*
X38881210Y-57539240D01*
X38902253Y-57551852D01*
X38921959Y-57566467D01*
X38940137Y-57582943D01*
X38956613Y-57601121D01*
X38971228Y-57620827D01*
X38983840Y-57641870D01*
X38994330Y-57664049D01*
X39002595Y-57687148D01*
X39008556Y-57710947D01*
X39012156Y-57735215D01*
X39013360Y-57759719D01*
X39013360Y-58409721D01*
X39012156Y-58434225D01*
X39008556Y-58458493D01*
X39002595Y-58482292D01*
X38994330Y-58505391D01*
X38983840Y-58527570D01*
X38971228Y-58548613D01*
X38956613Y-58568319D01*
X38940137Y-58586497D01*
X38921959Y-58602973D01*
X38902253Y-58617588D01*
X38881210Y-58630200D01*
X38859031Y-58640690D01*
X38835932Y-58648955D01*
X38812133Y-58654916D01*
X38787865Y-58658516D01*
X38763361Y-58659720D01*
X37863359Y-58659720D01*
X37838855Y-58658516D01*
X37814587Y-58654916D01*
X37790788Y-58648955D01*
X37767689Y-58640690D01*
X37745510Y-58630200D01*
X37724467Y-58617588D01*
X37704761Y-58602973D01*
X37686583Y-58586497D01*
X37670107Y-58568319D01*
X37655492Y-58548613D01*
X37642880Y-58527570D01*
X37632390Y-58505391D01*
X37624125Y-58482292D01*
X37618164Y-58458493D01*
X37614564Y-58434225D01*
X37613360Y-58409721D01*
X37613360Y-57759719D01*
X37614564Y-57735215D01*
X37618164Y-57710947D01*
X37624125Y-57687148D01*
X37632390Y-57664049D01*
X37642880Y-57641870D01*
X37655492Y-57620827D01*
X37670107Y-57601121D01*
X37686583Y-57582943D01*
X37704761Y-57566467D01*
X37724467Y-57551852D01*
X37745510Y-57539240D01*
X37767689Y-57528750D01*
X37790788Y-57520485D01*
X37814587Y-57514524D01*
X37838855Y-57510924D01*
X37863359Y-57509720D01*
X38763361Y-57509720D01*
X38787865Y-57510924D01*
X38787865Y-57510924D01*
G37*
D24*
X38313360Y-58084720D03*
D23*
G36*
X38787865Y-55460924D02*
X38812133Y-55464524D01*
X38835932Y-55470485D01*
X38859031Y-55478750D01*
X38881210Y-55489240D01*
X38902253Y-55501852D01*
X38921959Y-55516467D01*
X38940137Y-55532943D01*
X38956613Y-55551121D01*
X38971228Y-55570827D01*
X38983840Y-55591870D01*
X38994330Y-55614049D01*
X39002595Y-55637148D01*
X39008556Y-55660947D01*
X39012156Y-55685215D01*
X39013360Y-55709719D01*
X39013360Y-56359721D01*
X39012156Y-56384225D01*
X39008556Y-56408493D01*
X39002595Y-56432292D01*
X38994330Y-56455391D01*
X38983840Y-56477570D01*
X38971228Y-56498613D01*
X38956613Y-56518319D01*
X38940137Y-56536497D01*
X38921959Y-56552973D01*
X38902253Y-56567588D01*
X38881210Y-56580200D01*
X38859031Y-56590690D01*
X38835932Y-56598955D01*
X38812133Y-56604916D01*
X38787865Y-56608516D01*
X38763361Y-56609720D01*
X37863359Y-56609720D01*
X37838855Y-56608516D01*
X37814587Y-56604916D01*
X37790788Y-56598955D01*
X37767689Y-56590690D01*
X37745510Y-56580200D01*
X37724467Y-56567588D01*
X37704761Y-56552973D01*
X37686583Y-56536497D01*
X37670107Y-56518319D01*
X37655492Y-56498613D01*
X37642880Y-56477570D01*
X37632390Y-56455391D01*
X37624125Y-56432292D01*
X37618164Y-56408493D01*
X37614564Y-56384225D01*
X37613360Y-56359721D01*
X37613360Y-55709719D01*
X37614564Y-55685215D01*
X37618164Y-55660947D01*
X37624125Y-55637148D01*
X37632390Y-55614049D01*
X37642880Y-55591870D01*
X37655492Y-55570827D01*
X37670107Y-55551121D01*
X37686583Y-55532943D01*
X37704761Y-55516467D01*
X37724467Y-55501852D01*
X37745510Y-55489240D01*
X37767689Y-55478750D01*
X37790788Y-55470485D01*
X37814587Y-55464524D01*
X37838855Y-55460924D01*
X37863359Y-55459720D01*
X38763361Y-55459720D01*
X38787865Y-55460924D01*
X38787865Y-55460924D01*
G37*
D24*
X38313360Y-56034720D03*
D23*
G36*
X38787865Y-61556924D02*
X38812133Y-61560524D01*
X38835932Y-61566485D01*
X38859031Y-61574750D01*
X38881210Y-61585240D01*
X38902253Y-61597852D01*
X38921959Y-61612467D01*
X38940137Y-61628943D01*
X38956613Y-61647121D01*
X38971228Y-61666827D01*
X38983840Y-61687870D01*
X38994330Y-61710049D01*
X39002595Y-61733148D01*
X39008556Y-61756947D01*
X39012156Y-61781215D01*
X39013360Y-61805719D01*
X39013360Y-62455721D01*
X39012156Y-62480225D01*
X39008556Y-62504493D01*
X39002595Y-62528292D01*
X38994330Y-62551391D01*
X38983840Y-62573570D01*
X38971228Y-62594613D01*
X38956613Y-62614319D01*
X38940137Y-62632497D01*
X38921959Y-62648973D01*
X38902253Y-62663588D01*
X38881210Y-62676200D01*
X38859031Y-62686690D01*
X38835932Y-62694955D01*
X38812133Y-62700916D01*
X38787865Y-62704516D01*
X38763361Y-62705720D01*
X37863359Y-62705720D01*
X37838855Y-62704516D01*
X37814587Y-62700916D01*
X37790788Y-62694955D01*
X37767689Y-62686690D01*
X37745510Y-62676200D01*
X37724467Y-62663588D01*
X37704761Y-62648973D01*
X37686583Y-62632497D01*
X37670107Y-62614319D01*
X37655492Y-62594613D01*
X37642880Y-62573570D01*
X37632390Y-62551391D01*
X37624125Y-62528292D01*
X37618164Y-62504493D01*
X37614564Y-62480225D01*
X37613360Y-62455721D01*
X37613360Y-61805719D01*
X37614564Y-61781215D01*
X37618164Y-61756947D01*
X37624125Y-61733148D01*
X37632390Y-61710049D01*
X37642880Y-61687870D01*
X37655492Y-61666827D01*
X37670107Y-61647121D01*
X37686583Y-61628943D01*
X37704761Y-61612467D01*
X37724467Y-61597852D01*
X37745510Y-61585240D01*
X37767689Y-61574750D01*
X37790788Y-61566485D01*
X37814587Y-61560524D01*
X37838855Y-61556924D01*
X37863359Y-61555720D01*
X38763361Y-61555720D01*
X38787865Y-61556924D01*
X38787865Y-61556924D01*
G37*
D24*
X38313360Y-62130720D03*
D23*
G36*
X38787865Y-63606924D02*
X38812133Y-63610524D01*
X38835932Y-63616485D01*
X38859031Y-63624750D01*
X38881210Y-63635240D01*
X38902253Y-63647852D01*
X38921959Y-63662467D01*
X38940137Y-63678943D01*
X38956613Y-63697121D01*
X38971228Y-63716827D01*
X38983840Y-63737870D01*
X38994330Y-63760049D01*
X39002595Y-63783148D01*
X39008556Y-63806947D01*
X39012156Y-63831215D01*
X39013360Y-63855719D01*
X39013360Y-64505721D01*
X39012156Y-64530225D01*
X39008556Y-64554493D01*
X39002595Y-64578292D01*
X38994330Y-64601391D01*
X38983840Y-64623570D01*
X38971228Y-64644613D01*
X38956613Y-64664319D01*
X38940137Y-64682497D01*
X38921959Y-64698973D01*
X38902253Y-64713588D01*
X38881210Y-64726200D01*
X38859031Y-64736690D01*
X38835932Y-64744955D01*
X38812133Y-64750916D01*
X38787865Y-64754516D01*
X38763361Y-64755720D01*
X37863359Y-64755720D01*
X37838855Y-64754516D01*
X37814587Y-64750916D01*
X37790788Y-64744955D01*
X37767689Y-64736690D01*
X37745510Y-64726200D01*
X37724467Y-64713588D01*
X37704761Y-64698973D01*
X37686583Y-64682497D01*
X37670107Y-64664319D01*
X37655492Y-64644613D01*
X37642880Y-64623570D01*
X37632390Y-64601391D01*
X37624125Y-64578292D01*
X37618164Y-64554493D01*
X37614564Y-64530225D01*
X37613360Y-64505721D01*
X37613360Y-63855719D01*
X37614564Y-63831215D01*
X37618164Y-63806947D01*
X37624125Y-63783148D01*
X37632390Y-63760049D01*
X37642880Y-63737870D01*
X37655492Y-63716827D01*
X37670107Y-63697121D01*
X37686583Y-63678943D01*
X37704761Y-63662467D01*
X37724467Y-63647852D01*
X37745510Y-63635240D01*
X37767689Y-63624750D01*
X37790788Y-63616485D01*
X37814587Y-63610524D01*
X37838855Y-63606924D01*
X37863359Y-63605720D01*
X38763361Y-63605720D01*
X38787865Y-63606924D01*
X38787865Y-63606924D01*
G37*
D24*
X38313360Y-64180720D03*
D23*
G36*
X51995865Y-47368924D02*
X52020133Y-47372524D01*
X52043932Y-47378485D01*
X52067031Y-47386750D01*
X52089210Y-47397240D01*
X52110253Y-47409852D01*
X52129959Y-47424467D01*
X52148137Y-47440943D01*
X52164613Y-47459121D01*
X52179228Y-47478827D01*
X52191840Y-47499870D01*
X52202330Y-47522049D01*
X52210595Y-47545148D01*
X52216556Y-47568947D01*
X52220156Y-47593215D01*
X52221360Y-47617719D01*
X52221360Y-48267721D01*
X52220156Y-48292225D01*
X52216556Y-48316493D01*
X52210595Y-48340292D01*
X52202330Y-48363391D01*
X52191840Y-48385570D01*
X52179228Y-48406613D01*
X52164613Y-48426319D01*
X52148137Y-48444497D01*
X52129959Y-48460973D01*
X52110253Y-48475588D01*
X52089210Y-48488200D01*
X52067031Y-48498690D01*
X52043932Y-48506955D01*
X52020133Y-48512916D01*
X51995865Y-48516516D01*
X51971361Y-48517720D01*
X51071359Y-48517720D01*
X51046855Y-48516516D01*
X51022587Y-48512916D01*
X50998788Y-48506955D01*
X50975689Y-48498690D01*
X50953510Y-48488200D01*
X50932467Y-48475588D01*
X50912761Y-48460973D01*
X50894583Y-48444497D01*
X50878107Y-48426319D01*
X50863492Y-48406613D01*
X50850880Y-48385570D01*
X50840390Y-48363391D01*
X50832125Y-48340292D01*
X50826164Y-48316493D01*
X50822564Y-48292225D01*
X50821360Y-48267721D01*
X50821360Y-47617719D01*
X50822564Y-47593215D01*
X50826164Y-47568947D01*
X50832125Y-47545148D01*
X50840390Y-47522049D01*
X50850880Y-47499870D01*
X50863492Y-47478827D01*
X50878107Y-47459121D01*
X50894583Y-47440943D01*
X50912761Y-47424467D01*
X50932467Y-47409852D01*
X50953510Y-47397240D01*
X50975689Y-47386750D01*
X50998788Y-47378485D01*
X51022587Y-47372524D01*
X51046855Y-47368924D01*
X51071359Y-47367720D01*
X51971361Y-47367720D01*
X51995865Y-47368924D01*
X51995865Y-47368924D01*
G37*
D24*
X51521360Y-47942720D03*
D23*
G36*
X51995865Y-45318924D02*
X52020133Y-45322524D01*
X52043932Y-45328485D01*
X52067031Y-45336750D01*
X52089210Y-45347240D01*
X52110253Y-45359852D01*
X52129959Y-45374467D01*
X52148137Y-45390943D01*
X52164613Y-45409121D01*
X52179228Y-45428827D01*
X52191840Y-45449870D01*
X52202330Y-45472049D01*
X52210595Y-45495148D01*
X52216556Y-45518947D01*
X52220156Y-45543215D01*
X52221360Y-45567719D01*
X52221360Y-46217721D01*
X52220156Y-46242225D01*
X52216556Y-46266493D01*
X52210595Y-46290292D01*
X52202330Y-46313391D01*
X52191840Y-46335570D01*
X52179228Y-46356613D01*
X52164613Y-46376319D01*
X52148137Y-46394497D01*
X52129959Y-46410973D01*
X52110253Y-46425588D01*
X52089210Y-46438200D01*
X52067031Y-46448690D01*
X52043932Y-46456955D01*
X52020133Y-46462916D01*
X51995865Y-46466516D01*
X51971361Y-46467720D01*
X51071359Y-46467720D01*
X51046855Y-46466516D01*
X51022587Y-46462916D01*
X50998788Y-46456955D01*
X50975689Y-46448690D01*
X50953510Y-46438200D01*
X50932467Y-46425588D01*
X50912761Y-46410973D01*
X50894583Y-46394497D01*
X50878107Y-46376319D01*
X50863492Y-46356613D01*
X50850880Y-46335570D01*
X50840390Y-46313391D01*
X50832125Y-46290292D01*
X50826164Y-46266493D01*
X50822564Y-46242225D01*
X50821360Y-46217721D01*
X50821360Y-45567719D01*
X50822564Y-45543215D01*
X50826164Y-45518947D01*
X50832125Y-45495148D01*
X50840390Y-45472049D01*
X50850880Y-45449870D01*
X50863492Y-45428827D01*
X50878107Y-45409121D01*
X50894583Y-45390943D01*
X50912761Y-45374467D01*
X50932467Y-45359852D01*
X50953510Y-45347240D01*
X50975689Y-45336750D01*
X50998788Y-45328485D01*
X51022587Y-45322524D01*
X51046855Y-45318924D01*
X51071359Y-45317720D01*
X51971361Y-45317720D01*
X51995865Y-45318924D01*
X51995865Y-45318924D01*
G37*
D24*
X51521360Y-45892720D03*
M02*
