%TF.GenerationSoftware,KiCad,Pcbnew,(5.0.2)-1*%
%TF.CreationDate,2019-05-13T13:04:59+03:00*%
%TF.ProjectId,timer,74696d65-722e-46b6-9963-61645f706362,rev?*%
%TF.SameCoordinates,Original*%
%TF.FileFunction,Legend,Bot*%
%TF.FilePolarity,Positive*%
%FSLAX46Y46*%
G04 Gerber Fmt 4.6, Leading zero omitted, Abs format (unit mm)*
G04 Created by KiCad (PCBNEW (5.0.2)-1) date 13.05.2019 13:04:59*
%MOMM*%
%LPD*%
G01*
G04 APERTURE LIST*
%ADD10C,0.150000*%
%ADD11C,0.120000*%
G04 APERTURE END LIST*
D10*
X54102000Y-32004000D02*
X62230000Y-32004000D01*
X54102000Y-24892000D02*
X54102000Y-32004000D01*
X34798000Y-32004000D02*
X34798000Y-24892000D01*
X26670000Y-32004000D02*
X34798000Y-32004000D01*
X62230000Y-74422000D02*
X54864000Y-74422000D01*
X54864000Y-74422000D02*
X54864000Y-83058000D01*
X34036000Y-74422000D02*
X34036000Y-83058000D01*
X26670000Y-74422000D02*
X34036000Y-74422000D01*
X26670000Y-74422000D02*
X26670000Y-32004000D01*
X54864000Y-83058000D02*
X34036000Y-83058000D01*
X62230000Y-32004000D02*
X62230000Y-74422000D01*
X34798000Y-24892000D02*
X54102000Y-24892000D01*
D11*
X45332000Y-75525000D02*
X46332000Y-75525000D01*
X45832000Y-76025000D02*
X45832000Y-75025000D01*
X51932000Y-72025000D02*
X51932000Y-69625000D01*
X51932000Y-76825000D02*
X51932000Y-74225000D01*
X51932000Y-81425000D02*
X51932000Y-79025000D01*
X38632000Y-79625000D02*
X38332000Y-79325000D01*
X38032000Y-79625000D02*
X38632000Y-79625000D01*
X38332000Y-79325000D02*
X38032000Y-79625000D01*
X39732000Y-81425000D02*
X39732000Y-69625000D01*
X43832000Y-81425000D02*
X39732000Y-81425000D01*
X43832000Y-69625000D02*
X39732000Y-69625000D01*
X51932000Y-69625000D02*
X47832000Y-69625000D01*
X47832000Y-81425000D02*
X51932000Y-81425000D01*
X48832000Y-75525000D02*
G75*
G03X48832000Y-75525000I-3000000J0D01*
G01*
D10*
X48018000Y-54747000D02*
X47793000Y-54747000D01*
X48018000Y-47497000D02*
X47718000Y-47497000D01*
X40768000Y-47497000D02*
X41068000Y-47497000D01*
X40768000Y-54747000D02*
X41068000Y-54747000D01*
X48018000Y-54747000D02*
X48018000Y-54447000D01*
X40768000Y-54747000D02*
X40768000Y-54447000D01*
X40768000Y-47497000D02*
X40768000Y-47797000D01*
X48018000Y-47497000D02*
X48018000Y-47797000D01*
X47793000Y-54747000D02*
X47793000Y-55972000D01*
D11*
X38061000Y-46724000D02*
X38061000Y-47724000D01*
X36361000Y-47724000D02*
X36361000Y-46724000D01*
X34318000Y-34710000D02*
X35318000Y-34710000D01*
X35318000Y-36410000D02*
X34318000Y-36410000D01*
X47216000Y-60667000D02*
X46216000Y-60667000D01*
X46216000Y-58967000D02*
X47216000Y-58967000D01*
X41049000Y-58967000D02*
X42049000Y-58967000D01*
X42049000Y-60667000D02*
X41049000Y-60667000D01*
X34251000Y-38723000D02*
X34251000Y-39723000D01*
X32551000Y-39723000D02*
X32551000Y-38723000D01*
X30161000Y-62041000D02*
X30161000Y-60641000D01*
X30161000Y-60641000D02*
X32961000Y-60641000D01*
X30161000Y-62041000D02*
X32961000Y-62041000D01*
X60812000Y-34098000D02*
X60812000Y-35498000D01*
X60812000Y-35498000D02*
X58012000Y-35498000D01*
X60812000Y-34098000D02*
X58012000Y-34098000D01*
X60812000Y-36511000D02*
X60812000Y-37911000D01*
X60812000Y-37911000D02*
X58012000Y-37911000D01*
X60812000Y-36511000D02*
X58012000Y-36511000D01*
X39691000Y-31048000D02*
X39691000Y-28388000D01*
X47371000Y-31048000D02*
X39691000Y-31048000D01*
X47371000Y-28388000D02*
X39691000Y-28388000D01*
X47371000Y-31048000D02*
X47371000Y-28388000D01*
X48641000Y-31048000D02*
X49971000Y-31048000D01*
X49971000Y-31048000D02*
X49971000Y-29718000D01*
X25354000Y-43563000D02*
X25354000Y-34863000D01*
X31764000Y-43563000D02*
X31764000Y-34863000D01*
X31764000Y-34863000D02*
X25354000Y-34863000D01*
X26584000Y-34863000D02*
X26584000Y-43563000D01*
X25354000Y-43563000D02*
X31764000Y-43563000D01*
X50682000Y-51898000D02*
X50682000Y-53098000D01*
X52442000Y-53098000D02*
X52442000Y-51898000D01*
X28711000Y-54598000D02*
X28711000Y-55798000D01*
X30471000Y-55798000D02*
X30471000Y-54598000D01*
X30087000Y-59935000D02*
X31287000Y-59935000D01*
X31287000Y-58175000D02*
X30087000Y-58175000D01*
X52947000Y-35678000D02*
X54147000Y-35678000D01*
X54147000Y-33918000D02*
X52947000Y-33918000D01*
X52947000Y-37964000D02*
X54147000Y-37964000D01*
X54147000Y-36204000D02*
X52947000Y-36204000D01*
X29738000Y-51275000D02*
X29738000Y-50015000D01*
X29738000Y-44455000D02*
X29738000Y-45715000D01*
X33498000Y-51275000D02*
X29738000Y-51275000D01*
X35748000Y-44455000D02*
X29738000Y-44455000D01*
X34188000Y-54007000D02*
X34188000Y-55807000D01*
X30968000Y-55807000D02*
X30968000Y-53357000D01*
D10*
X55042360Y-52961720D02*
X55092360Y-52961720D01*
X55042360Y-57111720D02*
X55187360Y-57111720D01*
X60192360Y-57111720D02*
X60047360Y-57111720D01*
X60192360Y-52961720D02*
X60047360Y-52961720D01*
X55042360Y-52961720D02*
X55042360Y-57111720D01*
X60192360Y-52961720D02*
X60192360Y-57111720D01*
X55092360Y-52961720D02*
X55092360Y-51561720D01*
D11*
X39023360Y-56798468D02*
X39023360Y-57320972D01*
X37603360Y-56798468D02*
X37603360Y-57320972D01*
X37603360Y-62894468D02*
X37603360Y-63416972D01*
X39023360Y-62894468D02*
X39023360Y-63416972D01*
X52231360Y-47178972D02*
X52231360Y-46656468D01*
X50811360Y-47178972D02*
X50811360Y-46656468D01*
D10*
X42989333Y-71016761D02*
X42846476Y-71064380D01*
X42608380Y-71064380D01*
X42513142Y-71016761D01*
X42465523Y-70969142D01*
X42417904Y-70873904D01*
X42417904Y-70778666D01*
X42465523Y-70683428D01*
X42513142Y-70635809D01*
X42608380Y-70588190D01*
X42798857Y-70540571D01*
X42894095Y-70492952D01*
X42941714Y-70445333D01*
X42989333Y-70350095D01*
X42989333Y-70254857D01*
X42941714Y-70159619D01*
X42894095Y-70112000D01*
X42798857Y-70064380D01*
X42560761Y-70064380D01*
X42417904Y-70112000D01*
X42084571Y-70064380D02*
X41846476Y-71064380D01*
X41656000Y-70350095D01*
X41465523Y-71064380D01*
X41227428Y-70064380D01*
X40322666Y-71064380D02*
X40894095Y-71064380D01*
X40608380Y-71064380D02*
X40608380Y-70064380D01*
X40703619Y-70207238D01*
X40798857Y-70302476D01*
X40894095Y-70350095D01*
X48220380Y-45720095D02*
X49029904Y-45720095D01*
X49125142Y-45767714D01*
X49172761Y-45815333D01*
X49220380Y-45910571D01*
X49220380Y-46101047D01*
X49172761Y-46196285D01*
X49125142Y-46243904D01*
X49029904Y-46291523D01*
X48220380Y-46291523D01*
X48220380Y-46672476D02*
X48220380Y-47291523D01*
X48601333Y-46958190D01*
X48601333Y-47101047D01*
X48648952Y-47196285D01*
X48696571Y-47243904D01*
X48791809Y-47291523D01*
X49029904Y-47291523D01*
X49125142Y-47243904D01*
X49172761Y-47196285D01*
X49220380Y-47101047D01*
X49220380Y-46815333D01*
X49172761Y-46720095D01*
X49125142Y-46672476D01*
X39219142Y-46569333D02*
X39266761Y-46521714D01*
X39314380Y-46378857D01*
X39314380Y-46283619D01*
X39266761Y-46140761D01*
X39171523Y-46045523D01*
X39076285Y-45997904D01*
X38885809Y-45950285D01*
X38742952Y-45950285D01*
X38552476Y-45997904D01*
X38457238Y-46045523D01*
X38362000Y-46140761D01*
X38314380Y-46283619D01*
X38314380Y-46378857D01*
X38362000Y-46521714D01*
X38409619Y-46569333D01*
X39314380Y-47521714D02*
X39314380Y-46950285D01*
X39314380Y-47236000D02*
X38314380Y-47236000D01*
X38457238Y-47140761D01*
X38552476Y-47045523D01*
X38600095Y-46950285D01*
X34984666Y-34167142D02*
X35032285Y-34214761D01*
X35175142Y-34262380D01*
X35270380Y-34262380D01*
X35413238Y-34214761D01*
X35508476Y-34119523D01*
X35556095Y-34024285D01*
X35603714Y-33833809D01*
X35603714Y-33690952D01*
X35556095Y-33500476D01*
X35508476Y-33405238D01*
X35413238Y-33310000D01*
X35270380Y-33262380D01*
X35175142Y-33262380D01*
X35032285Y-33310000D01*
X34984666Y-33357619D01*
X34603714Y-33357619D02*
X34556095Y-33310000D01*
X34460857Y-33262380D01*
X34222761Y-33262380D01*
X34127523Y-33310000D01*
X34079904Y-33357619D01*
X34032285Y-33452857D01*
X34032285Y-33548095D01*
X34079904Y-33690952D01*
X34651333Y-34262380D01*
X34032285Y-34262380D01*
X46882666Y-61924142D02*
X46930285Y-61971761D01*
X47073142Y-62019380D01*
X47168380Y-62019380D01*
X47311238Y-61971761D01*
X47406476Y-61876523D01*
X47454095Y-61781285D01*
X47501714Y-61590809D01*
X47501714Y-61447952D01*
X47454095Y-61257476D01*
X47406476Y-61162238D01*
X47311238Y-61067000D01*
X47168380Y-61019380D01*
X47073142Y-61019380D01*
X46930285Y-61067000D01*
X46882666Y-61114619D01*
X46549333Y-61019380D02*
X45930285Y-61019380D01*
X46263619Y-61400333D01*
X46120761Y-61400333D01*
X46025523Y-61447952D01*
X45977904Y-61495571D01*
X45930285Y-61590809D01*
X45930285Y-61828904D01*
X45977904Y-61924142D01*
X46025523Y-61971761D01*
X46120761Y-62019380D01*
X46406476Y-62019380D01*
X46501714Y-61971761D01*
X46549333Y-61924142D01*
X41715666Y-58424142D02*
X41763285Y-58471761D01*
X41906142Y-58519380D01*
X42001380Y-58519380D01*
X42144238Y-58471761D01*
X42239476Y-58376523D01*
X42287095Y-58281285D01*
X42334714Y-58090809D01*
X42334714Y-57947952D01*
X42287095Y-57757476D01*
X42239476Y-57662238D01*
X42144238Y-57567000D01*
X42001380Y-57519380D01*
X41906142Y-57519380D01*
X41763285Y-57567000D01*
X41715666Y-57614619D01*
X40858523Y-57852714D02*
X40858523Y-58519380D01*
X41096619Y-57471761D02*
X41334714Y-58186047D01*
X40715666Y-58186047D01*
X35508142Y-39056333D02*
X35555761Y-39008714D01*
X35603380Y-38865857D01*
X35603380Y-38770619D01*
X35555761Y-38627761D01*
X35460523Y-38532523D01*
X35365285Y-38484904D01*
X35174809Y-38437285D01*
X35031952Y-38437285D01*
X34841476Y-38484904D01*
X34746238Y-38532523D01*
X34651000Y-38627761D01*
X34603380Y-38770619D01*
X34603380Y-38865857D01*
X34651000Y-39008714D01*
X34698619Y-39056333D01*
X34603380Y-39961095D02*
X34603380Y-39484904D01*
X35079571Y-39437285D01*
X35031952Y-39484904D01*
X34984333Y-39580142D01*
X34984333Y-39818238D01*
X35031952Y-39913476D01*
X35079571Y-39961095D01*
X35174809Y-40008714D01*
X35412904Y-40008714D01*
X35508142Y-39961095D01*
X35555761Y-39913476D01*
X35603380Y-39818238D01*
X35603380Y-39580142D01*
X35555761Y-39484904D01*
X35508142Y-39437285D01*
X32699095Y-63444380D02*
X32699095Y-62444380D01*
X32461000Y-62444380D01*
X32318142Y-62492000D01*
X32222904Y-62587238D01*
X32175285Y-62682476D01*
X32127666Y-62872952D01*
X32127666Y-63015809D01*
X32175285Y-63206285D01*
X32222904Y-63301523D01*
X32318142Y-63396761D01*
X32461000Y-63444380D01*
X32699095Y-63444380D01*
X31175285Y-63444380D02*
X31746714Y-63444380D01*
X31461000Y-63444380D02*
X31461000Y-62444380D01*
X31556238Y-62587238D01*
X31651476Y-62682476D01*
X31746714Y-62730095D01*
X59750095Y-33800380D02*
X59750095Y-32800380D01*
X59512000Y-32800380D01*
X59369142Y-32848000D01*
X59273904Y-32943238D01*
X59226285Y-33038476D01*
X59178666Y-33228952D01*
X59178666Y-33371809D01*
X59226285Y-33562285D01*
X59273904Y-33657523D01*
X59369142Y-33752761D01*
X59512000Y-33800380D01*
X59750095Y-33800380D01*
X58797714Y-32895619D02*
X58750095Y-32848000D01*
X58654857Y-32800380D01*
X58416761Y-32800380D01*
X58321523Y-32848000D01*
X58273904Y-32895619D01*
X58226285Y-32990857D01*
X58226285Y-33086095D01*
X58273904Y-33228952D01*
X58845333Y-33800380D01*
X58226285Y-33800380D01*
X59666095Y-39314380D02*
X59666095Y-38314380D01*
X59428000Y-38314380D01*
X59285142Y-38362000D01*
X59189904Y-38457238D01*
X59142285Y-38552476D01*
X59094666Y-38742952D01*
X59094666Y-38885809D01*
X59142285Y-39076285D01*
X59189904Y-39171523D01*
X59285142Y-39266761D01*
X59428000Y-39314380D01*
X59666095Y-39314380D01*
X58761333Y-38314380D02*
X58142285Y-38314380D01*
X58475619Y-38695333D01*
X58332761Y-38695333D01*
X58237523Y-38742952D01*
X58189904Y-38790571D01*
X58142285Y-38885809D01*
X58142285Y-39123904D01*
X58189904Y-39219142D01*
X58237523Y-39266761D01*
X58332761Y-39314380D01*
X58618476Y-39314380D01*
X58713714Y-39266761D01*
X58761333Y-39219142D01*
X50423380Y-29384666D02*
X51137666Y-29384666D01*
X51280523Y-29337047D01*
X51375761Y-29241809D01*
X51423380Y-29098952D01*
X51423380Y-29003714D01*
X50518619Y-29813238D02*
X50471000Y-29860857D01*
X50423380Y-29956095D01*
X50423380Y-30194190D01*
X50471000Y-30289428D01*
X50518619Y-30337047D01*
X50613857Y-30384666D01*
X50709095Y-30384666D01*
X50851952Y-30337047D01*
X51423380Y-29765619D01*
X51423380Y-30384666D01*
X31321333Y-33234380D02*
X31321333Y-33948666D01*
X31368952Y-34091523D01*
X31464190Y-34186761D01*
X31607047Y-34234380D01*
X31702285Y-34234380D01*
X30940380Y-33234380D02*
X30321333Y-33234380D01*
X30654666Y-33615333D01*
X30511809Y-33615333D01*
X30416571Y-33662952D01*
X30368952Y-33710571D01*
X30321333Y-33805809D01*
X30321333Y-34043904D01*
X30368952Y-34139142D01*
X30416571Y-34186761D01*
X30511809Y-34234380D01*
X30797523Y-34234380D01*
X30892761Y-34186761D01*
X30940380Y-34139142D01*
X53714380Y-52331333D02*
X53238190Y-51998000D01*
X53714380Y-51759904D02*
X52714380Y-51759904D01*
X52714380Y-52140857D01*
X52762000Y-52236095D01*
X52809619Y-52283714D01*
X52904857Y-52331333D01*
X53047714Y-52331333D01*
X53142952Y-52283714D01*
X53190571Y-52236095D01*
X53238190Y-52140857D01*
X53238190Y-51759904D01*
X53714380Y-53283714D02*
X53714380Y-52712285D01*
X53714380Y-52998000D02*
X52714380Y-52998000D01*
X52857238Y-52902761D01*
X52952476Y-52807523D01*
X53000095Y-52712285D01*
X28392380Y-54951333D02*
X27916190Y-54618000D01*
X28392380Y-54379904D02*
X27392380Y-54379904D01*
X27392380Y-54760857D01*
X27440000Y-54856095D01*
X27487619Y-54903714D01*
X27582857Y-54951333D01*
X27725714Y-54951333D01*
X27820952Y-54903714D01*
X27868571Y-54856095D01*
X27916190Y-54760857D01*
X27916190Y-54379904D01*
X27392380Y-55284666D02*
X27392380Y-55903714D01*
X27773333Y-55570380D01*
X27773333Y-55713238D01*
X27820952Y-55808476D01*
X27868571Y-55856095D01*
X27963809Y-55903714D01*
X28201904Y-55903714D01*
X28297142Y-55856095D01*
X28344761Y-55808476D01*
X28392380Y-55713238D01*
X28392380Y-55427523D01*
X28344761Y-55332285D01*
X28297142Y-55284666D01*
X34202666Y-59380380D02*
X34536000Y-58904190D01*
X34774095Y-59380380D02*
X34774095Y-58380380D01*
X34393142Y-58380380D01*
X34297904Y-58428000D01*
X34250285Y-58475619D01*
X34202666Y-58570857D01*
X34202666Y-58713714D01*
X34250285Y-58808952D01*
X34297904Y-58856571D01*
X34393142Y-58904190D01*
X34774095Y-58904190D01*
X33345523Y-58713714D02*
X33345523Y-59380380D01*
X33583619Y-58332761D02*
X33821714Y-59047047D01*
X33202666Y-59047047D01*
X53713666Y-33726380D02*
X54047000Y-33250190D01*
X54285095Y-33726380D02*
X54285095Y-32726380D01*
X53904142Y-32726380D01*
X53808904Y-32774000D01*
X53761285Y-32821619D01*
X53713666Y-32916857D01*
X53713666Y-33059714D01*
X53761285Y-33154952D01*
X53808904Y-33202571D01*
X53904142Y-33250190D01*
X54285095Y-33250190D01*
X53142238Y-33154952D02*
X53237476Y-33107333D01*
X53285095Y-33059714D01*
X53332714Y-32964476D01*
X53332714Y-32916857D01*
X53285095Y-32821619D01*
X53237476Y-32774000D01*
X53142238Y-32726380D01*
X52951761Y-32726380D01*
X52856523Y-32774000D01*
X52808904Y-32821619D01*
X52761285Y-32916857D01*
X52761285Y-32964476D01*
X52808904Y-33059714D01*
X52856523Y-33107333D01*
X52951761Y-33154952D01*
X53142238Y-33154952D01*
X53237476Y-33202571D01*
X53285095Y-33250190D01*
X53332714Y-33345428D01*
X53332714Y-33535904D01*
X53285095Y-33631142D01*
X53237476Y-33678761D01*
X53142238Y-33726380D01*
X52951761Y-33726380D01*
X52856523Y-33678761D01*
X52808904Y-33631142D01*
X52761285Y-33535904D01*
X52761285Y-33345428D01*
X52808904Y-33250190D01*
X52856523Y-33202571D01*
X52951761Y-33154952D01*
X53760666Y-39314380D02*
X54094000Y-38838190D01*
X54332095Y-39314380D02*
X54332095Y-38314380D01*
X53951142Y-38314380D01*
X53855904Y-38362000D01*
X53808285Y-38409619D01*
X53760666Y-38504857D01*
X53760666Y-38647714D01*
X53808285Y-38742952D01*
X53855904Y-38790571D01*
X53951142Y-38838190D01*
X54332095Y-38838190D01*
X53284476Y-39314380D02*
X53094000Y-39314380D01*
X52998761Y-39266761D01*
X52951142Y-39219142D01*
X52855904Y-39076285D01*
X52808285Y-38885809D01*
X52808285Y-38504857D01*
X52855904Y-38409619D01*
X52903523Y-38362000D01*
X52998761Y-38314380D01*
X53189238Y-38314380D01*
X53284476Y-38362000D01*
X53332095Y-38409619D01*
X53379714Y-38504857D01*
X53379714Y-38742952D01*
X53332095Y-38838190D01*
X53284476Y-38885809D01*
X53189238Y-38933428D01*
X52998761Y-38933428D01*
X52903523Y-38885809D01*
X52855904Y-38838190D01*
X52808285Y-38742952D01*
X35305904Y-42817380D02*
X35305904Y-43626904D01*
X35258285Y-43722142D01*
X35210666Y-43769761D01*
X35115428Y-43817380D01*
X34924952Y-43817380D01*
X34829714Y-43769761D01*
X34782095Y-43722142D01*
X34734476Y-43626904D01*
X34734476Y-42817380D01*
X33734476Y-43817380D02*
X34305904Y-43817380D01*
X34020190Y-43817380D02*
X34020190Y-42817380D01*
X34115428Y-42960238D01*
X34210666Y-43055476D01*
X34305904Y-43103095D01*
X34504380Y-54145095D02*
X35313904Y-54145095D01*
X35409142Y-54192714D01*
X35456761Y-54240333D01*
X35504380Y-54335571D01*
X35504380Y-54526047D01*
X35456761Y-54621285D01*
X35409142Y-54668904D01*
X35313904Y-54716523D01*
X34504380Y-54716523D01*
X34504380Y-55668904D02*
X34504380Y-55192714D01*
X34980571Y-55145095D01*
X34932952Y-55192714D01*
X34885333Y-55287952D01*
X34885333Y-55526047D01*
X34932952Y-55621285D01*
X34980571Y-55668904D01*
X35075809Y-55716523D01*
X35313904Y-55716523D01*
X35409142Y-55668904D01*
X35456761Y-55621285D01*
X35504380Y-55526047D01*
X35504380Y-55287952D01*
X35456761Y-55192714D01*
X35409142Y-55145095D01*
X53569740Y-54274815D02*
X54379264Y-54274815D01*
X54474502Y-54322434D01*
X54522121Y-54370053D01*
X54569740Y-54465291D01*
X54569740Y-54655767D01*
X54522121Y-54751005D01*
X54474502Y-54798624D01*
X54379264Y-54846243D01*
X53569740Y-54846243D01*
X53664979Y-55274815D02*
X53617360Y-55322434D01*
X53569740Y-55417672D01*
X53569740Y-55655767D01*
X53617360Y-55751005D01*
X53664979Y-55798624D01*
X53760217Y-55846243D01*
X53855455Y-55846243D01*
X53998312Y-55798624D01*
X54569740Y-55227196D01*
X54569740Y-55846243D01*
X37115740Y-56893053D02*
X36639550Y-56559720D01*
X37115740Y-56321624D02*
X36115740Y-56321624D01*
X36115740Y-56702577D01*
X36163360Y-56797815D01*
X36210979Y-56845434D01*
X36306217Y-56893053D01*
X36449074Y-56893053D01*
X36544312Y-56845434D01*
X36591931Y-56797815D01*
X36639550Y-56702577D01*
X36639550Y-56321624D01*
X36115740Y-57797815D02*
X36115740Y-57321624D01*
X36591931Y-57274005D01*
X36544312Y-57321624D01*
X36496693Y-57416862D01*
X36496693Y-57654958D01*
X36544312Y-57750196D01*
X36591931Y-57797815D01*
X36687169Y-57845434D01*
X36925264Y-57845434D01*
X37020502Y-57797815D01*
X37068121Y-57750196D01*
X37115740Y-57654958D01*
X37115740Y-57416862D01*
X37068121Y-57321624D01*
X37020502Y-57274005D01*
X37115740Y-62989053D02*
X36639550Y-62655720D01*
X37115740Y-62417624D02*
X36115740Y-62417624D01*
X36115740Y-62798577D01*
X36163360Y-62893815D01*
X36210979Y-62941434D01*
X36306217Y-62989053D01*
X36449074Y-62989053D01*
X36544312Y-62941434D01*
X36591931Y-62893815D01*
X36639550Y-62798577D01*
X36639550Y-62417624D01*
X36115740Y-63846196D02*
X36115740Y-63655720D01*
X36163360Y-63560481D01*
X36210979Y-63512862D01*
X36353836Y-63417624D01*
X36544312Y-63370005D01*
X36925264Y-63370005D01*
X37020502Y-63417624D01*
X37068121Y-63465243D01*
X37115740Y-63560481D01*
X37115740Y-63750958D01*
X37068121Y-63846196D01*
X37020502Y-63893815D01*
X36925264Y-63941434D01*
X36687169Y-63941434D01*
X36591931Y-63893815D01*
X36544312Y-63846196D01*
X36496693Y-63750958D01*
X36496693Y-63560481D01*
X36544312Y-63465243D01*
X36591931Y-63417624D01*
X36687169Y-63370005D01*
X53623740Y-46751053D02*
X53147550Y-46417720D01*
X53623740Y-46179624D02*
X52623740Y-46179624D01*
X52623740Y-46560577D01*
X52671360Y-46655815D01*
X52718979Y-46703434D01*
X52814217Y-46751053D01*
X52957074Y-46751053D01*
X53052312Y-46703434D01*
X53099931Y-46655815D01*
X53147550Y-46560577D01*
X53147550Y-46179624D01*
X52718979Y-47132005D02*
X52671360Y-47179624D01*
X52623740Y-47274862D01*
X52623740Y-47512958D01*
X52671360Y-47608196D01*
X52718979Y-47655815D01*
X52814217Y-47703434D01*
X52909455Y-47703434D01*
X53052312Y-47655815D01*
X53623740Y-47084386D01*
X53623740Y-47703434D01*
M02*
