%TF.GenerationSoftware,KiCad,Pcbnew,(5.0.2)-1*%
%TF.CreationDate,2019-05-13T13:04:59+03:00*%
%TF.ProjectId,timer,74696d65-722e-46b6-9963-61645f706362,rev?*%
%TF.SameCoordinates,Original*%
%TF.FileFunction,Legend,Top*%
%TF.FilePolarity,Positive*%
%FSLAX46Y46*%
G04 Gerber Fmt 4.6, Leading zero omitted, Abs format (unit mm)*
G04 Created by KiCad (PCBNEW (5.0.2)-1) date 13.05.2019 13:04:59*
%MOMM*%
%LPD*%
G01*
G04 APERTURE LIST*
%ADD10C,0.150000*%
%ADD11C,0.120000*%
G04 APERTURE END LIST*
D10*
X54102000Y-32004000D02*
X62230000Y-32004000D01*
X54102000Y-24892000D02*
X54102000Y-32004000D01*
X34798000Y-32004000D02*
X34798000Y-24892000D01*
X26670000Y-32004000D02*
X34798000Y-32004000D01*
X62230000Y-74422000D02*
X54864000Y-74422000D01*
X54864000Y-74422000D02*
X54864000Y-83058000D01*
X34036000Y-74422000D02*
X34036000Y-83058000D01*
X26670000Y-74422000D02*
X34036000Y-74422000D01*
X26670000Y-74422000D02*
X26670000Y-32004000D01*
X54864000Y-83058000D02*
X34036000Y-83058000D01*
X62230000Y-32004000D02*
X62230000Y-74422000D01*
X34798000Y-24892000D02*
X54102000Y-24892000D01*
D11*
X61401000Y-64068000D02*
X61401000Y-61408000D01*
X56261000Y-64068000D02*
X61401000Y-64068000D01*
X56261000Y-61408000D02*
X61401000Y-61408000D01*
X56261000Y-64068000D02*
X56261000Y-61408000D01*
X54991000Y-64068000D02*
X53661000Y-64068000D01*
X53661000Y-64068000D02*
X53661000Y-62738000D01*
X61401000Y-41716000D02*
X61401000Y-39056000D01*
X53721000Y-41716000D02*
X61401000Y-41716000D01*
X53721000Y-39056000D02*
X61401000Y-39056000D01*
X53721000Y-41716000D02*
X53721000Y-39056000D01*
X52451000Y-41716000D02*
X51121000Y-41716000D01*
X51121000Y-41716000D02*
X51121000Y-40386000D01*
X36135000Y-41342000D02*
X36135000Y-44002000D01*
X38735000Y-41342000D02*
X36135000Y-41342000D01*
X38735000Y-44002000D02*
X36135000Y-44002000D01*
X38735000Y-41342000D02*
X38735000Y-44002000D01*
X40005000Y-41342000D02*
X41335000Y-41342000D01*
X41335000Y-41342000D02*
X41335000Y-42672000D01*
X42351000Y-37398000D02*
X42351000Y-34738000D01*
X39751000Y-37398000D02*
X42351000Y-37398000D01*
X39751000Y-34738000D02*
X42351000Y-34738000D01*
X39751000Y-37398000D02*
X39751000Y-34738000D01*
X38481000Y-37398000D02*
X37151000Y-37398000D01*
X37151000Y-37398000D02*
X37151000Y-36068000D01*
X40896000Y-61483000D02*
X47296000Y-61483000D01*
X40896000Y-66533000D02*
X47296000Y-66533000D01*
X40896000Y-66533000D02*
G75*
G02X40896000Y-61483000I0J2525000D01*
G01*
X47296000Y-66533000D02*
G75*
G03X47296000Y-61483000I0J2525000D01*
G01*
D10*
X52113380Y-63071333D02*
X52827666Y-63071333D01*
X52970523Y-63118952D01*
X53065761Y-63214190D01*
X53113380Y-63357047D01*
X53113380Y-63452285D01*
X53113380Y-62071333D02*
X53113380Y-62642761D01*
X53113380Y-62357047D02*
X52113380Y-62357047D01*
X52256238Y-62452285D01*
X52351476Y-62547523D01*
X52399095Y-62642761D01*
X49573380Y-40719333D02*
X50287666Y-40719333D01*
X50430523Y-40766952D01*
X50525761Y-40862190D01*
X50573380Y-41005047D01*
X50573380Y-41100285D01*
X49906714Y-39814571D02*
X50573380Y-39814571D01*
X49525761Y-40052666D02*
X50240047Y-40290761D01*
X50240047Y-39671714D01*
X41787380Y-43005333D02*
X42501666Y-43005333D01*
X42644523Y-43052952D01*
X42739761Y-43148190D01*
X42787380Y-43291047D01*
X42787380Y-43386285D01*
X41787380Y-42052952D02*
X41787380Y-42529142D01*
X42263571Y-42576761D01*
X42215952Y-42529142D01*
X42168333Y-42433904D01*
X42168333Y-42195809D01*
X42215952Y-42100571D01*
X42263571Y-42052952D01*
X42358809Y-42005333D01*
X42596904Y-42005333D01*
X42692142Y-42052952D01*
X42739761Y-42100571D01*
X42787380Y-42195809D01*
X42787380Y-42433904D01*
X42739761Y-42529142D01*
X42692142Y-42576761D01*
X39290666Y-32980380D02*
X39290666Y-33694666D01*
X39243047Y-33837523D01*
X39147809Y-33932761D01*
X39004952Y-33980380D01*
X38909714Y-33980380D01*
X40195428Y-32980380D02*
X40004952Y-32980380D01*
X39909714Y-33028000D01*
X39862095Y-33075619D01*
X39766857Y-33218476D01*
X39719238Y-33408952D01*
X39719238Y-33789904D01*
X39766857Y-33885142D01*
X39814476Y-33932761D01*
X39909714Y-33980380D01*
X40100190Y-33980380D01*
X40195428Y-33932761D01*
X40243047Y-33885142D01*
X40290666Y-33789904D01*
X40290666Y-33551809D01*
X40243047Y-33456571D01*
X40195428Y-33408952D01*
X40100190Y-33361333D01*
X39909714Y-33361333D01*
X39814476Y-33408952D01*
X39766857Y-33456571D01*
X39719238Y-33551809D01*
X43619809Y-60459190D02*
X43619809Y-60935380D01*
X43286476Y-59935380D02*
X43619809Y-60459190D01*
X43953142Y-59935380D01*
X44810285Y-60935380D02*
X44238857Y-60935380D01*
X44524571Y-60935380D02*
X44524571Y-59935380D01*
X44429333Y-60078238D01*
X44334095Y-60173476D01*
X44238857Y-60221095D01*
M02*
