M48
;DRILL file {KiCad (5.0.2)-1} date 13.05.2019 12:58:13
;FORMAT={-:-/ absolute / metric / decimal}
FMAT,2
METRIC,TZ
T1C0.400
T2C0.500
T3C0.550
T4C0.800
T5C1.000
T6C1.500
%
G90
G05
T1
X28.956Y-60.96
X30.988Y-52.324
X35.052Y-52.324
X35.56Y-37.592
X36.576Y-69.85
X38.1Y-67.056
X38.862Y-70.866
X40.132Y-46.228
X40.132Y-56.896
X41.593Y-39.116
X42.672Y-53.34
X43.393Y-33.701
X43.943Y-36.241
X48.26Y-57.912
X49.276Y-41.148
X49.276Y-55.88
X49.784Y-61.976
X52.07Y-33.274
T4
X41.656Y-64.008
X46.536Y-64.008
T5
X41.021Y-29.718
X43.561Y-29.718
X46.101Y-29.718
X48.641Y-29.718
X52.451Y-40.386
X54.991Y-40.386
X57.531Y-40.386
X60.071Y-40.386
X38.332Y-73.025
X38.332Y-75.525
X38.332Y-78.025
X52.832Y-73.025
X52.832Y-78.025
X38.481Y-36.068
X41.021Y-36.068
X54.991Y-62.738
X57.531Y-62.738
X60.071Y-62.738
X37.465Y-42.672
X40.005Y-42.672
T2
X27.709Y-35.713G85X28.359Y-35.713
G05
X27.709Y-42.713G85X28.359Y-42.713
G05
T3
X30.734Y-36.563G85X30.734Y-36.863
G05
X30.734Y-41.563G85X30.734Y-41.863
G05
T6
X45.182Y-69.925G85X46.482Y-69.925
G05
X45.182Y-81.125G85X46.482Y-81.125
G05
T0
M30
